<?xml version="1.0" encoding="UTF-8"?>
<svg version="1.1" xmlns="http://www.w3.org/2000/svg" width="312" height="204">
<path d="M0 0 C3.1875 -0.3125 3.1875 -0.3125 6 0 C10.64916538 8.6439842 14.14663952 17.67933604 17.6875 26.8125 C18.27365116 28.31462387 18.8602369 29.81657824 19.44726562 31.31835938 C20.52052732 34.06511904 21.59104774 36.81291465 22.65893555 39.56176758 C23.75823686 42.38016562 24.87646918 45.19117295 26 48 C26.33 32.49 26.66 16.98 27 1 C34.6725 0.938125 34.6725 0.938125 42.5 0.875 C44.09779297 0.85679199 45.69558594 0.83858398 47.34179688 0.81982422 C48.62119141 0.8148291 49.90058594 0.80983398 51.21875 0.8046875 C53.1668457 0.78897705 53.1668457 0.78897705 55.15429688 0.77294922 C61.91440728 1.17206696 68.61498695 2.65684262 74 7 C76.20386651 9.53955479 78.14365289 12.19847983 80 15 C83.08413625 13.66791562 84.66851882 12.39416569 86.625 9.6875 C90.86054021 4.49869243 96.75851168 2.08049611 103 0 C112.3344565 -0.85082738 123.07704406 -1.66641786 131 4 C132.07121094 4.76376953 132.07121094 4.76376953 133.1640625 5.54296875 C138.93277439 10.12647256 141.70261242 15.10783727 144 22 C144.75423544 31.49259174 145.0693759 40.10556701 139 48 C132.09281746 55.66870943 124.88388214 59.7957559 114.625 60.875 C105.08537588 61.32025667 96.49177116 60.30636433 89 54 C85.31307047 50.33492974 82.17859452 46.74849001 80 42 C79.64808594 42.59167969 79.29617187 43.18335938 78.93359375 43.79296875 C73.51011388 52.47336865 67.89361634 56.47328147 58 59 C54.83304095 59.41792556 51.70368886 59.50960583 48.51171875 59.546875 C47.64609818 59.56719788 46.7804776 59.58752075 45.8886261 59.60845947 C44.07619245 59.64836086 42.2636015 59.68163208 40.45092773 59.70849609 C37.6770544 59.75015688 34.90424831 59.81282073 32.13085938 59.87890625 C30.36200378 59.91527994 28.59312354 59.95047798 26.82421875 59.984375 C25.99814621 60.0019989 25.17207367 60.0196228 24.32096863 60.03778076 C16.98395105 60.13681381 16.98395105 60.13681381 14 59 C12.86733285 56.47534453 12.02271343 54.1940995 11.25 51.5625 C11.02957031 50.86833984 10.80914062 50.17417969 10.58203125 49.45898438 C9 44.38371021 9 44.38371021 9 42 C2.73 42.33 -3.54 42.66 -10 43 C-11.6037636 47.89040176 -11.6037636 47.89040176 -13.20092773 52.78295898 C-14.88888889 57.88888889 -14.88888889 57.88888889 -16 59 C-22.63517178 59.9631701 -29.29607006 60.40702432 -36 60 C-38.08946957 57.91053043 -37.65085406 53.64273045 -37.9375 50.75 C-38.73377243 43.12070529 -39.74299242 35.56879033 -41 28 C-41.66 28 -42.32 28 -43 28 C-43.49628906 29.06476563 -43.99257812 30.12953125 -44.50390625 31.2265625 C-48.86606441 40.55661414 -53.34151134 49.81404267 -58 59 C-59.65 59 -61.3 59 -63 59 C-68.33333333 48.33333333 -73.66666667 37.66666667 -79 27 C-80.90985159 28.90985159 -80.46989511 32.29023507 -80.68359375 34.84375 C-80.8076671 36.24872228 -80.93202478 37.65366948 -81.05664062 39.05859375 C-81.24892121 41.28373066 -81.43824685 43.50903127 -81.62231445 45.73486328 C-81.80118775 47.87613068 -81.9916067 50.01612433 -82.18359375 52.15625 C-82.34686157 54.08694336 -82.34686157 54.08694336 -82.51342773 56.05664062 C-82.67399658 57.02794922 -82.83456543 57.99925781 -83 59 C-85.73247348 60.36623674 -87.98198902 60.128426 -91 60 C-91.33 59.67 -91.66 59.34 -92 59 C-91.76136604 52.26540863 -90.53805023 45.52468811 -89.5 38.875 C-88.42238674 31.93690709 -88.42238674 31.93690709 -87.50390625 24.9765625 C-86.9562503 20.46038517 -86.20066026 15.98402294 -85.4375 11.5 C-85.29892578 10.67757812 -85.16035156 9.85515625 -85.01757812 9.0078125 C-84.67988697 7.00495459 -84.34015815 5.00244041 -84 3 C-81.69 2.34 -79.38 1.68 -77 1 C-73.68643574 4.07957172 -71.95368486 7.71426716 -69.98828125 11.73046875 C-69.42864937 12.85609978 -69.42864937 12.85609978 -68.85771179 14.00447083 C-67.67030125 16.39605107 -66.49131501 18.7916732 -65.3125 21.1875 C-64.5077138 22.81212269 -63.70238155 24.436475 -62.89648438 26.06054688 C-60.92464532 30.03725781 -58.9603501 34.01761378 -57 38 C-50.49438737 25.7493474 -44.14974926 13.43318873 -38 1 C-35.36 1 -32.72 1 -30 1 C-27.93792687 10.20072987 -26.95083072 19.45239772 -25.9375 28.8125 C-25.67761052 31.19059735 -25.41642219 33.56853452 -25.15272522 35.94621277 C-24.99004678 37.41511713 -24.82962984 38.88427434 -24.67185974 40.35371399 C-24.27622483 43.94725559 -23.77823329 47.46861117 -23 51 C-20.9832978 47.97494671 -19.67792893 45.09898943 -18.26171875 41.75390625 C-18.00065842 41.13858536 -17.73959808 40.52326447 -17.47062683 39.88929749 C-14.2559246 32.2865156 -11.13388268 24.64432224 -8.02368164 16.99829102 C-7.25512518 15.11062103 -6.48148798 13.22509928 -5.70703125 11.33984375 C-5.2581958 10.24019287 -4.80936035 9.14054199 -4.34692383 8.00756836 C-3.06626588 5.14796618 -1.83304486 2.54379945 0 0 Z M98 13 C93.69453712 21.70394501 92.32346704 31.41938401 94.73046875 40.8671875 C96.56574666 45.91607449 98.71838571 49.59666557 103 53 C108.14219525 54.71406508 113.74830638 54.90067745 118.8125 52.875 C125.52620755 47.12039353 128.54735213 41.41317243 129.28515625 32.58984375 C129.49448198 24.08029793 128.88225983 17.55728583 123.625 10.625 C119.76932896 6.76932896 117.46578635 6.11633225 112.0625 5.6875 C106.013661 5.85837116 101.93230151 8.54495206 98 13 Z M41 7 C41 22.18 41 37.36 41 53 C53.03777545 53.68050662 53.03777545 53.68050662 62 48 C67.34493814 41.65483951 67.08647115 32.90346326 67 25 C66.45584405 20.16142415 65.0099189 15.86989572 62 12 C54.74517058 6.44310938 50.68947303 7 41 7 Z M80 17 C80.33 17.66 80.66 18.32 81 19 C81.33 18.34 81.66 17.68 82 17 C81.34 17 80.68 17 80 17 Z M-1 20 C-2.0044134 22.2898234 -3.00367612 24.5816599 -4 26.875 C-4.28617187 27.52597656 -4.57234375 28.17695312 -4.8671875 28.84765625 C-6.45925765 32.29638339 -6.45925765 32.29638339 -7 36 C-2.71 36 1.58 36 6 36 C4.3967597 30.35048657 2.85403778 25.16444932 0 20 C-0.33 20 -0.66 20 -1 20 Z " fill="#FBFCFB" transform="translate(143,65)"/>
<path d="M0 0 C0.85078125 0.00322266 1.7015625 0.00644531 2.578125 0.00976562 C3.46757812 0.01814453 4.35703125 0.02652344 5.2734375 0.03515625 C6.170625 0.03966797 7.0678125 0.04417969 7.9921875 0.04882812 C10.21100398 0.06063034 12.42968768 0.0770947 14.6484375 0.09765625 C14.6484375 1.08765625 14.6484375 2.07765625 14.6484375 3.09765625 C12.9984375 3.09765625 11.3484375 3.09765625 9.6484375 3.09765625 C9.6484375 7.71765625 9.6484375 12.33765625 9.6484375 17.09765625 C8.6584375 17.09765625 7.6684375 17.09765625 6.6484375 17.09765625 C6.6484375 12.47765625 6.6484375 7.85765625 6.6484375 3.09765625 C3.0184375 3.42765625 -0.6115625 3.75765625 -4.3515625 4.09765625 C-4.3515625 5.08765625 -4.3515625 6.07765625 -4.3515625 7.09765625 C-3.7534375 7.20078125 -3.1553125 7.30390625 -2.5390625 7.41015625 C0.03600859 8.21946431 1.12995663 8.85989497 2.6484375 11.09765625 C2.4609375 13.72265625 2.4609375 13.72265625 1.6484375 16.09765625 C-1.56607519 17.7049126 -4.78768786 17.1551381 -8.3515625 17.09765625 C-7.8565625 15.61265625 -7.8565625 15.61265625 -7.3515625 14.09765625 C-5.0415625 14.09765625 -2.7315625 14.09765625 -0.3515625 14.09765625 C-0.9290625 13.52015625 -1.5065625 12.94265625 -2.1015625 12.34765625 C-4.18489583 10.26432292 -6.26822917 8.18098958 -8.3515625 6.09765625 C-6.49232857 0.91836173 -5.45873443 -0.03639156 0 0 Z " fill="#F2F8F7" transform="translate(254.3515625,138.90234375)"/>
<path d="M0 0 C3.6875 0.3125 3.6875 0.3125 6.125 2.3125 C6.8984375 3.3025 6.8984375 3.3025 7.6875 4.3125 C7.31625 5.158125 6.945 6.00375 6.5625 6.875 C5.50418613 11.03266164 6.25469834 13.3324954 7.6875 17.3125 C6.6975 17.3125 5.7075 17.3125 4.6875 17.3125 C4.254375 16.343125 3.82125 15.37375 3.375 14.375 C1.9860139 11.03518235 1.9860139 11.03518235 -1.3125 10.3125 C-1.3125 12.6225 -1.3125 14.9325 -1.3125 17.3125 C-2.3025 17.3125 -3.2925 17.3125 -4.3125 17.3125 C-4.33934679 14.66659986 -4.35926357 12.02096904 -4.375 9.375 C-4.38337891 8.62025391 -4.39175781 7.86550781 -4.40039062 7.08789062 C-4.40902441 5.16255687 -4.36474333 3.23714419 -4.3125 1.3125 C-3.3125 0.3125 -3.3125 0.3125 0 0 Z M-1.3125 3.3125 C-1.3125 4.9625 -1.3125 6.6125 -1.3125 8.3125 C0.3375 7.9825 1.9875 7.6525 3.6875 7.3125 C3.6875 5.9925 3.6875 4.6725 3.6875 3.3125 C2.0375 3.3125 0.3875 3.3125 -1.3125 3.3125 Z " fill="#F0F8F5" transform="translate(89.3125,138.6875)"/>
<path d="M0 0 C0.99 0 1.98 0 3 0 C4.98 5.28 6.96 10.56 9 16 C7.68 16.33 6.36 16.66 5 17 C4.67 15.35 4.34 13.7 4 12 C2.35 12 0.7 12 -1 12 C-1.33 13.65 -1.66 15.3 -2 17 C-2.99 17 -3.98 17 -5 17 C-3.96232949 10.93267948 -2.66038099 5.5626148 0 0 Z M1 4 C0.67 5.98 0.34 7.96 0 10 C0.99 10 1.98 10 3 10 C2.67 8.02 2.34 6.04 2 4 C1.67 4 1.34 4 1 4 Z " fill="#F4FAF8" transform="translate(69,139)"/>
<path d="M0 0 C3.3 0 6.6 0 10 0 C10 0.99 10 1.98 10 3 C7.69 3 5.38 3 3 3 C3 4.32 3 5.64 3 7 C4.98 7 6.96 7 9 7 C9.33 7.99 9.66 8.98 10 10 C7.69 10 5.38 10 3 10 C3 11.65 3 13.3 3 15 C5.31 15 7.62 15 10 15 C10 15.66 10 16.32 10 17 C6.7 17 3.4 17 0 17 C0 11.39 0 5.78 0 0 Z " fill="#F7FBFA" transform="translate(190,139)"/>
<path d="M0 0 C1.90722656 0.27514648 1.90722656 0.27514648 4 1 C5.12684953 3.73112741 5.98163314 6.2330736 6.75 9.0625 C6.97042969 9.82111328 7.19085938 10.57972656 7.41796875 11.36132812 C7.96048899 13.23656113 8.48223106 15.11778259 9 17 C7.68 17 6.36 17 5 17 C4.67 15.68 4.34 14.36 4 13 C2.35 12.67 0.7 12.34 -1 12 C-1.33 13.65 -1.66 15.3 -2 17 C-2.99 17 -3.98 17 -5 17 C-3.83348574 11.07136283 -2.24480642 5.61201606 0 0 Z M1 5 C0.67 6.65 0.34 8.3 0 10 C0.99 10 1.98 10 3 10 C2.67 8.35 2.34 6.7 2 5 C1.67 5 1.34 5 1 5 Z " fill="#F5FBFB" transform="translate(115,139)"/>
<path d="M0 0 C0.99 0 1.98 0 3 0 C3.84161854 2.08000011 4.67300763 4.16414146 5.5 6.25 C5.9640625 7.41015625 6.428125 8.5703125 6.90625 9.765625 C8 13 8 13 8 17 C7.01 17 6.02 17 5 17 C4.67 15.35 4.34 13.7 4 12 C2.35 12 0.7 12 -1 12 C-1.33 13.65 -1.66 15.3 -2 17 C-2.99 17 -3.98 17 -5 17 C-3.83348574 11.07136283 -2.24480642 5.61201606 0 0 Z M1 4 C0.67 5.98 0.34 7.96 0 10 C0.99 10 1.98 10 3 10 C2.67 8.02 2.34 6.04 2 4 C1.67 4 1.34 4 1 4 Z " fill="#F5FBFA" transform="translate(156,139)"/>
<path d="M0 0 C0.99 0 1.98 0 3 0 C3.83698386 2.45714547 4.66972424 4.91558857 5.5 7.375 C5.73847656 8.07367188 5.97695312 8.77234375 6.22265625 9.4921875 C8 14.7734375 8 14.7734375 8 17 C7.01 17 6.02 17 5 17 C4.67 15.35 4.34 13.7 4 12 C2.02 12 0.04 12 -2 12 C-2.33 13.65 -2.66 15.3 -3 17 C-3.99 17 -4.98 17 -6 17 C-4.49829538 11.01448228 -3.05773837 5.38744379 0 0 Z M1 5 C0.34 6.65 -0.32 8.3 -1 10 C0.32 10 1.64 10 3 10 C2.67 8.35 2.34 6.7 2 5 C1.67 5 1.34 5 1 5 Z " fill="#F5FBFB" transform="translate(237,139)"/>
<path d="M0 0 C3.3 0 6.6 0 10 0 C9.67 0.99 9.34 1.98 9 3 C7.02 3 5.04 3 3 3 C3 4.32 3 5.64 3 7 C4.98 7 6.96 7 9 7 C9 7.99 9 8.98 9 10 C7.02 10 5.04 10 3 10 C3 11.65 3 13.3 3 15 C5.31 15 7.62 15 10 15 C10 15.66 10 16.32 10 17 C6.7 17 3.4 17 0 17 C0 11.39 0 5.78 0 0 Z " fill="#F3FAF9" transform="translate(98,139)"/>
<path d="M0 0 C2.97 0 5.94 0 9 0 C9 0.99 9 1.98 9 3 C7.02 3 5.04 3 3 3 C3 4.32 3 5.64 3 7 C4.98 7 6.96 7 9 7 C9 7.99 9 8.98 9 10 C7.02 10 5.04 10 3 10 C3 11.65 3 13.3 3 15 C5.31 15 7.62 15 10 15 C10 15.66 10 16.32 10 17 C6.7 17 3.4 17 0 17 C0 11.39 0 5.78 0 0 Z " fill="#F6FBFB" transform="translate(220,139)"/>
<path d="M0 0 C3.3 0 6.6 0 10 0 C10 0.99 10 1.98 10 3 C7.69 3 5.38 3 3 3 C3 4.32 3 5.64 3 7 C4.98 7 6.96 7 9 7 C9 7.99 9 8.98 9 10 C7.02 10 5.04 10 3 10 C3 12.31 3 14.62 3 17 C2.01 17 1.02 17 0 17 C0 11.39 0 5.78 0 0 Z " fill="#F4FCFB" transform="translate(208,139)"/>
<path d="M0 0 C0.33 0.99 0.66 1.98 1 3 C-0.98 3 -2.96 3 -5 3 C-4.26023529 6.2925712 -4.26023529 6.2925712 -0.9375 7.875 C2 10 2 10 2.5 12.625 C2 15 2 15 0 17 C-2.68839385 17.26991906 -5.29141936 17.08737357 -8 17 C-8 16.01 -8 15.02 -8 14 C-6.02 14 -4.04 14 -2 14 C-2 13.01 -2 12.02 -2 11 C-4.41055254 9.33700035 -4.41055254 9.33700035 -7 8 C-8 7 -8 7 -8.25 4.5625 C-8.1675 3.716875 -8.085 2.87125 -8 2 C-4.77208445 -0.1519437 -3.71599191 -0.20086443 0 0 Z " fill="#F3FAF9" transform="translate(174,139)"/>
<path d="M0 0 C4.29 0 8.58 0 13 0 C13 0.99 13 1.98 13 3 C11.35 3 9.7 3 8 3 C8 7.62 8 12.24 8 17 C7.01 17 6.02 17 5 17 C5 12.38 5 7.76 5 3 C3.35 3 1.7 3 0 3 C0 2.01 0 1.02 0 0 Z " fill="#F5FCFB" transform="translate(140,139)"/>
<path d="M0 0 C4.29 0 8.58 0 13 0 C13 0.99 13 1.98 13 3 C11.35 3 9.7 3 8 3 C8 7.62 8 12.24 8 17 C7.01 17 6.02 17 5 17 C5 12.38 5 7.76 5 3 C3.35 2.67 1.7 2.34 0 2 C0 1.34 0 0.68 0 0 Z " fill="#F6FAFA" transform="translate(176,139)"/>
<path d="M0 0 C0.99 0 1.98 0 3 0 C3 4.95 3 9.9 3 15 C5.31 15 7.62 15 10 15 C10 15.66 10 16.32 10 17 C6.7 17 3.4 17 0 17 C0 11.39 0 5.78 0 0 Z " fill="#F8FCFB" transform="translate(125,139)"/>
<path d="M0 0 C1.67542976 0.28604898 3.34385343 0.61781233 5 1 C4.01 1.33 3.02 1.66 2 2 C2.185625 3.175625 2.37125 4.35125 2.5625 5.5625 C3.08230996 9.61268594 2.7502354 12.99874453 2 17 C1.01 17 0.02 17 -1 17 C-1.02684679 14.35409986 -1.04676357 11.70846904 -1.0625 9.0625 C-1.07087891 8.30775391 -1.07925781 7.55300781 -1.08789062 6.77539062 C-1.09652441 4.85005687 -1.05224333 2.92464419 -1 1 C-0.67 0.67 -0.34 0.34 0 0 Z " fill="#F8FCFB" transform="translate(86,139)"/>
<path d="M0 0 C1.65 0.33 3.3 0.66 5 1 C3.49336217 4.01327566 0.96833589 4.61056618 -2 6 C-1.34 4.02 -0.68 2.04 0 0 Z " fill="#F4F4F4" transform="translate(105,66)"/>
</svg>
