<?xml version="1.0" encoding="UTF-8"?>
<svg version="1.1" xmlns="http://www.w3.org/2000/svg" width="322" height="145">
<path d="M0 0 C1.0209375 0.4640625 1.0209375 0.4640625 2.0625 0.9375 C3.0525 1.35 4.0425 1.7625 5.0625 2.1875 C8.26826133 4.05752744 9.94481886 5.92387683 12.0625 8.9375 C12.7225 6.6275 13.3825 4.3175 14.0625 1.9375 C16.23046875 2.02734375 16.23046875 2.02734375 19.0625 2.9375 C21.03043431 5.10079129 22.69403739 7.13669108 24.375 9.5 C24.82939453 10.11552734 25.28378906 10.73105469 25.75195312 11.36523438 C26.86774319 12.88035983 27.96680371 14.40778033 29.0625 15.9375 C29.3925 11.3175 29.7225 6.6975 30.0625 1.9375 C31.7125 1.9375 33.3625 1.9375 35.0625 1.9375 C35.3925 8.5375 35.7225 15.1375 36.0625 21.9375 C39.30926919 17.70483496 39.30926919 17.70483496 42.55444336 13.47094727 C45.95138889 9.04861111 45.95138889 9.04861111 47.0625 7.9375 C41.6175 7.4425 41.6175 7.4425 36.0625 6.9375 C36.3925 5.2875 36.7225 3.6375 37.0625 1.9375 C43.0025 1.9375 48.9425 1.9375 55.0625 1.9375 C55.0625 7.5625 55.0625 7.5625 52.65625 10.48828125 C51.91181641 11.41157227 51.91181641 11.41157227 51.15234375 12.35351562 C50.62769531 12.97935547 50.10304688 13.60519531 49.5625 14.25 C49.03785156 14.89517578 48.51320312 15.54035156 47.97265625 16.20507812 C46.68008026 17.79142139 45.37270194 19.36568306 44.0625 20.9375 C47.6925 21.2675 51.3225 21.5975 55.0625 21.9375 C55.3925 15.3375 55.7225 8.7375 56.0625 1.9375 C67.2825 1.9375 78.5025 1.9375 90.0625 1.9375 C90.5575 4.4125 90.5575 4.4125 91.0625 6.9375 C87.1025 6.9375 83.1425 6.9375 79.0625 6.9375 C79.0625 8.5875 79.0625 10.2375 79.0625 11.9375 C82.3625 11.9375 85.6625 11.9375 89.0625 11.9375 C89.0625 13.5875 89.0625 15.2375 89.0625 16.9375 C85.7625 16.9375 82.4625 16.9375 79.0625 16.9375 C79.0625 18.5875 79.0625 20.2375 79.0625 21.9375 C83.0225 21.9375 86.9825 21.9375 91.0625 21.9375 C91.0625 23.5875 91.0625 25.2375 91.0625 26.9375 C83.3004118 27.2869913 75.54020299 27.5524947 67.77219677 27.71468258 C64.16339733 27.79259083 60.5600212 27.89792655 56.9543457 28.0690918 C33.59271994 29.15060494 33.59271994 29.15060494 27.63677979 25.41680908 C23.55790594 21.5297401 21.15331889 17.1226529 19.0625 11.9375 C18.7325 16.8875 18.4025 21.8375 18.0625 26.9375 C16.4125 26.9375 14.7625 26.9375 13.0625 26.9375 C12.7325 24.6275 12.4025 22.3175 12.0625 19.9375 C11.464375 20.72125 10.86625 21.505 10.25 22.3125 C7.88229553 25.15374536 6.29339529 26.75392849 2.57421875 27.30859375 C-5.99521636 27.51008807 -5.99521636 27.51008807 -9.5625 24.75 C-11.92539733 21.95183211 -12.73146857 20.54305003 -12.9375 16.9375 C-13.5975 16.9375 -14.2575 16.9375 -14.9375 16.9375 C-15.63471414 11.79554574 -15.63471414 11.79554574 -14.9375 8.9375 C-13.10290441 7.21896155 -11.26345266 6.19447545 -9.03515625 5.0390625 C-6.70018961 3.91404111 -6.70018961 3.91404111 -4.1875 1.5625 C-1.9375 -0.0625 -1.9375 -0.0625 0 0 Z M-0.9375 5.9375 C-2.14300294 7.14901542 -3.32642747 8.38252889 -4.5 9.625 C-5.16128906 10.30949219 -5.82257812 10.99398437 -6.50390625 11.69921875 C-8.21276711 13.86995317 -8.21276711 13.86995317 -7.72265625 16.59375 C-6.81635767 19.29911889 -6.35797131 20.40453484 -3.9375 21.9375 C-0.32717817 22.33135329 2.1318919 22.37831436 5.4375 20.8125 C7.71193318 18.18815402 7.99346951 16.38902438 8.0625 12.9375 C7.14226712 10.09821467 7.14226712 10.09821467 5.0625 7.9375 C1.98688754 6.57769119 1.98688754 6.57769119 -0.9375 5.9375 Z M61.0625 6.9375 C61.0625 8.5875 61.0625 10.2375 61.0625 11.9375 C64.6925 11.9375 68.3225 11.9375 72.0625 11.9375 C71.7325 13.2575 71.4025 14.5775 71.0625 15.9375 C67.7625 16.2675 64.4625 16.5975 61.0625 16.9375 C61.0625 18.5875 61.0625 20.2375 61.0625 21.9375 C65.0225 21.9375 68.9825 21.9375 73.0625 21.9375 C73.0625 16.9875 73.0625 12.0375 73.0625 6.9375 C69.1025 6.9375 65.1425 6.9375 61.0625 6.9375 Z " fill="#F6F9F8" transform="translate(59.9375,57.0625)"/>
<path d="M0 0 C1.65 0.33 3.3 0.66 5 1 C6.32 4.96 7.64 8.92 9 13 C10.79068573 10.3139714 11.66055791 8.3373411 12.625 5.3125 C12.88539063 4.50425781 13.14578125 3.69601563 13.4140625 2.86328125 C13.60742188 2.24839844 13.80078125 1.63351563 14 1 C15.65 0.67 17.3 0.34 19 0 C21 4.66666667 23 9.33333333 25 14 C25.27714844 13.07316406 25.55429688 12.14632812 25.83984375 11.19140625 C26.20207031 9.99386719 26.56429687 8.79632813 26.9375 7.5625 C27.29714844 6.36753906 27.65679687 5.17257813 28.02734375 3.94140625 C29 1 29 1 30 0 C32.54684578 -0.11338371 35.06553739 -0.16417775 37.61328125 -0.16796875 C38.76222115 -0.17296135 38.76222115 -0.17296135 39.93437195 -0.17805481 C41.55935057 -0.18312831 43.18433964 -0.18546301 44.80932617 -0.18530273 C47.29168018 -0.18748172 49.77358454 -0.20561174 52.25585938 -0.22460938 C53.83333181 -0.22754474 55.41080636 -0.22952858 56.98828125 -0.23046875 C57.73008133 -0.23765427 58.47188141 -0.24483978 59.23616028 -0.25224304 C65.97660124 -0.22249843 65.97660124 -0.22249843 69 2 C70.375 4.875 70.375 4.875 71 8 C70.125 10.375 70.125 10.375 69 12 C69.515625 12.350625 70.03125 12.70125 70.5625 13.0625 C72 15 72 15 72 18.5 C71 22 71 22 68.88964844 23.69824219 C65.31599483 25.30813751 62.67995983 25.35701676 58.765625 25.328125 C58.08699402 25.32625183 57.40836304 25.32437866 56.70916748 25.32244873 C55.28376303 25.31575746 53.85837602 25.30190142 52.43310547 25.28125 C50.24299204 25.24989968 48.05359755 25.24025636 45.86328125 25.234375 C35.16367616 25.16367616 35.16367616 25.16367616 34 24 C33.76304852 21.30577395 33.57831398 18.63665389 33.4375 15.9375 C33.293125 13.318125 33.14875 10.69875 33 8 C31.02 13.61 29.04 19.22 27 25 C25.35 25 23.7 25 22 25 C20.35 20.05 18.7 15.1 17 10 C15.35 14.95 13.7 19.9 12 25 C10.35 25 8.7 25 7 25 C3.61554795 17.18695644 1.22442976 9.21145881 -1 1 C-0.67 0.67 -0.34 0.34 0 0 Z M40 5 C40 6.65 40 8.3 40 10 C43.3 10 46.6 10 50 10 C49.67 11.32 49.34 12.64 49 14 C44.545 14.495 44.545 14.495 40 15 C40 16.65 40 18.3 40 20 C43.96 20 47.92 20 52 20 C52 15.05 52 10.1 52 5 C48.04 5 44.08 5 40 5 Z M57 5 C57 6.65 57 8.3 57 10 C59.31 10 61.62 10 64 10 C64.59070014 8.05396726 64.59070014 8.05396726 65 6 C63.81575674 4.58422523 63.81575674 4.58422523 60.4375 4.9375 C58.7359375 4.9684375 58.7359375 4.9684375 57 5 Z M57 14 C57 15.98 57 17.96 57 20 C59.64 20 62.28 20 65 20 C65.38218767 18.34385343 65.71395102 16.67542976 66 15 C65.01732141 13.79438816 65.01732141 13.79438816 63.15234375 13.90234375 C61.1015625 13.93489583 59.05078125 13.96744792 57 14 Z " fill="#F7F9F9" transform="translate(210,59)"/>
<path d="M0 0 C3.8026029 2.0050088 5.61790841 3.42686262 8 7 C8.66 4.69 9.32 2.38 10 0 C13.31120168 0.25530293 14.20523024 1.21113838 16.578125 3.65234375 C17.47848978 4.73940181 18.36886346 5.83479861 19.25 6.9375 C19.93835938 7.76411133 19.93835938 7.76411133 20.640625 8.60742188 C24 12.72165644 24 12.72165644 24 15 C24.66 15 25.32 15 26 15 C26 10.05 26 5.1 26 0 C28.475 0.495 28.475 0.495 31 1 C31 8.92 31 16.84 31 25 C29.35 25 27.7 25 26 25 C24.00138858 22.87425797 22.40461655 20.9280072 20.75 18.5625 C19.8698275 17.35544262 18.9896209 16.1484101 18.109375 14.94140625 C17.41328125 13.97074219 16.7171875 13.00007813 16 12 C15.505 11.505 15.505 11.505 15 11 C14.67 15.62 14.34 20.24 14 25 C12.35 25 10.7 25 9 25 C8.67 22.69 8.34 20.38 8 18 C7.4225 18.78375 6.845 19.5675 6.25 20.375 C3.66434303 23.3915998 1.78439489 24.72098553 -2.1484375 25.3359375 C-7.57729786 25.43118066 -10.85450057 24.84939233 -15 21 C-17.52193109 16.98067232 -18.31875995 14.00777478 -17.625 9.375 C-16.45631127 5.23146722 -14.74696269 3.02317762 -11.0625 0.8125 C-7.32300661 -0.66063376 -3.92418851 -0.7848377 0 0 Z M-11 7 C-13.31779699 9.87577027 -13.31779699 9.87577027 -13 13.4375 C-12.28891773 17.18153374 -12.28891773 17.18153374 -9.25 19.5 C-6.19906204 21.19759007 -6.19906204 21.19759007 -3.375 20.9375 C-0.70694312 19.88431965 0.9976678 19.07384407 3 17 C4.40502235 13.04837465 4.23914383 11.50698492 2.4375 7.6875 C0.21888679 4.82004525 0.21888679 4.82004525 -2.9375 3.9375 C-6.57593491 4.01175377 -8.14835909 4.78205707 -11 7 Z " fill="#F7F9F8" transform="translate(173,59)"/>
<path d="M0 0 C1.0209375 0.4640625 1.0209375 0.4640625 2.0625 0.9375 C3.0525 1.35 4.0425 1.7625 5.0625 2.1875 C8.26826133 4.05752744 9.94481886 5.92387683 12.0625 8.9375 C12.3925 6.9575 12.7225 4.9775 13.0625 2.9375 C13.3925 2.9375 13.7225 2.9375 14.0625 2.9375 C14.05089844 3.68515625 14.03929688 4.4328125 14.02734375 5.203125 C14.01832031 6.18796875 14.00929688 7.1728125 14 8.1875 C13.98839844 9.16203125 13.97679688 10.1365625 13.96484375 11.140625 C13.96034985 13.84519303 13.96034985 13.84519303 14.59375 16.03125 C15.41848081 19.3851553 14.56979724 22.55551842 14.0625 25.9375 C14.7225 26.2675 15.3825 26.5975 16.0625 26.9375 C15.0725 26.9375 14.0825 26.9375 13.0625 26.9375 C12.7325 24.6275 12.4025 22.3175 12.0625 19.9375 C11.464375 20.72125 10.86625 21.505 10.25 22.3125 C7.88229553 25.15374536 6.29339529 26.75392849 2.57421875 27.30859375 C-5.99521636 27.51008807 -5.99521636 27.51008807 -9.5625 24.75 C-11.92539733 21.95183211 -12.73146857 20.54305003 -12.9375 16.9375 C-13.5975 16.9375 -14.2575 16.9375 -14.9375 16.9375 C-15.63471414 11.79554574 -15.63471414 11.79554574 -14.9375 8.9375 C-13.10290441 7.21896155 -11.26345266 6.19447545 -9.03515625 5.0390625 C-6.70018961 3.91404111 -6.70018961 3.91404111 -4.1875 1.5625 C-1.9375 -0.0625 -1.9375 -0.0625 0 0 Z M-0.9375 5.9375 C-2.14300294 7.14901542 -3.32642747 8.38252889 -4.5 9.625 C-5.16128906 10.30949219 -5.82257812 10.99398437 -6.50390625 11.69921875 C-8.21276711 13.86995317 -8.21276711 13.86995317 -7.72265625 16.59375 C-6.81635767 19.29911889 -6.35797131 20.40453484 -3.9375 21.9375 C-0.32717817 22.33135329 2.1318919 22.37831436 5.4375 20.8125 C7.71193318 18.18815402 7.99346951 16.38902438 8.0625 12.9375 C7.14226712 10.09821467 7.14226712 10.09821467 5.0625 7.9375 C1.98688754 6.57769119 1.98688754 6.57769119 -0.9375 5.9375 Z " fill="#E1E3E1" transform="translate(59.9375,57.0625)"/>
<path d="M0 0 C2.08304538 -0.05418326 4.16649768 -0.09287551 6.25 -0.125 C7.99023438 -0.15980469 7.99023438 -0.15980469 9.765625 -0.1953125 C12.86068174 -0.00841294 14.49179843 0.23366087 17 2 C18.375 4.875 18.375 4.875 19 8 C18.125 10.375 18.125 10.375 17 12 C17.515625 12.350625 18.03125 12.70125 18.5625 13.0625 C20 15 20 15 20 18.5 C19 22 19 22 16.89453125 23.70703125 C13.29423801 25.31525941 10.61488081 25.29761348 6.6875 25.1875 C4.80611328 25.14689453 4.80611328 25.14689453 2.88671875 25.10546875 C1.93410156 25.07066406 0.98148437 25.03585938 0 25 C-0.33 23.68 -0.66 22.36 -1 21 C-3.97 21 -6.94 21 -10 21 C-10 20.67 -10 20.34 -10 20 C-6.7 20 -3.4 20 0 20 C0 15.05 0 10.1 0 5 C-3.96 5 -7.92 5 -12 5 C-12 4.67 -12 4.34 -12 4 C-8.37 4 -4.74 4 -1 4 C-0.67 2.68 -0.34 1.36 0 0 Z M5 5 C5 6.65 5 8.3 5 10 C7.31 10 9.62 10 12 10 C12.59070014 8.05396726 12.59070014 8.05396726 13 6 C11.81575674 4.58422523 11.81575674 4.58422523 8.4375 4.9375 C6.7359375 4.9684375 6.7359375 4.9684375 5 5 Z M5 14 C5 15.98 5 17.96 5 20 C7.64 20 10.28 20 13 20 C13.38218767 18.34385343 13.71395102 16.67542976 14 15 C13.01732141 13.79438816 13.01732141 13.79438816 11.15234375 13.90234375 C9.1015625 13.93489583 7.05078125 13.96744792 5 14 Z " fill="#EDEFEE" transform="translate(262,59)"/>
<path d="M0 0 C0 0.99 0 1.98 0 3 C0.66 2.34 1.32 1.68 2 1 C4.625 1.375 4.625 1.375 7 2 C7.66 1.01 8.32 0.02 9 -1 C9.99 -0.34 10.98 0.32 12 1 C12 2.32 12 3.64 12 5 C12.66 5 13.32 5 14 5 C14 3.68 14 2.36 14 1 C18.75 -0.125 18.75 -0.125 21 1 C21 0.34 21 -0.32 21 -1 C21.66 -1 22.32 -1 23 -1 C23.33 -0.01 23.66 0.98 24 2 C24.680625 1.835 25.36125 1.67 26.0625 1.5 C29.4164822 0.92910941 32.60389805 0.93340977 36 1 C36 2.98 36 4.96 36 7 C35.34 7 34.68 7 34 7 C33.505 5.515 33.505 5.515 33 4 C32.67 4.99 32.34 5.98 32 7 C26.375 8.125 26.375 8.125 23 7 C21.00041636 6.95919217 18.99954746 6.95745644 17 7 C13.33333333 7 9.66666667 7 6 7 C5.01 7.33 4.02 7.66 3 8 C2.01 7.67 1.02 7.34 0 7 C-0.99 7.33 -1.98 7.66 -3 8 C-3.99 7.01 -4.98 6.02 -6 5 C-4.68 4.67 -3.36 4.34 -2 4 C-3.32 3.67 -4.64 3.34 -6 3 C-6 2.01 -6 1.02 -6 0 C-3.50907189 -1.24546405 -2.58919267 -0.7767578 0 0 Z M3 3 C3 3.99 3 4.98 3 6 C3.66 6 4.32 6 5 6 C5 5.01 5 4.02 5 3 C4.34 3 3.68 3 3 3 Z M19 3 C19 3.99 19 4.98 19 6 C19.66 6 20.32 6 21 6 C21 5.01 21 4.02 21 3 C20.34 3 19.68 3 19 3 Z M26 3 C26 3.99 26 4.98 26 6 C26.66 5.67 27.32 5.34 28 5 C28 4.34 28 3.68 28 3 C27.34 3 26.68 3 26 3 Z " fill="#D3E0DD" transform="translate(82,99)"/>
<path d="M0 0 C0.99 1.32 1.98 2.64 3 4 C3.66 3.34 4.32 2.68 5 2 C7.84724687 1.85398734 10.59438052 1.81395862 13.4375 1.875 C14.21416016 1.88402344 14.99082031 1.89304687 15.79101562 1.90234375 C17.86078258 1.92730218 19.93041186 1.9630797 22 2 C22.99 2 23.98 2 25 2 C27.33333333 2 29.66666667 2 32 2 C32 2.66 32 3.32 32 4 C32.66 4 33.32 4 34 4 C34 3.34 34 2.68 34 2 C34.66 2 35.32 2 36 2 C35.34 4.31 34.68 6.62 34 9 C32.68 9.33 31.36 9.66 30 10 C30 9.34 30 8.68 30 8 C29.443125 8.20625 28.88625 8.4125 28.3125 8.625 C25.340462 9.10695211 23.68020059 8.26565028 21 7 C21 6.34 21 5.68 21 5 C20.54625 5.495 20.0925 5.99 19.625 6.5 C18 8 18 8 16 8 C15.01 8.33 14.02 8.66 13 9 C12.01 8.67 11.02 8.34 10 8 C10 8.66 10 9.32 10 10 C6.28400809 10.20086443 5.22791555 10.1519437 2 8 C-0.62531524 7.83286431 -0.62531524 7.83286431 -3 8 C-2.45276317 4.62537285 -1.9451 2.91765 0 0 Z M6 4 C6 4.66 6 5.32 6 6 C6.99 5.67 7.98 5.34 9 5 C8.01 4.67 7.02 4.34 6 4 Z M26 4 C26.33 4.99 26.66 5.98 27 7 C27.99 6.67 28.98 6.34 30 6 C30 6.66 30 7.32 30 8 C30.66 7.67 31.32 7.34 32 7 C31.67 6.34 31.34 5.68 31 5 C28.47266765 4.34444881 28.47266765 4.34444881 26 4 Z " fill="#DFE7E5" transform="translate(223,98)"/>
<path d="M0 0 C0.66 0 1.32 0 2 0 C2.33 0.66 2.66 1.32 3 2 C3.78375 2 4.5675 2 5.375 2 C6.91666667 2 8.45833333 2 10 2 C10.845625 1.979375 11.69125 1.95875 12.5625 1.9375 C15 2 15 2 16 3 C15.71269945 5.33944736 15.38063221 7.6739143 15 10 C11.28400809 10.20086443 10.22791555 10.1519437 7 8 C7 6.68 7 5.36 7 4 C4.66924071 4.95865509 4.66924071 4.95865509 3 8 C-0.5 8.1875 -0.5 8.1875 -4 8 C-6.0745356 7.8509288 -6.0745356 7.8509288 -8 9 C-8.99 8.34 -9.98 7.68 -11 7 C-10.67 5.35 -10.34 3.7 -10 2 C-8.8553125 2.0309375 -8.8553125 2.0309375 -7.6875 2.0625 C-4.89814214 2.12942841 -4.89814214 2.12942841 -2 1 C-1.34 1.33 -0.68 1.66 0 2 C0 1.34 0 0.68 0 0 Z M-1 3 C-1.33 4.32 -1.66 5.64 -2 7 C-1.34 7 -0.68 7 0 7 C-0.33 5.68 -0.66 4.36 -1 3 Z M11 4 C11 4.66 11 5.32 11 6 C11.99 5.67 12.98 5.34 14 5 C13.01 4.67 12.02 4.34 11 4 Z " fill="#DEEAE7" transform="translate(201,98)"/>
<path d="M0 0 C13.75 -0.125 13.75 -0.125 16 1 C16 3.31 16 5.62 16 8 C14.02 8.99 14.02 8.99 12 10 C11.67 7.69 11.34 5.38 11 3 C8.36 3 5.72 3 3 3 C3 5.31 3 7.62 3 10 C4.98 10 6.96 10 9 10 C8.67 10.66 8.34 11.32 8 12 C7.38125 12.103125 6.7625 12.20625 6.125 12.3125 C3.06508649 13.30247202 2.47675798 15.25744946 1 18 C0.67 18 0.34 18 0 18 C0 12.06 0 6.12 0 0 Z " fill="#FBFCFC" transform="translate(263,60)"/>
<path d="M0 0 C1.3921875 0.2784375 1.3921875 0.2784375 2.8125 0.5625 C6.01343771 1.24123881 6.01343771 1.24123881 9 0 C9.33 0.99 9.66 1.98 10 3 C10.33 2.67 10.66 2.34 11 2 C12.66617115 1.95936168 14.33388095 1.957279 16 2 C16.33 1.34 16.66 0.68 17 0 C17.66 0 18.32 0 19 0 C18.51171875 6.0546875 18.51171875 6.0546875 18 8 C14.77208445 10.1519437 13.71599191 10.20086443 10 10 C10 9.01 10 8.02 10 7 C9.278125 7.165 8.55625 7.33 7.8125 7.5 C5.13572455 7.97587119 2.71050513 8.077443 0 8 C-0.98120464 4.94736336 -0.98120464 3.05263664 0 0 Z M2 2 C1.67 3.65 1.34 5.3 1 7 C2.32 6.34 3.64 5.68 5 5 C4.01 4.01 3.02 3.02 2 2 Z M11 4 C11 4.66 11 5.32 11 6 C11.99 6 12.98 6 14 6 C14 5.34 14 4.68 14 4 C13.01 4 12.02 4 11 4 Z " fill="#DAE6E3" transform="translate(128,98)"/>
<path d="M0 0 C2.33333333 0 4.66666667 0 7 0 C7.845625 -0.020625 8.69125 -0.04125 9.5625 -0.0625 C12 0 12 0 13 1 C12.71269945 3.33944736 12.38063221 5.6739143 12 8 C8.28400809 8.20086443 7.22791555 8.1519437 4 6 C4 4.68 4 3.36 4 2 C1.66924071 2.95865509 1.66924071 2.95865509 0 6 C0 4.02 0 2.04 0 0 Z M8 2 C8 2.66 8 3.32 8 4 C8.99 3.67 9.98 3.34 11 3 C10.01 2.67 9.02 2.34 8 2 Z " fill="#D9E5E1" transform="translate(204,100)"/>
<path d="M0 0 C0 0.99 0 1.98 0 3 C0.66 2.34 1.32 1.68 2 1 C4.625 1.375 4.625 1.375 7 2 C6.67 3.65 6.34 5.3 6 7 C3 8 3 8 0 7 C-0.99 7.33 -1.98 7.66 -3 8 C-3.99 7.01 -4.98 6.02 -6 5 C-4.68 4.67 -3.36 4.34 -2 4 C-3.32 3.67 -4.64 3.34 -6 3 C-6 2.01 -6 1.02 -6 0 C-3.50907189 -1.24546405 -2.58919267 -0.7767578 0 0 Z M3 3 C3 3.99 3 4.98 3 6 C3.66 6 4.32 6 5 6 C5 5.01 5 4.02 5 3 C4.34 3 3.68 3 3 3 Z " fill="#E7F0ED" transform="translate(82,99)"/>
<path d="M0 0 C1.51400391 0.01740234 1.51400391 0.01740234 3.05859375 0.03515625 C4.07050781 0.04417969 5.08242187 0.05320312 6.125 0.0625 C7.29869141 0.07990234 7.29869141 0.07990234 8.49609375 0.09765625 C8.49609375 2.07765625 8.49609375 4.05765625 8.49609375 6.09765625 C7.83609375 6.09765625 7.17609375 6.09765625 6.49609375 6.09765625 C6.16609375 5.10765625 5.83609375 4.11765625 5.49609375 3.09765625 C5.16609375 4.08765625 4.83609375 5.07765625 4.49609375 6.09765625 C-1.25390625 7.22265625 -1.25390625 7.22265625 -3.50390625 6.09765625 C-3.54662725 4.4315372 -3.54454457 2.7638274 -3.50390625 1.09765625 C-2.50390625 0.09765625 -2.50390625 0.09765625 0 0 Z M-1.50390625 2.09765625 C-1.50390625 3.08765625 -1.50390625 4.07765625 -1.50390625 5.09765625 C-0.84390625 4.76765625 -0.18390625 4.43765625 0.49609375 4.09765625 C0.49609375 3.43765625 0.49609375 2.77765625 0.49609375 2.09765625 C-0.16390625 2.09765625 -0.82390625 2.09765625 -1.50390625 2.09765625 Z " fill="#DFE7E5" transform="translate(109.50390625,99.90234375)"/>
<path d="M0 0 C0.33 0.99 0.66 1.98 1 3 C2.32 2.67 3.64 2.34 5 2 C5 3.98 5 5.96 5 8 C2.625 8.1875 2.625 8.1875 0 8 C-0.66 7.01 -1.32 6.02 -2 5 C-2.33 5.99 -2.66 6.98 -3 8 C-3.66 8 -4.32 8 -5 8 C-5 6.02 -5 4.04 -5 2 C-3.35 2 -1.7 2 0 2 C0 1.34 0 0.68 0 0 Z " fill="#E1EAE5" transform="translate(185,98)"/>
<path d="M0 0 C0.33 0 0.66 0 1 0 C1 2.64 1 5.28 1 8 C-1.64 8 -4.28 8 -7 8 C-7.625 6.125 -7.625 6.125 -8 4 C-6 2 -6 2 -2.875 1.875 C-1.92625 1.91625 -0.9775 1.9575 0 2 C0 1.34 0 0.68 0 0 Z M-6 4 C-5.67 4.99 -5.34 5.98 -5 7 C-4.34 6.67 -3.68 6.34 -3 6 C-3 5.34 -3 4.68 -3 4 C-3.99 4 -4.98 4 -6 4 Z " fill="#DBE8E2" transform="translate(159,98)"/>
<path d="M0 0 C0.66 0.33 1.32 0.66 2 1 C2 1.66 2 2.32 2 3 C3.65 2.01 5.3 1.02 7 0 C7 2.64 7 5.28 7 8 C6.34 8 5.68 8 5 8 C4.34 7.34 3.68 6.68 3 6 C2.34 5.67 1.68 5.34 1 5 C1 5.99 1 6.98 1 8 C0.34 8 -0.32 8 -1 8 C-1.04241723 5.66705225 -1.04092937 3.33297433 -1 1 C-0.67 0.67 -0.34 0.34 0 0 Z " fill="#E7EEEC" transform="translate(165,98)"/>
<path d="M0 0 C2.04117496 0.89301405 4.03584404 1.82277359 6 2.875 C5.01 3.37 5.01 3.37 4 3.875 C3.67 4.865 3.34 5.855 3 6.875 C2.34 6.875 1.68 6.875 1 6.875 C0.67 6.215 0.34 5.555 0 4.875 C-3.02934491 4.21727572 -3.02934491 4.21727572 -6 3.875 C-2.57553957 -0.16097122 -2.57553957 -0.16097122 0 0 Z " fill="#E0E5D1" transform="translate(60,57.125)"/>
<path d="M0 0 C2.64 0 5.28 0 8 0 C8.33 0.66 8.66 1.32 9 2 C8.01 2.495 8.01 2.495 7 3 C6.34444881 5.52733235 6.34444881 5.52733235 6 8 C5.34 8 4.68 8 4 8 C4 6.02 4 4.04 4 2 C3.34 2 2.68 2 2 2 C2 3.98 2 5.96 2 8 C1.34 8 0.68 8 0 8 C0 5.36 0 2.72 0 0 Z " fill="#DBE4E2" transform="translate(65,98)"/>
<path d="M0 0 C2.31 0 4.62 0 7 0 C7 0.66 7 1.32 7 2 C7.66 2 8.32 2 9 2 C9 1.34 9 0.68 9 0 C9.66 0 10.32 0 11 0 C10.34 2.31 9.68 4.62 9 7 C7.68 7.33 6.36 7.66 5 8 C5.33 6.35 5.66 4.7 6 3 C5.195625 2.87625 4.39125 2.7525 3.5625 2.625 C2.716875 2.41875 1.87125 2.2125 1 2 C0.67 1.34 0.34 0.68 0 0 Z " fill="#D9E0DE" transform="translate(248,100)"/>
<path d="M0 0 C0.66 1.32 1.32 2.64 2 4 C4.05000871 4.80528889 4.05000871 4.80528889 6 5 C5.67 5.99 5.34 6.98 5 8 C4.67 7.67 4.34 7.34 4 7 C3.34 8.32 2.68 9.64 2 11 C-1 11 -1 11 -3 10 C-2.01 6.7 -1.02 3.4 0 0 Z " fill="#F2F4F4" transform="translate(223,62)"/>
<path d="M0 0 C2.25245881 2.68841859 3.88213958 4.64641875 5 8 C3.02 8.99 3.02 8.99 1 10 C-1.875 5.25 -1.875 5.25 -3 3 C-2.01 2.01 -1.02 1.02 0 0 Z " fill="#F9FAFA" transform="translate(66,60)"/>
<path d="M0 0 C1.5625 1.75 1.5625 1.75 3 4 C2.6875 6.25 2.6875 6.25 2 8 C0.35 8 -1.3 8 -3 8 C-2.45276317 4.62537285 -1.9451 2.91765 0 0 Z " fill="#E3EEEB" transform="translate(223,98)"/>
<path d="M0 0 C1.65 0 3.3 0 5 0 C5 1.98 5 3.96 5 6 C4.01 6.33 3.02 6.66 2 7 C1.01 6.34 0.02 5.68 -1 5 C-0.67 3.35 -0.34 1.7 0 0 Z M1 2 C1.33 2.99 1.66 3.98 2 5 C2.33 4.01 2.66 3.02 3 2 C2.34 2 1.68 2 1 2 Z " fill="#E5EDEA" transform="translate(174,100)"/>
<path d="M0 0 C0.66 0 1.32 0 2 0 C2.33 2.31 2.66 4.62 3 7 C2.01 7 1.02 7 0 7 C-0.33 6.01 -0.66 5.02 -1 4 C-1.66 4.99 -2.32 5.98 -3 7 C-3 5.02 -3 3.04 -3 1 C-2.01 1.33 -1.02 1.66 0 2 C0 1.34 0 0.68 0 0 Z " fill="#CBD7D2" transform="translate(201,98)"/>
<path d="M0 0 C2.0625 0.4375 2.0625 0.4375 4 1 C4 2.65 4 4.3 4 6 C3.01 6.33 2.02 6.66 1 7 C0.34 6.67 -0.32 6.34 -1 6 C-1.042721 4.33388095 -1.04063832 2.66617115 -1 1 C-0.67 0.67 -0.34 0.34 0 0 Z " fill="#DFE7E5" transform="translate(120,100)"/>
<path d="M0 0 C2.475 0.495 2.475 0.495 5 1 C5 2.32 5 3.64 5 5 C3.02 5.99 3.02 5.99 1 7 C1 6.01 1 5.02 1 4 C0.6937566 2.66018514 0.36548445 1.32488113 0 0 Z " fill="#DFE9E6" transform="translate(235,100)"/>
<path d="M0 0 C-0.33 1.98 -0.66 3.96 -1 6 C-1.33 5.34 -1.66 4.68 -2 4 C-4.02463255 3.34786708 -4.02463255 3.34786708 -6 3 C-6 2.01 -6 1.02 -6 0 C-3.50907189 -1.24546405 -2.58919267 -0.7767578 0 0 Z " fill="#DBE7E2" transform="translate(82,99)"/>
<path d="M0 0 C1.32 0 2.64 0 4 0 C4 1.98 4 3.96 4 6 C3.01 6.33 2.02 6.66 1 7 C0.34 6.67 -0.32 6.34 -1 6 C-1.042721 4.33388095 -1.04063832 2.66617115 -1 1 C-0.67 0.67 -0.34 0.34 0 0 Z M1 2 C1 2.99 1 3.98 1 5 C1.66 4.67 2.32 4.34 3 4 C3 3.34 3 2.68 3 2 C2.34 2 1.68 2 1 2 Z " fill="#E8F1EF" transform="translate(107,100)"/>
<path d="M0 0 C1.65 0 3.3 0 5 0 C5 0.66 5 1.32 5 2 C4.01 2.495 4.01 2.495 3 3 C2.67 3.99 2.34 4.98 2 6 C1.34 6 0.68 6 0 6 C0 4.02 0 2.04 0 0 Z " fill="#DBE3E1" transform="translate(180,100)"/>
<path d="M0 0 C1.65 0 3.3 0 5 0 C5 1.98 5 3.96 5 6 C4.67 4.68 4.34 3.36 4 2 C1.66924071 2.95865509 1.66924071 2.95865509 0 6 C0 4.02 0 2.04 0 0 Z " fill="#E6F1ED" transform="translate(204,100)"/>
<path d="M0 0 C0.99 0.33 1.98 0.66 3 1 C3 2.98 3 4.96 3 7 C2.01 7 1.02 7 0 7 C-0.38133299 5.0085944 -0.71325582 3.00720923 -1 1 C-0.67 0.67 -0.34 0.34 0 0 Z " fill="#E6EFEC" transform="translate(148,99)"/>
<path d="M0 0 C0.99 0 1.98 0 3 0 C2.67 2.31 2.34 4.62 2 7 C0.35 7 -1.3 7 -3 7 C-1.68 6.67 -0.36 6.34 1 6 C0.67 4.02 0.34 2.04 0 0 Z " fill="#E8F1F0" transform="translate(214,101)"/>
</svg>
