<?xml version="1.0" encoding="UTF-8"?>
<svg version="1.1" xmlns="http://www.w3.org/2000/svg" width="372" height="208">
<path d="M0 0 C10.89243828 10.28101243 15.2305037 23.23431811 15.6875 37.8125 C24.550082 38.14415588 32.9455141 37.1338258 41.6875 35.8125 C38.06599372 40.26435165 33.48498159 41.89867936 28.3125 44 C27.47460938 44.35513672 26.63671875 44.71027344 25.7734375 45.07617188 C19.23067491 47.78689191 13.48491032 48.95659395 6.375 49 C5.32699219 49.01417969 4.27898437 49.02835938 3.19921875 49.04296875 C-6.08082958 48.43393332 -14.37072677 45.07048792 -22.96484375 41.734375 C-30.81073667 38.77699201 -38.93678783 35.72654436 -47.3125 37.8125 C-46.30316406 38.0084375 -45.29382813 38.204375 -44.25390625 38.40625 C-34.82834939 40.32736138 -25.75994314 42.85755043 -16.625 45.875 C0.64261285 51.51720025 18.67710618 56.1056725 36.7421875 51.15234375 C39.0063304 50.75680071 40.51745044 51.11672178 42.6875 51.8125 C37.08579883 54.66407021 31.48299179 57.37229293 25.6875 59.8125 C24.86636719 60.204375 24.04523438 60.59625 23.19921875 61 C15.02696327 64.88384419 7.0642632 67.31706443 -1.875 68.6875 C-6.79255864 69.51292236 -10.55067008 71.30678405 -14.921875 73.63671875 C-31.06490409 81.5763458 -50.52592392 74.73605947 -66.48828125 69.62890625 C-75.06303812 67.15017294 -84.59349835 67.02398684 -93.3125 68.8125 C-93.3125 67.8225 -93.3125 66.8325 -93.3125 65.8125 C-91.64746966 65.03813847 -89.98037338 64.26821885 -88.3125 63.5 C-87.384375 63.07074219 -86.45625 62.64148438 -85.5 62.19921875 C-84.448125 61.74160156 -83.39625 61.28398438 -82.3125 60.8125 C-81.44334961 60.40124878 -81.44334961 60.40124878 -80.55664062 59.98168945 C-74.65708163 57.41920115 -69.16930459 57.46232587 -62.8125 57.625 C-61.29269531 57.64530273 -61.29269531 57.64530273 -59.7421875 57.66601562 C-57.26505596 57.70106937 -54.78907073 57.75020236 -52.3125 57.8125 C-58.91299868 55.27099957 -65.36244272 53.13694488 -72.3125 51.8125 C-73.07304687 51.63460937 -73.83359375 51.45671875 -74.6171875 51.2734375 C-83.49209548 49.75569961 -92.67774176 50.45593056 -101.3125 52.8125 C-103.30958656 53.16286606 -105.30848989 53.50419075 -107.3125 53.8125 C-106.9825 52.8225 -106.6525 51.8325 -106.3125 50.8125 C-104.02792676 49.78990965 -101.86741758 48.95839779 -99.5 48.1875 C-98.25605469 47.76210937 -97.01210937 47.33671875 -95.73046875 46.8984375 C-89.46851738 44.90892609 -84.06010299 44.59646817 -77.5 44.5625 C-76.54673828 44.541875 -75.59347656 44.52125 -74.61132812 44.5 C-60.6710689 44.4259973 -47.55902484 48.4161087 -34.375 52.5 C-32.99824762 52.92057958 -31.62129495 53.34050408 -30.24414062 53.75976562 C-26.93126514 54.76985102 -23.62113717 55.78860442 -20.3125 56.8125 C-24.16172194 55.28467407 -28.0172054 53.77413331 -31.87866211 52.27758789 C-33.18442723 51.76898303 -34.48854733 51.25612921 -35.79077148 50.73852539 C-49.05701058 45.47202846 -66.15823666 39.09441222 -80.3125 43.8125 C-81.70689664 43.87915376 -83.10419875 43.89788199 -84.5 43.875 C-85.758125 43.854375 -87.01625 43.83375 -88.3125 43.8125 C-88.3125 43.1525 -88.3125 42.4925 -88.3125 41.8125 C-87.1884375 41.47863281 -86.064375 41.14476562 -84.90625 40.80078125 C-82.94583922 40.03185893 -82.94583922 40.03185893 -81.3125 38.8125 C-80.42889123 35.96917321 -80.04240498 33.90115149 -79.8125 31 C-77.88284343 16.192292 -71.11455843 5.35534794 -59.2109375 -3.8046875 C-41.30909662 -15.85811821 -16.43141043 -13.19588173 0 0 Z M-30.3125 65.8125 C-27.4440587 67.91482344 -27.4440587 67.91482344 -24.3125 68.8125 C-23.9825 68.1525 -23.6525 67.4925 -23.3125 66.8125 C-25.6225 66.4825 -27.9325 66.1525 -30.3125 65.8125 Z M-50.3125 66.8125 C-49.9825 67.4725 -49.6525 68.1325 -49.3125 68.8125 C-48.3225 68.4825 -47.3325 68.1525 -46.3125 67.8125 C-47.6325 67.4825 -48.9525 67.1525 -50.3125 66.8125 Z M-24.3125 72.8125 C-20.3125 73.8125 -20.3125 73.8125 -20.3125 73.8125 Z " fill="#015299" transform="translate(219.3125,20.1875)"/>
<path d="M0 0 C0.95326172 -0.020625 1.90652344 -0.04125 2.88867188 -0.0625 C17.34820984 -0.13925933 30.88313431 4.17171526 44.51513672 8.49414062 C51.7946836 10.79121778 58.56814212 12.69395219 66.1875 13.25 C67.13431641 13.41443604 68.08113281 13.57887207 69.05664062 13.74829102 C72.14674303 14.24346884 75.11639148 14.4536198 78.2421875 14.56640625 C79.35078125 14.60830078 80.459375 14.65019531 81.6015625 14.69335938 C82.74367188 14.73267578 83.88578125 14.77199219 85.0625 14.8125 C86.2278125 14.85568359 87.393125 14.89886719 88.59375 14.94335938 C91.45822625 15.04901629 94.32278321 15.15111799 97.1875 15.25 C96.5275 15.58 95.8675 15.91 95.1875 16.25 C95.1875 16.91 95.1875 17.57 95.1875 18.25 C89.59891254 21.14408994 84.44791885 22.68748503 78.25 23.6875 C72.36952287 24.6484112 67.61865333 26.22781962 62.40234375 29.109375 C46.61438293 37.2400356 26.66558352 30.07485734 11.01171875 25.06640625 C2.43696188 22.58767294 -7.09349835 22.46148684 -15.8125 24.25 C-15.8125 23.26 -15.8125 22.27 -15.8125 21.25 C-14.14746966 20.47563847 -12.48037338 19.70571885 -10.8125 18.9375 C-9.884375 18.50824219 -8.95625 18.07898438 -8 17.63671875 C-6.948125 17.17910156 -5.89625 16.72148438 -4.8125 16.25 C-4.23306641 15.97583252 -3.65363281 15.70166504 -3.05664062 15.41918945 C2.84291837 12.85670115 8.33069541 12.89982587 14.6875 13.0625 C16.20730469 13.08280273 16.20730469 13.08280273 17.7578125 13.10351562 C20.23494404 13.13856937 22.71092927 13.18770236 25.1875 13.25 C18.58700132 10.70849957 12.13755728 8.57444488 5.1875 7.25 C4.42695313 7.07210937 3.66640625 6.89421875 2.8828125 6.7109375 C-5.99209548 5.19319961 -15.17774176 5.89343056 -23.8125 8.25 C-25.80958656 8.60036606 -27.80848989 8.94169075 -29.8125 9.25 C-29.4825 8.26 -29.1525 7.27 -28.8125 6.25 C-26.52792676 5.22740965 -24.36741758 4.39589779 -22 3.625 C-20.75605469 3.19960937 -19.51210937 2.77421875 -18.23046875 2.3359375 C-11.96851738 0.34642609 -6.56010299 0.03396817 0 0 Z M47.1875 21.25 C50.0559413 23.35232344 50.0559413 23.35232344 53.1875 24.25 C53.5175 23.59 53.8475 22.93 54.1875 22.25 C51.8775 21.92 49.5675 21.59 47.1875 21.25 Z M27.1875 22.25 C27.5175 22.91 27.8475 23.57 28.1875 24.25 C29.1775 23.92 30.1675 23.59 31.1875 23.25 C29.8675 22.92 28.5475 22.59 27.1875 22.25 Z M53.1875 28.25 C57.1875 29.25 57.1875 29.25 57.1875 29.25 Z " fill="#09A2C6" transform="translate(141.8125,64.75)"/>
<path d="M0 0 C14.74432245 4.80721467 27.56812616 5.15061028 42.890625 2.65625 C39.26911872 7.10810165 34.68810659 8.74242936 29.515625 10.84375 C28.25878906 11.37645508 28.25878906 11.37645508 26.9765625 11.91992188 C20.43379991 14.63064191 14.68803532 15.80034395 7.578125 15.84375 C6.53011719 15.85792969 5.48210937 15.87210938 4.40234375 15.88671875 C-4.87770458 15.27768332 -13.16760177 11.91423792 -21.76171875 8.578125 C-29.60761167 5.62074201 -37.73366283 2.57029436 -46.109375 4.65625 C-45.10003906 4.8521875 -44.09070313 5.048125 -43.05078125 5.25 C-33.62522439 7.17111138 -24.55681814 9.70130043 -15.421875 12.71875 C1.84573785 18.36095025 19.88023118 22.9494225 37.9453125 17.99609375 C40.2094554 17.60055071 41.72057544 17.96047178 43.890625 18.65625 C34.35652773 23.50962346 34.35652773 23.50962346 30.140625 25.28125 C27.91743658 26.22182972 25.72906868 27.24798624 23.578125 28.34375 C20.890625 29.65625 20.890625 29.65625 18.890625 29.65625 C18.890625 28.99625 18.890625 28.33625 18.890625 27.65625 C18.24101807 27.63119385 17.59141113 27.6061377 16.92211914 27.58032227 C13.93231412 27.46311149 10.94272965 27.34096081 7.953125 27.21875 C6.93154297 27.17943359 5.90996094 27.14011719 4.85742188 27.09960938 C3.34438477 27.03676758 3.34438477 27.03676758 1.80078125 26.97265625 C0.88433838 26.93599854 -0.03210449 26.89934082 -0.97631836 26.86157227 C-2.01022705 26.79381592 -3.04413574 26.72605957 -4.109375 26.65625 C-4.78561417 26.61281967 -5.46185333 26.56938934 -6.15858459 26.52464294 C-11.9368959 26.0340705 -16.90380142 24.5666554 -22.30078125 22.49609375 C-23.13149643 22.18676407 -23.96221161 21.87743439 -24.81809998 21.55873108 C-27.43974926 20.58002011 -30.05577237 19.58717922 -32.671875 18.59375 C-34.46123413 17.92288208 -36.25094487 17.25295117 -38.04101562 16.58398438 C-42.40127248 14.95220366 -46.75654672 13.30773903 -51.109375 11.65625 C-47.72620013 10.68033417 -45.5436412 10.79768345 -42.109375 11.65625 C-42.75540128 8.5903584 -42.75540128 8.5903584 -44.88671875 7.671875 C-45.59957031 7.41921875 -46.31242188 7.1665625 -47.046875 6.90625 C-47.75714844 6.64328125 -48.46742188 6.3803125 -49.19921875 6.109375 C-51.17933851 5.42390519 -51.17933851 5.42390519 -53.109375 6.65625 C-53.769375 6.32625 -54.429375 5.99625 -55.109375 5.65625 C-55.109375 4.66625 -55.109375 3.67625 -55.109375 2.65625 C-49.81059423 0.4815061 -45.11391092 0.34431134 -39.484375 0.40625 C-38.14705322 0.41748901 -38.14705322 0.41748901 -36.78271484 0.42895508 C-25.81326994 0.60723097 -16.72791753 2.63021584 -6.44921875 6.48046875 C-0.37390301 8.61926411 5.45269139 9.78070917 11.890625 9.65625 C11.29121094 9.5325 10.69179687 9.40875 10.07421875 9.28125 C1.47383481 7.32383687 -6.72241806 4.43341793 -15.01000977 1.4375 C-25.38672179 -2.27526052 -34.26470489 -2.89298859 -45.109375 -1.34375 C-34.74803118 -11.70509382 -11.37707724 -3.72457467 0 0 Z " fill="#075496" transform="translate(218.109375,53.34375)"/>
<path d="M0 0 C4.44108914 1.72878013 5.66895206 5.32745226 7.61328125 9.47167969 C8.0928125 10.59445313 8.57234375 11.71722656 9.06640625 12.87402344 C10.07630524 15.07998967 11.08669961 17.28572921 12.09765625 19.49121094 C12.52626953 20.47460449 12.95488281 21.45799805 13.39648438 22.47119141 C14.56128961 25.15810324 14.56128961 25.15810324 16.56640625 27.99902344 C16.83791504 27.50088135 17.10942383 27.00273926 17.38916016 26.48950195 C20.00498209 21.70231535 22.65625928 16.93676157 25.34033203 12.1875 C26.33289274 10.41583251 27.29607226 8.62772537 28.25 6.83496094 C31.390672 1.37214902 31.390672 1.37214902 34.9296875 0.24902344 C37.19244881 -0.03250208 39.29283551 -0.12728605 41.56640625 -0.00097656 C42.22640625 0.98902344 42.88640625 1.97902344 43.56640625 2.99902344 C43.23640625 3.98902344 42.90640625 4.97902344 42.56640625 5.99902344 C42.44041406 8.53351751 42.37662033 11.02672742 42.37890625 13.56152344 C42.37826172 14.30007568 42.37761719 15.03862793 42.37695312 15.79956055 C42.4552219 24.2677088 43.46774222 32.61190072 44.56640625 40.99902344 C40.60640625 40.99902344 36.64640625 40.99902344 32.56640625 40.99902344 C32.89640625 31.09902344 33.22640625 21.19902344 33.56640625 10.99902344 C32.90640625 10.99902344 32.24640625 10.99902344 31.56640625 10.99902344 C31.16542725 12.05899536 31.16542725 12.05899536 30.75634766 13.14038086 C29.51389169 16.1251812 28.07532545 18.89933824 26.52734375 21.73730469 C25.65722656 23.33735352 25.65722656 23.33735352 24.76953125 24.96972656 C24.16625 26.07251953 23.56296875 27.1753125 22.94140625 28.31152344 C22.33039063 29.43365234 21.719375 30.55578125 21.08984375 31.71191406 C19.58449533 34.47563968 18.07660384 37.2379455 16.56640625 39.99902344 C15.24640625 39.99902344 13.92640625 39.99902344 12.56640625 39.99902344 C12.28966064 39.47058838 12.01291504 38.94215332 11.7277832 38.39770508 C10.4459643 35.95171184 9.16244309 33.5066156 7.87890625 31.06152344 C7.44384766 30.23072266 7.00878906 29.39992187 6.56054688 28.54394531 C6.12548828 27.71572266 5.69042969 26.8875 5.2421875 26.03417969 C4.84942627 25.28531494 4.45666504 24.5364502 4.05200195 23.76489258 C1.9329414 19.8196441 -0.25872642 15.91378463 -2.43359375 11.99902344 C-2.43359375 21.56902344 -2.43359375 31.13902344 -2.43359375 40.99902344 C-5.40359375 40.99902344 -8.37359375 40.99902344 -11.43359375 40.99902344 C-11.23443359 39.92587891 -11.23443359 39.92587891 -11.03125 38.83105469 C-8.75205884 25.97109291 -8.26794914 13.96457806 -9.43359375 0.99902344 C-6.25800643 -0.58877022 -3.48430381 -0.39229752 0 0 Z " fill="#065093" transform="translate(44.43359375,114.0009765625)"/>
<path d="M0 0 C1.00869141 -0.00257812 2.01738281 -0.00515625 3.05664062 -0.0078125 C4.11431641 -0.00007813 5.17199219 0.00765625 6.26171875 0.015625 C7.83083008 0.00402344 7.83083008 0.00402344 9.43164062 -0.0078125 C10.44419922 -0.00523438 11.45675781 -0.00265625 12.5 0 C13.42466064 0.00225586 14.34932129 0.00451172 15.30200195 0.00683594 C18.92001113 0.36052862 21.78901086 1.39546908 24.69921875 3.578125 C26.45150309 5.94370886 26.88173656 7.29640852 26.94921875 10.265625 C24.75112799 15.16905823 22.99893711 18.00654047 17.94921875 20.265625 C17.28921875 20.265625 16.62921875 20.265625 15.94921875 20.265625 C23.69313376 30.63506462 23.69313376 30.63506462 33.94921875 38.265625 C33.94921875 39.255625 33.94921875 40.245625 33.94921875 41.265625 C29.13659183 41.94232234 24.77803446 42.49690309 20.60595703 39.68798828 C18.42859751 37.49435324 16.45666266 35.23002512 14.51171875 32.828125 C13.16598103 31.24002694 11.81338961 29.65770433 10.453125 28.08203125 C9.87377197 27.37506104 9.29441895 26.66809082 8.69750977 25.93969727 C6.84426407 23.88820653 6.84426407 23.88820653 2.94921875 23.265625 C3.60921875 29.205625 4.26921875 35.145625 4.94921875 41.265625 C1.31921875 41.265625 -2.31078125 41.265625 -6.05078125 41.265625 C-7.29418071 37.53542662 -7.21310246 34.05385772 -7.21875 30.16796875 C-7.2220784 29.37789932 -7.2254068 28.5878299 -7.22883606 27.77381897 C-7.23389476 26.10532208 -7.23624471 24.4368151 -7.23608398 22.76831055 C-7.23827596 20.20930488 -7.25645745 17.65072658 -7.27539062 15.09179688 C-7.27832361 13.47135564 -7.28030904 11.85091236 -7.28125 10.23046875 C-7.28843552 9.46274643 -7.29562103 8.69502411 -7.30302429 7.90403748 C-7.2757936 1.61187661 -6.29782787 0.015421 0 0 Z M2.94921875 6.265625 C2.87677822 8.28526699 2.86544687 10.30729624 2.88671875 12.328125 C2.89574219 13.43285156 2.90476563 14.53757813 2.9140625 15.67578125 C2.92566406 16.53042969 2.93726563 17.38507813 2.94921875 18.265625 C7.9000278 19.52676052 10.40382011 18.66696768 14.94921875 16.265625 C17.28218126 13.43845287 17.28218126 13.43845287 16.69921875 10.203125 C16.18989435 7.166166 16.18989435 7.166166 13.94921875 5.265625 C11.54430453 4.98472213 11.54430453 4.98472213 8.88671875 5.078125 C7.53900391 5.08779297 7.53900391 5.08779297 6.1640625 5.09765625 C3.97596276 5.02167757 3.97596276 5.02167757 2.94921875 6.265625 Z " fill="#054F92" transform="translate(167.05078125,113.734375)"/>
<path d="M0 0 C6.72653364 0.712108 10.03575058 5.28761654 14.08984375 10.17578125 C14.74122314 10.98329834 14.74122314 10.98329834 15.40576172 11.80712891 C17.00301246 13.77922503 18.68568021 15.66910131 20.375 17.5625 C21.45903266 18.81189357 22.54235543 20.06190341 23.625 21.3125 C24.93676715 22.81314092 26.24925786 24.31314969 27.5625 25.8125 C28.58333333 26.97916667 29.60416667 28.14583333 30.625 29.3125 C32.21967014 26.12315971 31.76785117 22.68632982 31.75 19.1875 C31.75386719 18.45273438 31.75773437 17.71796875 31.76171875 16.9609375 C31.75511803 13.21172788 31.57676975 9.5978222 31.0546875 5.8828125 C30.625 2.3125 30.625 2.3125 31.625 0.3125 C33.62454746 0.26995644 35.62541636 0.27169217 37.625 0.3125 C38.12 0.8075 38.12 0.8075 38.625 1.3125 C38.52648438 2.96184211 38.36609158 4.60739847 38.1875 6.25 C37.19548036 17.56919841 37.54238072 28.96061124 37.625 40.3125 C35.975 40.9725 34.325 41.6325 32.625 42.3125 C27.96363747 38.43812075 23.74029164 34.46727183 19.83203125 29.8359375 C17.95392975 27.68858605 16.03541624 25.60975297 14.07421875 23.5390625 C13.43693848 22.86552734 12.7996582 22.19199219 12.14306641 21.49804688 C10.84832019 20.13379493 9.54985986 18.77305747 8.24755859 17.41601562 C7.65152832 16.78630859 7.05549805 16.15660156 6.44140625 15.5078125 C5.89943604 14.94078613 5.35746582 14.37375977 4.79907227 13.78955078 C3.625 12.3125 3.625 12.3125 3.625 10.3125 C2.965 10.3125 2.305 10.3125 1.625 10.3125 C1.76576889 13.79189051 1.91355667 17.27095059 2.0625 20.75 C2.10181641 21.72388672 2.14113281 22.69777344 2.18164062 23.70117188 C2.43868167 29.61311599 2.90219621 35.43895997 3.625 41.3125 C0.655 41.3125 -2.315 41.3125 -5.375 41.3125 C-5.87 39.8275 -5.87 39.8275 -6.375 38.3125 C-6.045 37.6525 -5.715 36.9925 -5.375 36.3125 C-3.61849212 26.20715835 -3.6868509 15.04261474 -4.9375 4.875 C-5.1540625 3.1115625 -5.1540625 3.1115625 -5.375 1.3125 C-3.76210882 -0.30039118 -2.2331458 0.01056694 0 0 Z " fill="#084F8E" transform="translate(243.375,113.6875)"/>
<path d="M0 0 C14.74432245 4.80721467 27.56812616 5.15061028 42.890625 2.65625 C39.26911872 7.10810165 34.68810659 8.74242936 29.515625 10.84375 C28.25878906 11.37645508 28.25878906 11.37645508 26.9765625 11.91992188 C20.43379991 14.63064191 14.68803532 15.80034395 7.578125 15.84375 C6.53011719 15.85792969 5.48210937 15.87210938 4.40234375 15.88671875 C-4.0168493 15.33417994 -11.68030934 12.55694756 -19.546875 9.65625 C-20.53880859 9.30046875 -21.53074219 8.9446875 -22.55273438 8.578125 C-23.49826172 8.23265625 -24.44378906 7.8871875 -25.41796875 7.53125 C-26.27189209 7.21929687 -27.12581543 6.90734375 -28.00561523 6.5859375 C-30.109375 5.65625 -30.109375 5.65625 -32.109375 3.65625 C-34.30228582 3.19962847 -36.51523389 2.835838 -38.734375 2.53125 C-39.92289063 2.36367188 -41.11140625 2.19609375 -42.3359375 2.0234375 C-43.25117188 1.90226562 -44.16640625 1.78109375 -45.109375 1.65625 C-45.109375 1.32625 -45.109375 0.99625 -45.109375 0.65625 C-31.21117617 0.33877845 -19.61046792 1.55045387 -6.44921875 6.48046875 C-0.37390301 8.61926411 5.45269139 9.78070917 11.890625 9.65625 C11.29121094 9.5325 10.69179687 9.40875 10.07421875 9.28125 C1.47383481 7.32383687 -6.72241806 4.43341793 -15.01000977 1.4375 C-25.38672179 -2.27526052 -34.26470489 -2.89298859 -45.109375 -1.34375 C-34.74803118 -11.70509382 -11.37707724 -3.72457467 0 0 Z " fill="#0E95BC" transform="translate(218.109375,53.34375)"/>
<path d="M0 0 C4.6988239 3.4121277 6.18313644 8.73650307 8.25 13.9375 C11.41409562 21.64236433 14.87670727 28.65883123 19.46875 35.6015625 C21 38 21 38 22 41 C18.01767576 42.32744141 16.03039344 42.25081176 12 41 C9.83877973 38.22890114 8.49686041 35.16371127 7 32 C5.68 29.69 4.36 27.38 3 25 C-2.94 25 -8.88 25 -15 25 C-15.33 26.65 -15.66 28.3 -16 30 C-17 32 -18 34 -19 36 C-19.495 38.475 -19.495 38.475 -20 41 C-23.63 41 -27.26 41 -31 41 C-29.21171622 37.42343244 -27.41288146 34.90781827 -24.9375 31.8125 C-21.14745128 26.82042936 -17.99881143 21.72273374 -15.0625 16.1875 C-14.68536865 15.48278564 -14.3082373 14.77807129 -13.91967773 14.05200195 C-12.21118819 10.75058229 -10.8313771 7.66493475 -9.93359375 4.05078125 C-9.62550781 3.04402344 -9.31742188 2.03726563 -9 1 C-5.68377419 -0.1054086 -3.47482175 -0.35457365 0 0 Z M-5 8 C-6.98 11.96 -8.96 15.92 -11 20 C-7.1273408 20.9681648 -3.96388638 21.07622858 0 21 C1.33728333 18.06644576 1.33728333 18.06644576 0.00390625 15.51953125 C-0.47175781 14.62621094 -0.94742188 13.73289062 -1.4375 12.8125 C-1.91058594 11.91144531 -2.38367188 11.01039062 -2.87109375 10.08203125 C-3.42990234 9.05142578 -3.42990234 9.05142578 -4 8 C-4.33 8 -4.66 8 -5 8 Z " fill="#094E8C" transform="translate(128,114)"/>
<path d="M0 0 C7.8272459 -0.30104792 7.8272459 -0.30104792 11 2 C12.38671875 4.87890625 12.38671875 4.87890625 13.6875 8.5625 C15.94680469 14.66179784 18.61073983 20.39458887 21.6875 26.125 C22.25827271 27.18956421 22.25827271 27.18956421 22.84057617 28.27563477 C24.4227359 31.19362369 26.01519201 34.02325771 27.83203125 36.8046875 C28.21746094 37.52914062 28.60289062 38.25359375 29 39 C28.67 39.99 28.34 40.98 28 42 C24.53787038 42.70524863 22.17598854 42.61001576 19 41 C15.41258373 36.20954852 13.35533071 30.43867274 11 25 C5.06 25 -0.88 25 -7 25 C-7.99 27.475 -7.99 27.475 -9 30 C-9.350625 30.804375 -9.70125 31.60875 -10.0625 32.4375 C-11.10139486 35.27714594 -11.58292134 38.01093625 -12 41 C-16.95 41.495 -16.95 41.495 -22 42 C-22.33 40.68 -22.66 39.36 -23 38 C-21.515 37.505 -21.515 37.505 -20 37 C-18.99848996 35.24981822 -18.99848996 35.24981822 -18 33 C-16.99971973 31.45577914 -15.99783495 29.91249789 -14.97875977 28.38061523 C-9.01333107 19.40062827 -3.88695335 10.08354565 0 0 Z M3 8 C1.93371487 9.57432126 0.92193317 11.18574165 -0.0625 12.8125 C-0.61035156 13.70582031 -1.15820312 14.59914062 -1.72265625 15.51953125 C-3.22891124 17.97951488 -3.22891124 17.97951488 -3 21 C-1.56260487 21.02712066 -0.12506137 21.04645067 1.3125 21.0625 C2.11300781 21.07410156 2.91351563 21.08570313 3.73828125 21.09765625 C6.16861334 21.09657855 6.16861334 21.09657855 9 20 C7.68938409 15.76570244 6.05643741 11.92592596 4 8 C3.67 8 3.34 8 3 8 Z " fill="#084D8B" transform="translate(315,114)"/>
<path d="M0 0 C5.03561089 -0.17069867 8.36242448 -0.07470484 13 2 C14.0725 2.165 15.145 2.33 16.25 2.5 C17.1575 2.665 18.065 2.83 19 3 C19.33 3.66 19.66 4.32 20 5 C23.13673756 6.15559584 26.43396589 6.80734011 29.6875 7.5625 C31.10832886 7.89954956 31.10832886 7.89954956 32.55786133 8.2434082 C39.24826188 9.76526871 45.61233853 10.60692103 52.48046875 10.76171875 C55 11 55 11 57 13 C56.34 13.99 55.68 14.98 55 16 C51.7421875 16.29296875 51.7421875 16.29296875 47.875 16.1875 C45.95300781 16.14689453 45.95300781 16.14689453 43.9921875 16.10546875 C43.00476563 16.07066406 42.01734375 16.03585938 41 16 C41 16.66 41 17.32 41 18 C39.35 18.66 37.7 19.32 36 20 C36 20.66 36 21.32 36 22 C33.36 22 30.72 22 28 22 C28 22.66 28 23.32 28 24 C25.69 24 23.38 24 21 24 C21 23.34 21 22.68 21 22 C20.01 21.67 19.02 21.34 18 21 C18 20.34 18 19.68 18 19 C16.02 19 14.04 19 12 19 C11.67 18.01 11.34 17.02 11 16 C9.68 16 8.36 16 7 16 C6.67 16.66 6.34 17.32 6 18 C5.34 17.34 4.68 16.68 4 16 C4.33 15.67 4.66 15.34 5 15 C4.34 14.34 3.68 13.68 3 13 C3.66 12.67 4.32 12.34 5 12 C4.773125 11.401875 4.54625 10.80375 4.3125 10.1875 C4.1578125 9.1046875 4.1578125 9.1046875 4 8 C5.4375 6.25 5.4375 6.25 7 5 C6.67 5.33 6.34 5.66 6 6 C4.30247813 5.74754803 2.61528455 5.42354225 0.9375 5.0625 C0.01839844 4.86785156 -0.90070313 4.67320313 -1.84765625 4.47265625 C-2.55792969 4.31667969 -3.26820313 4.16070312 -4 4 C-4 3.67 -4 3.34 -4 3 C-2.35 3 -0.7 3 1 3 C0.67 2.01 0.34 1.02 0 0 Z M22 15 C24.8684413 17.10232344 24.8684413 17.10232344 28 18 C28.33 17.34 28.66 16.68 29 16 C26.69 15.67 24.38 15.34 22 15 Z " fill="#04A3CB" transform="translate(167,71)"/>
<path d="M0 0 C0.80308594 0.09796875 1.60617188 0.1959375 2.43359375 0.296875 C3.64208984 0.42835937 3.64208984 0.42835937 4.875 0.5625 C5.53371094 0.72234375 6.19242188 0.8821875 6.87109375 1.046875 C7.87109375 3.046875 7.87109375 3.046875 7.44140625 5.49609375 C6.66989475 10.29954546 6.72649805 15.00290712 6.74609375 19.859375 C6.74222656 20.80619141 6.73835937 21.75300781 6.734375 22.72851562 C6.74061616 27.26272182 6.88714142 31.6808603 7.44140625 36.18359375 C7.58320313 37.45847656 7.725 38.73335937 7.87109375 40.046875 C6.87109375 41.046875 6.87109375 41.046875 4.5859375 41.14453125 C3.21115234 41.12712891 3.21115234 41.12712891 1.80859375 41.109375 C0.88949219 41.10035156 -0.02960938 41.09132812 -0.9765625 41.08203125 C-1.68683594 41.07042969 -2.39710938 41.05882812 -3.12890625 41.046875 C-4.40380167 38.49708416 -3.83514794 36.88023368 -3.39550781 34.14697266 C-2.89317287 30.18993495 -2.98364285 26.21725979 -3.00390625 22.234375 C-3.00438965 21.35088379 -3.00487305 20.46739258 -3.00537109 19.55712891 C-3.02991683 14.96876852 -3.19305877 10.48209913 -3.75390625 5.921875 C-3.87765625 4.643125 -4.00140625 3.364375 -4.12890625 2.046875 C-2.12890625 0.046875 -2.12890625 0.046875 0 0 Z " fill="#01519A" transform="translate(214.12890625,113.953125)"/>
<path d="M0 0 C0 0.33 0 0.66 0 1 C-4.72458794 1.36342984 -8.11906377 0.36977823 -12.4765625 -1.19921875 C-16.88693127 -2.59879398 -21.4379264 -3.27518457 -26 -4 C-25.505 -1.03 -25.505 -1.03 -25 2 C-25.95261719 1.79503906 -26.90523437 1.59007813 -27.88671875 1.37890625 C-29.14097656 1.10949219 -30.39523438 0.84007813 -31.6875 0.5625 C-32.92886719 0.29566406 -34.17023438 0.02882813 -35.44921875 -0.24609375 C-36.62097656 -0.49488281 -37.79273438 -0.74367188 -39 -1 C-39.82628906 -1.19335938 -40.65257812 -1.38671875 -41.50390625 -1.5859375 C-50.31761855 -3.04799306 -59.43295517 -2.33808932 -68 0 C-69.99708656 0.35036606 -71.99598989 0.69169075 -74 1 C-73.67 0.01 -73.34 -0.98 -73 -2 C-70.71542676 -3.02259035 -68.55491758 -3.85410221 -66.1875 -4.625 C-64.94355469 -5.05039063 -63.69960937 -5.47578125 -62.41796875 -5.9140625 C-41.79881759 -12.46506138 -19.90171268 -6.16295387 0 0 Z " fill="#1D8DAB" transform="translate(186,73)"/>
<path d="M0 0 C0.8353125 0.19916016 0.8353125 0.19916016 1.6875 0.40234375 C6.79086061 1.58335794 11.79909189 2.39322739 17 3 C18.66965451 3.31802943 20.33678518 3.64984951 22 4 C26.04094922 4.74614742 29.9492053 5.16827029 34.0546875 5.31640625 C35.16328125 5.35830078 36.271875 5.40019531 37.4140625 5.44335938 C38.55617187 5.48267578 39.69828125 5.52199219 40.875 5.5625 C42.0403125 5.60568359 43.205625 5.64886719 44.40625 5.69335938 C47.27072625 5.79901629 50.13528321 5.90111799 53 6 C52.34 6.33 51.68 6.66 51 7 C51 7.66 51 8.32 51 9 C45.41141254 11.89408994 40.26041885 13.43748503 34.0625 14.4375 C28.18202287 15.3984112 23.43115333 16.97781962 18.21484375 19.859375 C10.93266582 23.60963242 2.99398575 23.24347165 -5 23 C-5 22.67 -5 22.34 -5 22 C-3.73542969 21.80664062 -2.47085938 21.61328125 -1.16796875 21.4140625 C0.49224885 21.15142921 2.15240181 20.88838705 3.8125 20.625 C4.64587891 20.49867187 5.47925781 20.37234375 6.33789062 20.2421875 C7.14033203 20.11328125 7.94277344 19.984375 8.76953125 19.8515625 C9.50792236 19.73635254 10.24631348 19.62114258 11.00708008 19.50244141 C13.29767611 19.04310634 13.29767611 19.04310634 16 17 C19 15 19 15 22 15 C22 14.34 22 13.68 22 13 C26.62 12.67 31.24 12.34 36 12 C36 11.01 36 10.02 36 9 C35.15179688 8.96261719 34.30359375 8.92523438 33.4296875 8.88671875 C21.85947176 8.23827809 10.74763897 6.51400837 0 2 C0 1.34 0 0.68 0 0 Z " fill="#149BBF" transform="translate(186,74)"/>
<path d="M0 0 C15.23369935 -0.3479779 27.62568512 1.52982255 42 7 C48.36505464 9.40283265 54.19299032 10.58788459 61 11 C60.67 11.66 60.34 12.32 60 13 C56.85418577 13.02888514 53.70840531 13.04675923 50.5625 13.0625 C49.21575195 13.07506836 49.21575195 13.07506836 47.84179688 13.08789062 C46.56079102 13.09272461 46.56079102 13.09272461 45.25390625 13.09765625 C44.46314697 13.10289307 43.6723877 13.10812988 42.85766602 13.11352539 C41 13 41 13 40 12 C38.25406097 11.72305795 36.50281592 11.47942617 34.75 11.25 C27.55139427 10.11065233 18.30460173 8.30460173 13 3 C10.80708918 2.54337847 8.59414111 2.179588 6.375 1.875 C5.18648437 1.70742188 3.99796875 1.53984375 2.7734375 1.3671875 C1.85820312 1.24601562 0.94296875 1.12484375 0 1 C0 0.67 0 0.34 0 0 Z " fill="#0E94C0" transform="translate(173,54)"/>
<path d="M0 0 C0 1.32 0 2.64 0 4 C-7.83591937 3.53760644 -14.38594544 1.28935792 -21.6875 -1.5 C-23.87711471 -2.3276718 -26.06847252 -3.1507499 -28.26171875 -3.96875 C-29.69970825 -4.51692383 -29.69970825 -4.51692383 -31.16674805 -5.07617188 C-39.44912577 -7.77677655 -47.52840156 -7.21022835 -56 -6 C-42.93789502 -19.06210498 -13.59125721 -5.78351371 0 0 Z " fill="#0693C5" transform="translate(229,58)"/>
<path d="M0 0 C5.89528549 0.8720299 11.51352173 2.4632594 17.24609375 4.0625 C23.80188726 5.69974292 30.09260458 6.19248614 36.8125 6.1875 C37.99900146 6.18955444 37.99900146 6.18955444 39.20947266 6.19165039 C44.33601577 6.14906065 49.08711428 5.70192028 54.0546875 4.33984375 C56.3188304 3.94430071 57.82995044 4.30422178 60 5 C50.46590273 9.85337346 50.46590273 9.85337346 46.25 11.625 C44.02681158 12.56557972 41.83844368 13.59173624 39.6875 14.6875 C37 16 37 16 35 16 C35 15.34 35 14.68 35 14 C35.99 13.67 36.98 13.34 38 13 C36.88873341 11.66098208 36.88873341 11.66098208 34.05859375 11.90234375 C32.86363281 11.91394531 31.66867188 11.92554687 30.4375 11.9375 C29.23996094 11.94652344 28.04242188 11.95554687 26.80859375 11.96484375 C25.41833984 11.98224609 25.41833984 11.98224609 24 12 C24 11.01 24 10.02 24 9 C20.03302114 7.19682779 16.3177458 6.50797009 12 6 C12 5.34 12 4.68 12 4 C10.35 4.33 8.7 4.66 7 5 C6.67 5.99 6.34 6.98 6 8 C5.34 7.67 4.68 7.34 4 7 C4.33 5.35 4.66 3.7 5 2 C3.35 1.67 1.7 1.34 0 1 C0 0.67 0 0.34 0 0 Z " fill="#125D9C" transform="translate(202,67)"/>
<path d="M0 0 C0.33 0 0.66 0 1 0 C1 1.65 1 3.3 1 5 C1.66 5.33 2.32 5.66 3 6 C0.90203082 9.79119403 -1.19762174 13.5814492 -3.29882812 17.37084961 C-4.01315724 18.65965619 -4.72702857 19.94871662 -5.44042969 21.23803711 C-6.46689056 23.0929577 -7.49500304 24.94695433 -8.5234375 26.80078125 C-9.14138184 27.91622314 -9.75932617 29.03166504 -10.39599609 30.1809082 C-11.52431536 32.16396796 -12.73440432 34.10160648 -14 36 C-17.24784508 34.94092008 -17.99599233 34.0071513 -19.703125 30.9609375 C-20.21359375 29.77757812 -20.7240625 28.59421875 -21.25 27.375 C-22.03117187 25.59222656 -22.03117187 25.59222656 -22.828125 23.7734375 C-23.40820312 22.40058594 -23.40820312 22.40058594 -24 21 C-23.01 21.33 -22.02 21.66 -21 22 C-20.67 22.99 -20.34 23.98 -20 25 C-19.34 25.33 -18.68 25.66 -18 26 C-17.33333333 28 -16.66666667 30 -16 32 C-15.34 32.33 -14.68 32.66 -14 33 C-13.67 31.02 -13.34 29.04 -13 27 C-13.66 27 -14.32 27 -15 27 C-15.33 24.69 -15.66 22.38 -16 20 C-15.01 20.99 -14.02 21.98 -13 23 C-12.71278076 22.48091064 -12.42556152 21.96182129 -12.12963867 21.42700195 C-10.8165026 19.05499613 -9.50201321 16.68374289 -8.1875 14.3125 C-7.50977539 13.08756836 -7.50977539 13.08756836 -6.81835938 11.83789062 C-1.79142211 2.77472636 -1.79142211 2.77472636 0 0 Z " fill="#0E4C85" transform="translate(74,119)"/>
<path d="M0 0 C8.37136048 3.14155148 16.46661128 5.61334417 25.3125 7.0625 C25.3125 7.3925 25.3125 7.7225 25.3125 8.0625 C14.8579472 8.80925377 4.7596199 5.84619968 -4.87890625 1.9921875 C-11.11792894 -0.32047928 -17.14671765 -0.74267179 -23.75 -1.0625 C-25.97050426 -1.18197762 -28.19061099 -1.30917683 -30.41015625 -1.4453125 C-31.37703369 -1.49316895 -32.34391113 -1.54102539 -33.34008789 -1.59033203 C-35.6875 -1.9375 -35.6875 -1.9375 -37.6875 -3.9375 C-23.62248336 -7.16553661 -13.32028857 -5.11581383 0 0 Z " fill="#0061A0" transform="translate(208.6875,55.9375)"/>
<path d="M0 0 C1.91015625 0.23046875 1.91015625 0.23046875 3.91015625 2.23046875 C3.95458972 4.22997511 3.9493644 6.23085311 3.91015625 8.23046875 C4.20138025 9.90500674 4.52086424 11.5759777 4.91015625 13.23046875 C2.08362361 15.89073476 0.5869935 17.16538824 -3.33984375 17.54296875 C-6.08984375 17.23046875 -6.08984375 17.23046875 -7.08984375 16.23046875 C-7.18959407 13.71910771 -7.22866558 11.2414346 -7.21484375 8.73046875 C-7.21871094 8.02792969 -7.22257812 7.32539063 -7.2265625 6.6015625 C-7.21370973 -0.06902278 -6.62490434 0.13225762 0 0 Z M-3.08984375 3.23046875 C-3.08984375 4.22046875 -3.08984375 5.21046875 -3.08984375 6.23046875 C-2.09984375 5.90046875 -1.10984375 5.57046875 -0.08984375 5.23046875 C-0.41984375 4.57046875 -0.74984375 3.91046875 -1.08984375 3.23046875 C-1.74984375 3.23046875 -2.40984375 3.23046875 -3.08984375 3.23046875 Z M-3.08984375 9.23046875 C-3.08984375 10.88046875 -3.08984375 12.53046875 -3.08984375 14.23046875 C-2.09984375 14.23046875 -1.10984375 14.23046875 -0.08984375 14.23046875 C-0.41984375 12.58046875 -0.74984375 10.93046875 -1.08984375 9.23046875 C-1.74984375 9.23046875 -2.40984375 9.23046875 -3.08984375 9.23046875 Z " fill="#555458" transform="translate(120.08984375,160.76953125)"/>
<path d="M0 0 C1.98 0 3.96 0 6 0 C6 0.66 6 1.32 6 2 C7.5778125 1.9071875 7.5778125 1.9071875 9.1875 1.8125 C13.16826743 2.00827545 14.94442825 2.49998675 18 5 C18 5.99 18 6.98 18 8 C18.66 7.835 19.32 7.67 20 7.5 C23.78828501 6.86861917 27.15611987 6.81095672 31 7 C31.66 7.66 32.32 8.32 33 9 C30.37830252 10.31084874 28.58084009 10.03593265 25.65234375 9.9140625 C24.57146484 9.87023437 23.49058594 9.82640625 22.37695312 9.78125 C21.24193359 9.7296875 20.10691406 9.678125 18.9375 9.625 C17.82955078 9.58117187 16.72160156 9.53734375 15.58007812 9.4921875 C-2.2677434 8.7322566 -2.2677434 8.7322566 -5 6 C-3.35 5.34 -1.7 4.68 0 4 C0 2.68 0 1.36 0 0 Z " fill="#01579F" transform="translate(208,71)"/>
<path d="M0 0 C2.4375 0.375 2.4375 0.375 5 1 C5.33 1.66 5.66 2.32 6 3 C5.67 3.99 5.34 4.98 5 6 C4.87400781 8.53449407 4.81021408 11.02770398 4.8125 13.5625 C4.81185547 14.30105225 4.81121094 15.03960449 4.81054688 15.80053711 C4.88881565 24.26868536 5.90133597 32.61287728 7 41 C3.04 41 -0.92 41 -5 41 C-4.67 31.43 -4.34 21.86 -4 12 C-3.67 12 -3.34 12 -3 12 C-2.67 18.27 -2.34 24.54 -2 31 C-1.01 31.33 -0.02 31.66 1 32 C1 32.66 1 33.32 1 34 C1.66 34 2.32 34 3 34 C3 23.11 3 12.22 3 1 C2.01 0.67 1.02 0.34 0 0 Z " fill="#0C4C85" transform="translate(82,114)"/>
<path d="M0 0 C1.99954746 -0.04254356 4.00041636 -0.04080783 6 0 C6.33 0.33 6.66 0.66 7 1 C6.90148438 2.64934211 6.74109158 4.29489847 6.5625 5.9375 C5.57048036 17.25669841 5.91738072 28.64811124 6 40 C4.35 40.66 2.7 41.32 1 42 C-7.6309795 34.88610478 -7.6309795 34.88610478 -10 30 C-6.81920901 31.17807074 -5.73956465 32.32721364 -3.5625 35.0625 C-1.07841361 38.51299663 -1.07841361 38.51299663 4 39 C4 28.77 4 18.54 4 8 C3.34 8 2.68 8 2 8 C2 15.26 2 22.52 2 30 C1.34 30 0.68 30 0 30 C0.00523682 29.43603516 0.01047363 28.87207031 0.01586914 28.29101562 C0.03687267 25.69402211 0.04973362 23.09704656 0.0625 20.5 C0.07087891 19.613125 0.07925781 18.72625 0.08789062 17.8125 C0.10323061 13.64002411 0.01599275 9.60443728 -0.56640625 5.46875 C-1 2 -1 2 0 0 Z " fill="#0C4C86" transform="translate(275,114)"/>
<path d="M0 0 C0.77537109 0.08765625 1.55074219 0.1753125 2.34960938 0.265625 C4.30756576 0.51229667 6.25055503 0.87226425 8.1875 1.25 C8.5175 1.91 8.8475 2.57 9.1875 3.25 C7.68896484 3.12431641 7.68896484 3.12431641 6.16015625 2.99609375 C4.86980469 2.89425781 3.57945312 2.79242188 2.25 2.6875 C0.96222656 2.58308594 -0.32554687 2.47867188 -1.65234375 2.37109375 C-2.69519531 2.33113281 -3.73804688 2.29117188 -4.8125 2.25 C-5.1425 2.58 -5.4725 2.91 -5.8125 3.25 C-2.5125 3.91 0.7875 4.57 4.1875 5.25 C5.1875 10.25 5.1875 10.25 5.1875 12.25 C7.14897874 13.63938077 9.14916576 14.9760411 11.1875 16.25 C7.71651466 17.40699511 7.04016875 17.07954442 3.73828125 15.81640625 C2.89072266 15.49736328 2.04316406 15.17832031 1.16992188 14.84960938 C0.28884766 14.50736328 -0.59222656 14.16511719 -1.5 13.8125 C-2.39267578 13.47412109 -3.28535156 13.13574219 -4.20507812 12.78710938 C-6.41084174 11.94962693 -8.61296176 11.10367026 -10.8125 10.25 C-7.42932513 9.27408417 -5.2467662 9.39143345 -1.8125 10.25 C-2.45852628 7.1841084 -2.45852628 7.1841084 -4.58984375 6.265625 C-5.30269531 6.01296875 -6.01554688 5.7603125 -6.75 5.5 C-7.46027344 5.23703125 -8.17054688 4.9740625 -8.90234375 4.703125 C-10.88246351 4.01765519 -10.88246351 4.01765519 -12.8125 5.25 C-13.4725 4.92 -14.1325 4.59 -14.8125 4.25 C-14.8125 3.26 -14.8125 2.27 -14.8125 1.25 C-9.52886157 -1.00839729 -5.52700593 -0.7538968 0 0 Z " fill="#0B5794" transform="translate(177.8125,54.75)"/>
<path d="M0 0 C1.91015625 0.23046875 1.91015625 0.23046875 3.91015625 2.23046875 C4.28125 4.9453125 4.28125 4.9453125 4.34765625 8.16796875 C4.38761719 9.22886719 4.42757812 10.28976563 4.46875 11.3828125 C3.91015625 14.23046875 3.91015625 14.23046875 1.5546875 16.09375 C-1.26007284 17.3036396 -3.06177085 17.56692129 -6.08984375 17.23046875 C-7.84544317 15.47486933 -7.22206294 13.19464433 -7.2265625 10.859375 C-7.22269531 10.15683594 -7.21882813 9.45429688 -7.21484375 8.73046875 C-7.21871094 8.02792969 -7.22257812 7.32539063 -7.2265625 6.6015625 C-7.21370973 -0.06902278 -6.62490434 0.13225762 0 0 Z M-3.08984375 3.23046875 C-3.08984375 4.55046875 -3.08984375 5.87046875 -3.08984375 7.23046875 C-2.09984375 6.24046875 -1.10984375 5.25046875 -0.08984375 4.23046875 C-1.07984375 3.90046875 -2.06984375 3.57046875 -3.08984375 3.23046875 Z M-3.08984375 9.23046875 C-3.41984375 10.22046875 -3.74984375 11.21046875 -4.08984375 12.23046875 C-3.75984375 12.89046875 -3.42984375 13.55046875 -3.08984375 14.23046875 C-2.09984375 13.90046875 -1.10984375 13.57046875 -0.08984375 13.23046875 C-0.41984375 11.91046875 -0.74984375 10.59046875 -1.08984375 9.23046875 C-1.74984375 9.23046875 -2.40984375 9.23046875 -3.08984375 9.23046875 Z " fill="#5D5D63" transform="translate(82.08984375,160.76953125)"/>
<path d="M0 0 C2.15553241 1.55432949 2.88385476 2.48315366 3.46875 5.0859375 C3.52707758 9.35843238 3.35277178 11.4654973 0.9375 15.125 C-2 17 -2 17 -5.625 17.0625 C-9 16 -9 16 -10.9375 14.375 C-12.7161243 10.39925157 -12.62301395 6.69103786 -11.125 2.625 C-8.60597177 -1.01359633 -4.02072596 -0.66879402 0 0 Z M-8 4 C-8.22918242 8.01657143 -8.22918242 8.01657143 -8 12 C-7.34 12.66 -6.68 13.32 -6 14 C-3.39719432 13.67958603 -3.39719432 13.67958603 -1 13 C0.19988045 7.71800407 0.19988045 7.71800407 -2 3 C-5.28912144 2.5085887 -5.28912144 2.5085887 -8 4 Z " fill="#5F5E63" transform="translate(240,161)"/>
<path d="M0 0 C0.80308594 0.09796875 1.60617188 0.1959375 2.43359375 0.296875 C3.64208984 0.42835937 3.64208984 0.42835937 4.875 0.5625 C5.53371094 0.72234375 6.19242188 0.8821875 6.87109375 1.046875 C7.87109375 3.046875 7.87109375 3.046875 7.44140625 5.49609375 C6.66989475 10.29954546 6.72649805 15.00290712 6.74609375 19.859375 C6.74222656 20.80619141 6.73835937 21.75300781 6.734375 22.72851562 C6.74061616 27.26272182 6.88714142 31.6808603 7.44140625 36.18359375 C7.58320313 37.45847656 7.725 38.73335937 7.87109375 40.046875 C6.87109375 41.046875 6.87109375 41.046875 4.5859375 41.14453125 C3.21115234 41.12712891 3.21115234 41.12712891 1.80859375 41.109375 C0.88949219 41.10035156 -0.02960938 41.09132812 -0.9765625 41.08203125 C-1.68683594 41.07042969 -2.39710938 41.05882812 -3.12890625 41.046875 C-4.40380167 38.49708416 -3.83514794 36.88023368 -3.39550781 34.14697266 C-2.89317287 30.18993495 -2.98364285 26.21725979 -3.00390625 22.234375 C-3.00438965 21.35088379 -3.00487305 20.46739258 -3.00537109 19.55712891 C-3.02991683 14.96876852 -3.19305877 10.48209913 -3.75390625 5.921875 C-3.87765625 4.643125 -4.00140625 3.364375 -4.12890625 2.046875 C-2.12890625 0.046875 -2.12890625 0.046875 0 0 Z M-2.12890625 3.046875 C-1.79890625 14.926875 -1.46890625 26.806875 -1.12890625 39.046875 C0.85109375 39.046875 2.83109375 39.046875 4.87109375 39.046875 C4.89574473 34.08065151 4.91393024 29.11446334 4.92602539 24.14819336 C4.93106565 22.45743184 4.9378978 20.76667471 4.9465332 19.07592773 C4.95861232 16.65086793 4.96432498 14.22586556 4.96875 11.80078125 C4.97391129 11.04036026 4.97907257 10.27993927 4.98439026 9.49647522 C4.98458613 7.6795493 4.93306652 5.86274373 4.87109375 4.046875 C4.54109375 3.716875 4.21109375 3.386875 3.87109375 3.046875 C1.89109375 3.046875 -0.08890625 3.046875 -2.12890625 3.046875 Z " fill="#11497F" transform="translate(214.12890625,113.953125)"/>
<path d="M0 0 C4.82729896 0.82166791 4.82729896 0.82166791 6.9375 3.5 C7.58175881 6.6249563 7.56080887 9.37252042 6.9375 12.5 C4.875 15.625 4.875 15.625 1.9375 17.5 C-1.88144541 17.56584389 -4.04221812 17.35572029 -7 14.875 C-8.5215889 11.47380129 -8.57999792 9.18717269 -8.0625 5.5 C-5.58320473 2.0727389 -4.20767131 0.68696675 0 0 Z M-4.0625 4.5 C-4.29168242 8.51657143 -4.29168242 8.51657143 -4.0625 12.5 C-3.4025 13.16 -2.7425 13.82 -2.0625 14.5 C0.54030568 14.17958603 0.54030568 14.17958603 2.9375 13.5 C3.9464034 9.26353233 3.9464034 9.26353233 3 5.125 C2.649375 4.58875 2.29875 4.0525 1.9375 3.5 C-1.35180404 3.13314303 -1.35180404 3.13314303 -4.0625 4.5 Z " fill="#5C5C60" transform="translate(158.0625,160.5)"/>
<path d="M0 0 C1.17369141 0.01160156 1.17369141 0.01160156 2.37109375 0.0234375 C3.54865234 0.01183594 3.54865234 0.01183594 4.75 0 C5.42933594 0.13148437 6.10867187 0.26296875 6.80859375 0.3984375 C7.46859375 1.3884375 8.12859375 2.3784375 8.80859375 3.3984375 C11.37142117 4.12809116 11.37142117 4.12809116 13.80859375 4.3984375 C14.1015625 10.453125 14.1015625 10.453125 13.80859375 12.3984375 C12.81859375 13.0584375 11.82859375 13.7184375 10.80859375 14.3984375 C10.47859375 15.3884375 10.14859375 16.3784375 9.80859375 17.3984375 C7.82859375 17.3984375 5.84859375 17.3984375 3.80859375 17.3984375 C4.15921875 16.7590625 4.50984375 16.1196875 4.87109375 15.4609375 C6.19296447 11.14282648 5.47311827 7.85075181 4.80859375 3.3984375 C1.50859375 3.3984375 -1.79140625 3.3984375 -5.19140625 3.3984375 C-2.19140625 0.3984375 -2.19140625 0.3984375 0 0 Z " fill="#055197" transform="translate(177.19140625,114.6015625)"/>
<path d="M0 0 C2.0625 0.4375 2.0625 0.4375 4 1 C4 2.65 4 4.3 4 6 C5.32 5.67 6.64 5.34 8 5 C8 3.35 8 1.7 8 0 C9.32 0 10.64 0 12 0 C12 5.28 12 10.56 12 16 C10.68 16 9.36 16 8 16 C8 14.02 8 12.04 8 10 C6.68 10 5.36 10 4 10 C3.34 12.31 2.68 14.62 2 17 C1.01 16.67 0.02 16.34 -1 16 C-1.02685095 13.52076199 -1.04676547 11.0418116 -1.0625 8.5625 C-1.07506836 7.50192383 -1.07506836 7.50192383 -1.08789062 6.41992188 C-1.09653588 4.61306441 -1.05220011 2.80612397 -1 1 C-0.67 0.67 -0.34 0.34 0 0 Z " fill="#5E5F64" transform="translate(207,161)"/>
<path d="M0 0 C2.05078125 0.03255208 4.1015625 0.06510417 6.15234375 0.09765625 C6.15234375 1.41765625 6.15234375 2.73765625 6.15234375 4.09765625 C4.83234375 4.09765625 3.51234375 4.09765625 2.15234375 4.09765625 C2.15234375 4.75765625 2.15234375 5.41765625 2.15234375 6.09765625 C3.47234375 6.42765625 4.79234375 6.75765625 6.15234375 7.09765625 C6.15234375 8.08765625 6.15234375 9.07765625 6.15234375 10.09765625 C4.50234375 10.09765625 2.85234375 10.09765625 1.15234375 10.09765625 C1.15234375 11.41765625 1.15234375 12.73765625 1.15234375 14.09765625 C4.61734375 13.60265625 4.61734375 13.60265625 8.15234375 13.09765625 C7.82234375 14.41765625 7.49234375 15.73765625 7.15234375 17.09765625 C5.67327483 17.12454841 4.19406892 17.14400246 2.71484375 17.16015625 C1.47927734 17.17755859 1.47927734 17.17755859 0.21875 17.1953125 C-1.84765625 17.09765625 -1.84765625 17.09765625 -2.84765625 16.09765625 C-2.94740657 13.58629521 -2.98647808 11.1086221 -2.97265625 8.59765625 C-2.97652344 7.89511719 -2.98039062 7.19257813 -2.984375 6.46875 C-2.97221381 0.15709375 -2.97221381 0.15709375 0 0 Z " fill="#56555A" transform="translate(274.84765625,160.90234375)"/>
<path d="M0 0 C8.23005157 0.05423428 16.57798663 1.28899331 24 5 C25.70363822 5.22622081 27.41328701 5.40888473 29.125 5.5625 C30.03507812 5.64628906 30.94515625 5.73007813 31.8828125 5.81640625 C32.58148438 5.87699219 33.28015625 5.93757813 34 6 C33.67 6.66 33.34 7.32 33 8 C11.2580027 8.80360565 11.2580027 8.80360565 4 4 C3.67 3.34 3.34 2.68 3 2 C0.97536745 1.34786708 0.97536745 1.34786708 -1 1 C-0.67 0.67 -0.34 0.34 0 0 Z " fill="#03A2CB" transform="translate(200,59)"/>
<path d="M0 0 C0 1.32 0 2.64 0 4 C-1.65 3.67 -3.3 3.34 -5 3 C-5 3.99 -5 4.98 -5 6 C-4.195625 6.226875 -3.39125 6.45375 -2.5625 6.6875 C0 8 0 8 1.0625 10.375 C1 13 1 13 -0.5 15.375 C-3 17 -3 17 -6.75 16.75 C-7.8225 16.5025 -8.895 16.255 -10 16 C-9.67 14.68 -9.34 13.36 -9 12 C-7.35 12.33 -5.7 12.66 -4 13 C-4 12.01 -4 11.02 -4 10 C-4.61875 9.773125 -5.2375 9.54625 -5.875 9.3125 C-8.61410209 7.62070165 -9.05024472 6.00755839 -10 3 C-7.29536552 -0.8183075 -4.37912428 -0.24787496 0 0 Z " fill="#545456" transform="translate(183,161)"/>
<path d="M0 0 C-0.33 0.66 -0.66 1.32 -1 2 C-3.3140622 2.73075648 -5.64828869 3.40138258 -8 4 C-8.33 3.01 -8.66 2.02 -9 1 C-9.66 1 -10.32 1 -11 1 C-11 1.66 -11 2.32 -11 3 C-14.31395208 2.72350393 -17.62571605 2.42627566 -20.9375 2.125 C-21.88302734 2.04636719 -22.82855469 1.96773438 -23.80273438 1.88671875 C-25.15141602 1.76103516 -25.15141602 1.76103516 -26.52734375 1.6328125 C-27.35999756 1.55949707 -28.19265137 1.48618164 -29.05053711 1.41064453 C-30.01552124 1.20737549 -30.01552124 1.20737549 -31 1 C-31.33 0.34 -31.66 -0.32 -32 -1 C-29.33452288 -1.3665031 -26.66838699 -1.71840684 -24 -2.0625 C-22.88431641 -2.2181543 -22.88431641 -2.2181543 -21.74609375 -2.37695312 C-14.05649589 -3.34651112 -7.37633205 -2.30510377 0 0 Z " fill="#06A1CA" transform="translate(167,85)"/>
<path d="M0 0 C1.60080151 4.00200378 0.29279692 7.04556236 -1 11 C-0.34 11 0.32 11 1 11 C1 11.66 1 12.32 1 13 C0.34 13 -0.32 13 -1 13 C-0.979375 14.258125 -0.95875 15.51625 -0.9375 16.8125 C-0.89113917 19.64051087 -1.08307039 21.24921116 -2 24 C-1.38479492 23.98952637 -0.76958984 23.97905273 -0.13574219 23.96826172 C2.65946343 23.92661305 5.45460366 23.90064584 8.25 23.875 C9.21808594 23.85824219 10.18617188 23.84148438 11.18359375 23.82421875 C12.11816406 23.81777344 13.05273438 23.81132813 14.015625 23.8046875 C14.87446289 23.79421387 15.73330078 23.78374023 16.61816406 23.77294922 C19.17903596 24.01706677 20.79511029 24.71009488 23 26 C19.86181083 27.1297481 17.5054044 26.80455586 14.26953125 26.26171875 C8.35295005 25.57942797 1.67917513 25.10694162 -4 27 C-5.39439664 27.06665376 -6.79169875 27.08538199 -8.1875 27.0625 C-10.0746875 27.0315625 -10.0746875 27.0315625 -12 27 C-12 26.34 -12 25.68 -12 25 C-10.88238281 24.67773438 -9.76476562 24.35546875 -8.61328125 24.0234375 C-6.30655947 23.0324359 -5.25285076 22.53855867 -4.17333984 20.23925781 C-3.70226193 18.03189162 -3.40945119 15.87107016 -3.1875 13.625 C-2.99830346 12.11657591 -2.80440472 10.60873305 -2.60546875 9.1015625 C-2.51571777 8.39418945 -2.4259668 7.68681641 -2.33349609 6.95800781 C-1.90910014 4.46631266 -1.07651918 2.28022206 0 0 Z " fill="#0E5188" transform="translate(143,37)"/>
<path d="M0 0 C5.3490405 -0.39992826 9.07020372 0.93282021 13.875 3 C14.90753906 3.42925781 14.90753906 3.42925781 15.9609375 3.8671875 C17.64458078 4.56870553 19.3228668 5.28305756 21 6 C21 7.32 21 8.64 21 10 C14.80481527 9.58411954 9.73310689 8.39748106 4 6 C4 5.01 4 4.02 4 3 C2.35 3 0.7 3 -1 3 C-0.67 2.01 -0.34 1.02 0 0 Z " fill="#04A0CD" transform="translate(208,52)"/>
<path d="M0 0 C0.8353125 0.19916016 0.8353125 0.19916016 1.6875 0.40234375 C6.79086061 1.58335794 11.79909189 2.39322739 17 3 C18.66965451 3.31802943 20.33678518 3.64984951 22 4 C26.04094922 4.74614742 29.9492053 5.16827029 34.0546875 5.31640625 C35.16328125 5.35830078 36.271875 5.40019531 37.4140625 5.44335938 C38.55617187 5.48267578 39.69828125 5.52199219 40.875 5.5625 C42.0403125 5.60568359 43.205625 5.64886719 44.40625 5.69335938 C47.27072625 5.79901629 50.13528321 5.90111799 53 6 C52.34 6.33 51.68 6.66 51 7 C51 7.66 51 8.32 51 9 C50.01 9.33 49.02 9.66 48 10 C47.505 8.515 47.505 8.515 47 7 C45.97398682 7.06900513 45.97398682 7.06900513 44.92724609 7.1394043 C28.78237722 8.16695312 15.13809717 8.35800081 0 2 C0 1.34 0 0.68 0 0 Z " fill="#1990AE" transform="translate(186,74)"/>
<path d="M0 0 C1.75228434 2.36558386 2.18251781 3.71828352 2.25 6.6875 C1.191429 9.35940115 -0.08457197 11.28188174 -1.75 13.6875 C-2.74 14.0175 -3.73 14.3475 -4.75 14.6875 C-4.375 12.75 -4.375 12.75 -3.75 10.6875 C-3.09 10.3575 -2.43 10.0275 -1.75 9.6875 C-1.28476937 7.79216658 -1.28476937 7.79216658 -1.125 5.625 C-1.00125 4.325625 -0.8775 3.02625 -0.75 1.6875 C-2.4 1.6875 -4.05 1.6875 -5.75 1.6875 C-6.41 0.3675 -7.07 -0.9525 -7.75 -2.3125 C-9.20880109 -2.17142253 -10.66703551 -2.02447585 -12.125 -1.875 C-12.93710938 -1.79378906 -13.74921875 -1.71257812 -14.5859375 -1.62890625 C-16.79272805 -1.42159886 -16.79272805 -1.42159886 -18.75 -0.3125 C-15.78 0.0175 -12.81 0.3475 -9.75 0.6875 C-10.08 1.3475 -10.41 2.0075 -10.75 2.6875 C-14.38 2.6875 -18.01 2.6875 -21.75 2.6875 C-21.75 1.6975 -21.75 0.7075 -21.75 -0.3125 C-24.72 -0.8075 -24.72 -0.8075 -27.75 -1.3125 C-27.75 -1.6425 -27.75 -1.9725 -27.75 -2.3125 C-6.52162414 -4.89121811 -6.52162414 -4.89121811 0 0 Z " fill="#0E4980" transform="translate(191.75,117.3125)"/>
<path d="M0 0 C6.625 -0.25 6.625 -0.25 10 2 C10.58203125 3.83984375 10.58203125 3.83984375 10.8125 5.9375 C10.90144531 6.62714844 10.99039062 7.31679687 11.08203125 8.02734375 C11 10 11 10 9 13 C5.76509224 12.44225728 4.02144994 11.62788492 2 9 C2 8.01 2 7.02 2 6 C1.34 6 0.68 6 0 6 C0 4.02 0 2.04 0 0 Z " fill="#075294" transform="translate(315,114)"/>
<path d="M0 0 C3.29159316 -0.05790353 6.58305603 -0.09356261 9.875 -0.125 C10.81214844 -0.14175781 11.74929687 -0.15851563 12.71484375 -0.17578125 C13.61074219 -0.18222656 14.50664062 -0.18867187 15.4296875 -0.1953125 C16.25710449 -0.20578613 17.08452148 -0.21625977 17.93701172 -0.22705078 C20 0 20 0 22 2 C21.01 3.485 21.01 3.485 20 5 C16.953125 5.328125 16.953125 5.328125 13.25 5.25 C12.03828125 5.23453125 10.8265625 5.2190625 9.578125 5.203125 C6.31084289 5.0176461 3.2117942 4.61083203 0 4 C0 2.68 0 1.36 0 0 Z " fill="#02A2CB" transform="translate(202,82)"/>
<path d="M0 0 C1.61301773 3.22603545 1.12053599 6.74710038 1.09765625 10.2890625 C1.0962413 11.10748627 1.09482635 11.92591003 1.09336853 12.76913452 C1.0877629 15.38779325 1.07520948 18.00636704 1.0625 20.625 C1.05748572 22.39843627 1.05292269 24.17187387 1.04882812 25.9453125 C1.03779164 30.29690782 1.02052325 34.6484395 1 39 C3.31 39.33 5.62 39.66 8 40 C8 38.35 8 36.7 8 35 C10 38.75 10 38.75 10 41 C6.37 41 2.74 41 -1 41 C-2.24339946 37.26980162 -2.16232121 33.78823272 -2.16796875 29.90234375 C-2.17129715 29.11227432 -2.17462555 28.3222049 -2.17805481 27.50819397 C-2.18311351 25.83969708 -2.18546346 24.1711901 -2.18530273 22.50268555 C-2.18749471 19.94367988 -2.2056762 17.38510158 -2.22460938 14.82617188 C-2.22754236 13.20573064 -2.22952779 11.58528736 -2.23046875 9.96484375 C-2.23765427 9.19712143 -2.24483978 8.42939911 -2.25224304 7.63841248 C-2.22883191 2.22883191 -2.22883191 2.22883191 0 0 Z " fill="#124B7B" transform="translate(162,114)"/>
<path d="M0 0 C3.28212246 0.43761633 4.84832931 1.52557871 7 4 C7.33 2.68 7.66 1.36 8 0 C9.32 0 10.64 0 12 0 C11.57632374 2.9657338 11.06956411 4.89147999 9.4375 7.4375 C7.71778595 10.50307723 7.75857279 12.53954332 8 16 C6.68 16 5.36 16 4 16 C3.89042969 15.33613281 3.78085938 14.67226562 3.66796875 13.98828125 C2.78863977 9.09120522 2.00548286 5.09838572 -1 1 C-0.67 0.67 -0.34 0.34 0 0 Z " fill="#5D5C61" transform="translate(93,161)"/>
<path d="M0 0 C0 0.66 0 1.32 0 2 C3.3 2 6.6 2 10 2 C10 2.33 10 2.66 10 3 C5.05 3.66 0.1 4.32 -5 5 C-3.71222656 5.12117188 -2.42445313 5.24234375 -1.09765625 5.3671875 C0.58077848 5.53596865 2.25916135 5.70526613 3.9375 5.875 C4.78763672 5.95363281 5.63777344 6.03226562 6.51367188 6.11328125 C7.72700195 6.23896484 7.72700195 6.23896484 8.96484375 6.3671875 C10.08814087 6.47716064 10.08814087 6.47716064 11.23413086 6.58935547 C12.10823608 6.79262451 12.10823608 6.79262451 13 7 C13.33 7.66 13.66 8.32 14 9 C13.33468262 8.96447021 12.66936523 8.92894043 11.98388672 8.89233398 C8.94789862 8.73400586 5.91150028 8.58566658 2.875 8.4375 C1.82828125 8.38142578 0.7815625 8.32535156 -0.296875 8.26757812 C-5.34851007 8.02778532 -10.03125509 7.83948 -15 9 C-15 8.01 -15 7.02 -15 6 C-14.22914062 5.65066406 -13.45828125 5.30132812 -12.6640625 4.94140625 C-11.66117188 4.48636719 -10.65828125 4.03132813 -9.625 3.5625 C-8.62726563 3.11003906 -7.62953125 2.65757813 -6.6015625 2.19140625 C-1.81639344 0 -1.81639344 0 0 0 Z " fill="#1A92AB" transform="translate(141,80)"/>
<path d="M0 0 C0.99 0.33 1.98 0.66 3 1 C3 5.29 3 9.58 3 14 C4.98 13.67 6.96 13.34 9 13 C9 13.99 9 14.98 9 16 C5.26940301 16.95929637 2.73201925 16.84676067 -1 16 C-1.02685095 13.52076199 -1.04676547 11.0418116 -1.0625 8.5625 C-1.07506836 7.50192383 -1.07506836 7.50192383 -1.08789062 6.41992188 C-1.09653588 4.61306441 -1.05220011 2.80612397 -1 1 C-0.67 0.67 -0.34 0.34 0 0 Z " fill="#535255" transform="translate(292,161)"/>
<path d="M0 0 C0.99 0.33 1.98 0.66 3 1 C3.33 4.96 3.66 8.92 4 13 C5.32 13 6.64 13 8 13 C8 13.99 8 14.98 8 16 C4.64998162 17.11667279 2.40745188 16.76286236 -1 16 C-1.02685095 13.52076199 -1.04676547 11.0418116 -1.0625 8.5625 C-1.07506836 7.50192383 -1.07506836 7.50192383 -1.08789062 6.41992188 C-1.09653588 4.61306441 -1.05220011 2.80612397 -1 1 C-0.67 0.67 -0.34 0.34 0 0 Z " fill="#636267" transform="translate(134,161)"/>
<path d="M0 0 C-9.53409727 4.85337346 -9.53409727 4.85337346 -13.75 6.625 C-15.97318842 7.56557972 -18.16155632 8.59173624 -20.3125 9.6875 C-23 11 -23 11 -25 11 C-25 10.34 -25 9.68 -25 9 C-24.01 8.67 -23.02 8.34 -22 8 C-21.54625 7.154375 -21.0925 6.30875 -20.625 5.4375 C-20.08875 4.633125 -19.5525 3.82875 -19 3 C-16.3125 2.6875 -16.3125 2.6875 -14 3 C-14 2.34 -14 1.68 -14 1 C-12.41913952 0.63495397 -10.83516093 0.28339494 -9.25 -0.0625 C-7.92742187 -0.35833984 -7.92742187 -0.35833984 -6.578125 -0.66015625 C-4.01320972 -0.99825872 -2.42908361 -0.81158635 0 0 Z " fill="#155D90" transform="translate(262,72)"/>
<path d="M0 0 C3.79165074 -0.0289337 7.58327327 -0.04677601 11.375 -0.0625 C12.45523438 -0.07087891 13.53546875 -0.07925781 14.6484375 -0.08789062 C16.1953125 -0.09272461 16.1953125 -0.09272461 17.7734375 -0.09765625 C18.72653809 -0.10289307 19.67963867 -0.10812988 20.66162109 -0.11352539 C23 0 23 0 25 1 C25 2.32 25 3.64 25 5 C23.37536158 5.05395478 21.75021459 5.09277195 20.125 5.125 C18.76761719 5.15980469 18.76761719 5.15980469 17.3828125 5.1953125 C15 5 15 5 13 3 C9.88336503 2.61533818 6.78843551 2.49291013 3.65234375 2.34375 C2.77707031 2.2303125 1.90179688 2.116875 1 2 C0.67 1.34 0.34 0.68 0 0 Z " fill="#07A4CD" transform="translate(132,67)"/>
<path d="M0 0 C0.90234375 -0.01224609 1.8046875 -0.02449219 2.734375 -0.03710938 C3.60578125 -0.03904297 4.4771875 -0.04097656 5.375 -0.04296875 C6.16648438 -0.04707764 6.95796875 -0.05118652 7.7734375 -0.05541992 C10 0.1875 10 0.1875 14 2.1875 C9.71 2.1875 5.42 2.1875 1 2.1875 C1 2.8475 1 3.5075 1 4.1875 C1.66 4.5175 2.32 4.8475 3 5.1875 C-2.61 4.8575 -8.22 4.5275 -14 4.1875 C-14 3.1975 -14 2.2075 -14 1.1875 C-9.34472043 -0.14438292 -4.80905163 0.00343504 0 0 Z " fill="#159FC1" transform="translate(155,77.8125)"/>
<path d="M0 0 C1.00289063 0.10183594 2.00578125 0.20367187 3.0390625 0.30859375 C3.80992187 0.39238281 4.58078125 0.47617188 5.375 0.5625 C5.375 1.2225 5.375 1.8825 5.375 2.5625 C3.725 2.5625 2.075 2.5625 0.375 2.5625 C0.375 6.8525 0.375 11.1425 0.375 15.5625 C-0.945 15.2325 -2.265 14.9025 -3.625 14.5625 C-3.625 10.9325 -3.625 7.3025 -3.625 3.5625 C-4.945 3.2325 -6.265 2.9025 -7.625 2.5625 C-7.625 1.9025 -7.625 1.2425 -7.625 0.5625 C-4.89657939 -0.80171031 -3.01546682 -0.31557211 0 0 Z " fill="#5D5D61" transform="translate(258.625,161.4375)"/>
<path d="M0 0 C1.125 3.75 1.125 3.75 0 6 C0.9590625 6.4640625 0.9590625 6.4640625 1.9375 6.9375 C4 8 4 8 5 9 C5.04080783 10.99958364 5.04254356 13.00045254 5 15 C3.68 15 2.36 15 1 15 C0.71125 14.030625 0.4225 13.06125 0.125 12.0625 C-0.64214682 8.89335797 -0.64214682 8.89335797 -3 8 C-3.72693904 6.02111039 -4.39816251 4.02045442 -5 2 C-2 0 -2 0 0 0 Z " fill="#02519A" transform="translate(329,128)"/>
<path d="M0 0 C0.33 0.66 0.66 1.32 1 2 C0.57847656 2.59167969 0.15695312 3.18335938 -0.27734375 3.79296875 C-1.09912109 4.97826172 -1.09912109 4.97826172 -1.9375 6.1875 C-2.48277344 6.96480469 -3.02804687 7.74210938 -3.58984375 8.54296875 C-5.0456289 11.07950299 -5.59613435 13.1218182 -6 16 C-5.01 16 -4.02 16 -3 16 C-2.67 14.68 -2.34 13.36 -2 12 C-1.67 12 -1.34 12 -1 12 C-1 13.98 -1 15.96 -1 18 C-5.95 18.495 -5.95 18.495 -11 19 C-11.33 17.68 -11.66 16.36 -12 15 C-11.01 14.67 -10.02 14.34 -9 14 C-7.97549409 12.20263115 -7.97549409 12.20263115 -7 10 C-5.81665167 8.23300929 -4.60676121 6.48358985 -3.375 4.75 C-2.74335938 3.85796875 -2.11171875 2.9659375 -1.4609375 2.046875 C-0.73777344 1.03367188 -0.73777344 1.03367188 0 0 Z " fill="#0E4D83" transform="translate(304,137)"/>
<path d="M0 0 C1.91015625 0.23046875 1.91015625 0.23046875 3.91015625 2.23046875 C3.58015625 3.22046875 3.25015625 4.21046875 2.91015625 5.23046875 C2.58015625 4.90046875 2.25015625 4.57046875 1.91015625 4.23046875 C1.25015625 5.55046875 0.59015625 6.87046875 -0.08984375 8.23046875 C-0.74984375 8.23046875 -1.40984375 8.23046875 -2.08984375 8.23046875 C-1.75984375 6.91046875 -1.42984375 5.59046875 -1.08984375 4.23046875 C-1.74984375 3.90046875 -2.40984375 3.57046875 -3.08984375 3.23046875 C-3.08984375 4.88046875 -3.08984375 6.53046875 -3.08984375 8.23046875 C-3.74984375 8.23046875 -4.40984375 8.23046875 -5.08984375 8.23046875 C-5.41984375 9.22046875 -5.74984375 10.21046875 -6.08984375 11.23046875 C-7.08984375 10.23046875 -7.08984375 10.23046875 -7.22265625 8.19921875 C-7.22007813 7.38453125 -7.2175 6.56984375 -7.21484375 5.73046875 C-7.21742187 4.91578125 -7.22 4.10109375 -7.22265625 3.26171875 C-6.93549738 -1.1301228 -3.69363549 0.07373864 0 0 Z " fill="#686A6D" transform="translate(120.08984375,160.76953125)"/>
<path d="M0 0 C1.32 0.66 2.64 1.32 4 2 C4.47853579 6.88106506 4.74336366 9.95929087 1.8125 14.0625 C-1.18926109 16.13037986 -2.45033999 16.50709429 -6 16 C-5.67 15.01 -5.34 14.02 -5 13 C-3.35 12.67 -1.7 12.34 0 12 C0 8.04 0 4.08 0 0 Z " fill="#59595D" transform="translate(161,162)"/>
<path d="M0 0 C0.33 0 0.66 0 1 0 C1 8.58 1 17.16 1 26 C0.67 26 0.34 26 0 26 C-0.66 22.04 -1.32 18.08 -2 14 C-2.66 17.96 -3.32 21.92 -4 26 C-4.66 25.67 -5.32 25.34 -6 25 C-5.01 18.73 -4.02 12.46 -3 6 C-2.67 7.32 -2.34 8.64 -2 10 C-1.34 10 -0.68 10 0 10 C0 6.7 0 3.4 0 0 Z " fill="#144D7C" transform="translate(40,124)"/>
<path d="M0 0 C0.69710731 1.28650706 1.38242876 2.57940665 2.0625 3.875 C2.44535156 4.59429687 2.82820313 5.31359375 3.22265625 6.0546875 C3.47917969 6.69664063 3.73570313 7.33859375 4 8 C3.67 8.66 3.34 9.32 3 10 C0.22017379 8.6100869 0.12536659 6.81341647 -1 4 C-1.66 3.67 -2.32 3.34 -3 3 C-3.04254356 4.99954746 -3.04080783 7.00041636 -3 9 C-2.67 9.33 -2.34 9.66 -2 10 C-1.95936168 11.66617115 -1.957279 13.33388095 -2 15 C-5 11.25 -5 11.25 -5 9 C-5.66 9 -6.32 9 -7 9 C-7.24862931 6.01644824 -7.18991433 4.35134151 -5.75 1.6875 C-4 0 -4 0 0 0 Z " fill="#0B4D87" transform="translate(47,115)"/>
<path d="M0 0 C5.89528549 0.8720299 11.51352173 2.4632594 17.24609375 4.0625 C20.85869462 4.96471041 24.31228969 5.54319975 28 6 C27.67 6.66 27.34 7.32 27 8 C24.625 8.75 24.625 8.75 22 9 C21.01 8.34 20.02 7.68 19 7 C16.67612053 6.60612212 14.34206251 6.26513915 12 6 C12 5.34 12 4.68 12 4 C10.35 4.33 8.7 4.66 7 5 C6.67 5.99 6.34 6.98 6 8 C5.34 7.67 4.68 7.34 4 7 C4.33 5.35 4.66 3.7 5 2 C3.35 1.67 1.7 1.34 0 1 C0 0.67 0 0.34 0 0 Z " fill="#14588C" transform="translate(202,67)"/>
<path d="M0 0 C-0.96099609 0.38091797 -0.96099609 0.38091797 -1.94140625 0.76953125 C-5.92494453 2.35463515 -9.89791445 3.93806133 -13.8125 5.6875 C-18.73732492 7.71536909 -23.00432627 8.12083158 -28.3125 8.0625 C-29.38113281 8.05347656 -30.44976562 8.04445313 -31.55078125 8.03515625 C-32.35902344 8.02355469 -33.16726562 8.01195313 -34 8 C-34 7.67 -34 7.34 -34 7 C-32.73542969 6.80664062 -31.47085938 6.61328125 -30.16796875 6.4140625 C-28.50775115 6.15142921 -26.84759819 5.88838705 -25.1875 5.625 C-24.35412109 5.49867187 -23.52074219 5.37234375 -22.66210938 5.2421875 C-21.85966797 5.11328125 -21.05722656 4.984375 -20.23046875 4.8515625 C-19.49207764 4.73635254 -18.75368652 4.62114258 -17.99291992 4.50244141 C-15.70232389 4.04310634 -15.70232389 4.04310634 -13 2 C-8.63207758 -0.91194828 -5.00102117 -1.43657843 0 0 Z " fill="#228CA7" transform="translate(215,89)"/>
<path d="M0 0 C0.33 0.66 0.66 1.32 1 2 C0.67 2.99 0.34 3.98 0 5 C0.99 4.67 1.98 4.34 3 4 C3.99 4.99 4.98 5.98 6 7 C4.35 7 2.7 7 1 7 C0.67 8.65 0.34 10.3 0 12 C-0.33 10.68 -0.66 9.36 -1 8 C-1.99 8.495 -1.99 8.495 -3 9 C-3.33 9.99 -3.66 10.98 -4 12 C-4.66 12 -5.32 12 -6 12 C-6.28875 12.639375 -6.5775 13.27875 -6.875 13.9375 C-8 16 -8 16 -10 17 C-8.23576999 13.24868988 -6.06102752 9.76463789 -3.875 6.25 C-3.50246094 5.64800781 -3.12992187 5.04601562 -2.74609375 4.42578125 C-1.83225276 2.94957657 -0.91633402 1.47465846 0 0 Z " fill="#104E82" transform="translate(112,132)"/>
<path d="M0 0 C2.52113092 -0.05447822 5.0410585 -0.09389852 7.5625 -0.125 C8.26697266 -0.14175781 8.97144531 -0.15851562 9.69726562 -0.17578125 C15.22725526 -0.2267489 19.98395044 0.49197522 25 3 C25 3.99 25 4.98 25 6 C19.14636248 5.02092184 13.63462205 3.87820735 8 2 C5.33570313 1.5665038 2.68710431 1.27797631 0 1 C0 0.67 0 0.34 0 0 Z " fill="#08A0CD" transform="translate(173,54)"/>
<path d="M0 0 C2.64 0 5.28 0 8 0 C8 1.32 8 2.64 8 4 C6.68 4 5.36 4 4 4 C1.8480563 7.22791555 1.79913557 8.28400809 2 12 C1.34 12 0.68 12 0 12 C-1.28571429 3.42857143 -1.28571429 3.42857143 0 0 Z " fill="#646469" transform="translate(273,161)"/>
<path d="M0 0 C1.32 0.33 2.64 0.66 4 1 C4 1.66 4 2.32 4 3 C4.8971875 3.433125 4.8971875 3.433125 5.8125 3.875 C8 5 8 5 11 7 C11 7.66 11 8.32 11 9 C4.60344828 9.36206897 4.60344828 9.36206897 2.125 7.875 C0.59569177 5.32615294 0.32529059 2.92761527 0 0 Z " fill="#045297" transform="translate(187,145)"/>
<path d="M0 0 C-3.36423277 2.96052484 -6.69159287 3.92289822 -11 5 C-11 4.34 -11 3.68 -11 3 C-15.62 3 -20.24 3 -25 3 C-24.67 2.34 -24.34 1.68 -24 1 C-22.14375 1.061875 -22.14375 1.061875 -20.25 1.125 C-15.233026 1.14889035 -10.51217461 0.31054614 -5.6015625 -0.66015625 C-3 -1 -3 -1 0 0 Z " fill="#237E95" transform="translate(261,57)"/>
<path d="M0 0 C0 1.32 0 2.64 0 4 C-1.65 3.67 -3.3 3.34 -5 3 C-4.67 4.65 -4.34 6.3 -4 8 C-5.32 8 -6.64 8 -8 8 C-8.66 6.35 -9.32 4.7 -10 3 C-7.29536552 -0.8183075 -4.37912428 -0.24787496 0 0 Z " fill="#56585C" transform="translate(183,161)"/>
<path d="M0 0 C1.98 0.66 3.96 1.32 6 2 C6.33 3.65 6.66 5.3 7 7 C7.66 7 8.32 7 9 7 C8.67 8.98 8.34 10.96 8 13 C7.01 12.67 6.02 12.34 5 12 C4.67 10.02 4.34 8.04 4 6 C3.01 5.67 2.02 5.34 1 5 C0.67 3.35 0.34 1.7 0 0 Z " fill="#02539B" transform="translate(52,139)"/>
<path d="M0 0 C-0.734375 1.92578125 -0.734375 1.92578125 -2 4 C-3.953125 4.79296875 -3.953125 4.79296875 -6.25 5.1875 C-7.04792969 5.33316406 -7.84585938 5.47882813 -8.66796875 5.62890625 C-9.43753906 5.75136719 -10.20710938 5.87382813 -11 6 C-12.7634375 6.309375 -12.7634375 6.309375 -14.5625 6.625 C-15.366875 6.74875 -16.17125 6.8725 -17 7 C-16.67 6.01 -16.34 5.02 -16 4 C-13.67228131 2.92883742 -11.47830234 2.05925787 -9.0625 1.25 C-8.41603516 1.01667969 -7.76957031 0.78335938 -7.10351562 0.54296875 C-2.26817328 -1.13408664 -2.26817328 -1.13408664 0 0 Z " fill="#2892AE" transform="translate(129,67)"/>
<path d="M0 0 C0.598125 0.165 1.19625 0.33 1.8125 0.5 C4.11344336 1.1114124 4.11344336 1.1114124 7 1 C7.3125 3.3125 7.3125 3.3125 7 6 C3.71110421 8.72508509 1.21712557 9.36146791 -3 9 C-3.33 7.68 -3.66 6.36 -4 5 C-3.01 5.495 -3.01 5.495 -2 6 C0.09821215 5.60061233 0.09821215 5.60061233 2 5 C2 4.01 2 3.02 2 2 C1.34 1.34 0.68 0.68 0 0 Z " fill="#58585B" transform="translate(79,169)"/>
<path d="M0 0 C1.485 0.99 1.485 0.99 3 2 C3.825 2.12375 4.65 2.2475 5.5 2.375 C8.61517 3.1537925 9.35807783 4.32107435 11 7 C10.34 8.32 9.68 9.64 9 11 C6.5 9.625 6.5 9.625 4 8 C4 7.34 4 6.68 4 6 C2.68 5.34 1.36 4.68 0 4 C0 2.68 0 1.36 0 0 Z " fill="#02519A" transform="translate(256,130)"/>
<path d="M0 0 C1.65 0 3.3 0 5 0 C4.9278125 0.60328125 4.855625 1.2065625 4.78125 1.828125 C4.6884375 2.62734375 4.595625 3.4265625 4.5 4.25 C4.4071875 5.03890625 4.314375 5.8278125 4.21875 6.640625 C3.93845381 9.26890397 3.93845381 9.26890397 4 13 C3.01 13.33 2.02 13.66 1 14 C-0.38226016 11.23547967 -0.09525387 8.9538637 -0.0625 5.875 C-0.05347656 4.77929688 -0.04445313 3.68359375 -0.03515625 2.5546875 C-0.02355469 1.71164063 -0.01195313 0.86859375 0 0 Z " fill="#5F5F62" transform="translate(75,162)"/>
<path d="M0 0 C2.4375 0.375 2.4375 0.375 5 1 C5.33 1.66 5.66 2.32 6 3 C5.67 3.99 5.34 4.98 5 6 C4.9166196 8.13794525 4.89266253 10.27842009 4.90234375 12.41796875 C4.90556641 13.67158203 4.90878906 14.92519531 4.91210938 16.21679688 C4.92048828 17.52712891 4.92886719 18.83746094 4.9375 20.1875 C4.94251683 21.52278481 4.94707941 22.85807141 4.95117188 24.19335938 C4.96297305 27.46228473 4.97943703 30.73111991 5 34 C4.67 34 4.34 34 4 34 C2.73249331 27.20336964 2.88860274 20.45701316 2.9375 13.5625 C2.94201172 12.35400391 2.94652344 11.14550781 2.95117188 9.90039062 C2.96289855 6.93354211 2.97931104 3.9667973 3 1 C2.01 0.67 1.02 0.34 0 0 Z " fill="#114B7F" transform="translate(82,114)"/>
<path d="M0 0 C5.23880078 0.55145271 9.97350697 1.42922093 15 3 C14.67 3.66 14.34 4.32 14 5 C11.6859378 5.73075648 9.35171131 6.40138258 7 7 C6.67 6.01 6.34 5.02 6 4 C3.03 3.505 3.03 3.505 0 3 C0 2.01 0 1.02 0 0 Z " fill="#0BA7D2" transform="translate(152,82)"/>
<path d="M0 0 C0.66 0 1.32 0 2 0 C1.01 3.63 0.02 7.26 -1 11 C-4.63 11 -8.26 11 -12 11 C-10 7 -10 7 -7 5 C-7.33 6.32 -7.66 7.64 -8 9 C-6.02 9 -4.04 9 -2 9 C-2 7.02 -2 5.04 -2 3 C-1.34 3 -0.68 3 0 3 C0 2.01 0 1.02 0 0 Z " fill="#184D7F" transform="translate(109,144)"/>
<path d="M0 0 C1.125 3.75 1.125 3.75 0 6 C0.66 6 1.32 6 2 6 C2 6.99 2 7.98 2 9 C-0.97 8.67 -3.94 8.34 -7 8 C-4.18918919 0 -4.18918919 0 0 0 Z " fill="#025499" transform="translate(126,114)"/>
<path d="M0 0 C1.5778125 0.23009766 1.5778125 0.23009766 3.1875 0.46484375 C9.10455276 1.20447535 15.04502033 1.35445088 21 1.5625 C22.15628906 1.60568359 23.31257813 1.64886719 24.50390625 1.69335938 C27.33583854 1.79867917 30.16784747 1.90081087 33 2 C32.34 2.33 31.68 2.66 31 3 C31 3.66 31 4.32 31 5 C30.01 5.33 29.02 5.66 28 6 C27.67 5.01 27.34 4.02 27 3 C26.43079834 3.00523682 25.86159668 3.01047363 25.27514648 3.01586914 C22.66260917 3.03682887 20.05008963 3.04972004 17.4375 3.0625 C16.09461914 3.07506836 16.09461914 3.07506836 14.72460938 3.08789062 C9.70002057 3.10629571 4.95182709 2.86266398 0 2 C0 1.34 0 0.68 0 0 Z " fill="#0F79AD" transform="translate(206,78)"/>
<path d="M0 0 C1.0528418 0.01353516 1.0528418 0.01353516 2.12695312 0.02734375 C3.85561525 0.05086296 5.58410145 0.08673287 7.3125 0.125 C7.3125 0.455 7.3125 0.785 7.3125 1.125 C1.8675 1.62 1.8675 1.62 -3.6875 2.125 C0.2725 2.455 4.2325 2.785 8.3125 3.125 C4.57824575 5.61450284 1.95669532 5.22006654 -2.3125 4.875 C-3.00601563 4.83503906 -3.69953125 4.79507813 -4.4140625 4.75390625 C-6.17972692 4.62630941 -7.93629907 4.38412758 -9.6875 4.125 C-10.0175 3.465 -10.3475 2.805 -10.6875 2.125 C-7.00662647 -0.32891569 -4.24394412 -0.10302759 0 0 Z " fill="#179ABE" transform="translate(136.6875,65.875)"/>
<path d="M0 0 C0 0.33 0 0.66 0 1 C-0.93972656 1.09087891 -0.93972656 1.09087891 -1.8984375 1.18359375 C-2.71570313 1.26738281 -3.53296875 1.35117188 -4.375 1.4375 C-5.18710938 1.51871094 -5.99921875 1.59992188 -6.8359375 1.68359375 C-9.04272805 1.89090114 -9.04272805 1.89090114 -11 3 C-8.03 3.33 -5.06 3.66 -2 4 C-2.33 4.66 -2.66 5.32 -3 6 C-6.63 6 -10.26 6 -14 6 C-14 5.01 -14 4.02 -14 3 C-16.97 2.505 -16.97 2.505 -20 2 C-20 1.67 -20 1.34 -20 1 C-13.30386804 0.202163 -6.74233419 -0.12910853 0 0 Z " fill="#175084" transform="translate(184,114)"/>
<path d="M0 0 C3.63 0 7.26 0 11 0 C10.34 1.32 9.68 2.64 9 4 C6.1796875 4.609375 6.1796875 4.609375 2.875 4.75 C1.77929688 4.80671875 0.68359375 4.8634375 -0.4453125 4.921875 C-1.28835937 4.94765625 -2.13140625 4.9734375 -3 5 C-3.33 4.34 -3.66 3.68 -4 3 C-3.01 2.67 -2.02 2.34 -1 2 C-0.67 1.34 -0.34 0.68 0 0 Z " fill="#16A1C5" transform="translate(194,89)"/>
<path d="M0 0 C0.77537109 0.08765625 1.55074219 0.1753125 2.34960938 0.265625 C4.30756576 0.51229667 6.25055503 0.87226425 8.1875 1.25 C8.5175 1.91 8.8475 2.57 9.1875 3.25 C2.5875 2.59 -4.0125 1.93 -10.8125 1.25 C-11.4725 2.57 -12.1325 3.89 -12.8125 5.25 C-13.4725 4.92 -14.1325 4.59 -14.8125 4.25 C-14.8125 3.26 -14.8125 2.27 -14.8125 1.25 C-9.52886157 -1.00839729 -5.52700593 -0.7538968 0 0 Z " fill="#1279A8" transform="translate(177.8125,54.75)"/>
<path d="M0 0 C0 0.33 0 0.66 0 1 C-1.65 1.33 -3.3 1.66 -5 2 C-5 2.33 -5 2.66 -5 3 C-5.845625 2.98839844 -6.69125 2.97679687 -7.5625 2.96484375 C-13.81560618 2.91510313 -19.82005931 3.03059754 -26 4 C-19.85361239 -2.14638761 -8.03126565 -0.17544027 0 0 Z " fill="#0B82BB" transform="translate(199,48)"/>
<path d="M0 0 C2.46477712 2.30193899 4.31755197 4.75988654 6.1875 7.5625 C6.71730469 8.34753906 7.24710938 9.13257813 7.79296875 9.94140625 C9 12 9 12 9 14 C5.26840331 15.24386556 2.81984796 14.77811718 -1 14 C-1.33 13.34 -1.66 12.68 -2 12 C0.31 12 2.62 12 5 12 C4.67 10.68 4.34 9.36 4 8 C3.34 8 2.68 8 2 8 C0.74335022 5.09399739 0 3.20395416 0 0 Z " fill="#0D4A80" transform="translate(141,141)"/>
<path d="M0 0 C4.87310005 0.64598366 9.63131839 1.50971736 14.4375 2.5625 C15.67371094 2.83191406 16.90992188 3.10132813 18.18359375 3.37890625 C19.57771484 3.68634766 19.57771484 3.68634766 21 4 C21 4.33 21 4.66 21 5 C13.25847464 5.39363688 6.47941368 3.94210433 -1 2 C-0.67 1.34 -0.34 0.68 0 0 Z " fill="#006CA5" transform="translate(213,59)"/>
<path d="M0 0 C0.78375 0.04125 1.5675 0.0825 2.375 0.125 C2.375 1.115 2.375 2.105 2.375 3.125 C3.695 3.455 5.015 3.785 6.375 4.125 C6.045 4.785 5.715 5.445 5.375 6.125 C3.31257383 6.15217692 1.25004297 6.1714758 -0.8125 6.1875 C-1.96105469 6.19910156 -3.10960937 6.21070312 -4.29296875 6.22265625 C-7.21800586 6.13692832 -9.78816291 5.80349023 -12.625 5.125 C-12.625 4.795 -12.625 4.465 -12.625 4.125 C-8.335 4.125 -4.045 4.125 0.375 4.125 C0.375 3.465 0.375 2.805 0.375 2.125 C-1.275 2.125 -2.925 2.125 -4.625 2.125 C-2.625 0.125 -2.625 0.125 0 0 Z " fill="#1F9ABB" transform="translate(182.625,89.875)"/>
<path d="M0 0 C0.44730469 0.39832031 0.89460937 0.79664063 1.35546875 1.20703125 C4.14141424 3.64844617 6.71334886 5.83532807 9.9375 7.6875 C10.618125 8.120625 11.29875 8.55375 12 9 C12 9.99 12 10.98 12 12 C8.37 12 4.74 12 1 12 C0.67 11.34 0.34 10.68 0 10 C2.97 10.33 5.94 10.66 9 11 C9 10.34 9 9.68 9 9 C8.443125 8.773125 7.88625 8.54625 7.3125 8.3125 C4.33840412 6.62449964 2.27991135 4.53323483 0 2 C0 1.34 0 0.68 0 0 Z " fill="#134472" transform="translate(189,143)"/>
<path d="M0 0 C0.66 0.33 1.32 0.66 2 1 C1.67 4.96 1.34 8.92 1 13 C-1 12 -1 12 -3 10 C-2.68770276 8.66158328 -2.35169068 7.32860925 -2 6 C-2.37907282 3.81296615 -2.37907282 3.81296615 -3 2 C-2.01 1.34 -1.02 0.68 0 0 Z " fill="#02529A" transform="translate(133,127)"/>
<path d="M0 0 C7.88619392 0.5087867 16.50027148 1.79062909 22 8 C17.18399177 7.23754579 12.75384298 5.58720144 8.1875 3.9375 C7.39923828 3.65583984 6.61097656 3.37417969 5.79882812 3.08398438 C3.86477711 2.39241462 1.93223512 1.69662722 0 1 C0 0.67 0 0.34 0 0 Z " fill="#135F8F" transform="translate(167,64)"/>
<path d="M0 0 C0.33 0 0.66 0 1 0 C1 2.97 1 5.94 1 9 C1.66 9.33 2.32 9.66 3 10 C0.24921116 10.91692961 -1.35948913 11.10886083 -4.1875 11.0625 C-6.0746875 11.0315625 -6.0746875 11.0315625 -8 11 C-8 10.34 -8 9.68 -8 9 C-6.865625 8.62875 -5.73125 8.2575 -4.5625 7.875 C-2.6185869 7.13362127 -2.6185869 7.13362127 -1 6 C0.05749557 2.91630113 0.05749557 2.91630113 0 0 Z " fill="#155C90" transform="translate(139,53)"/>
<path d="M0 0 C3.18079099 1.17807074 4.26043535 2.32721364 6.4375 5.0625 C8.7023526 8.17693557 8.7023526 8.17693557 11.8125 8.875 C12.534375 8.91625 13.25625 8.9575 14 9 C14.33 7.68 14.66 6.36 15 5 C15.33 6.65 15.66 8.3 16 10 C14.35 10.66 12.7 11.32 11 12 C2.3690205 4.88610478 2.3690205 4.88610478 0 0 Z " fill="#0F4373" transform="translate(265,144)"/>
<path d="M0 0 C0.99 0.33 1.98 0.66 3 1 C3 4.63 3 8.26 3 12 C2.01 12 1.02 12 0 12 C-0.19401633 10.18818595 -0.38004375 8.37551468 -0.5625 6.5625 C-0.66691406 5.55316406 -0.77132813 4.54382813 -0.87890625 3.50390625 C-0.91886719 2.67761719 -0.95882813 1.85132813 -1 1 C-0.67 0.67 -0.34 0.34 0 0 Z " fill="#64676C" transform="translate(292,161)"/>
<path d="M0 0 C5.96351455 1.27789598 8.48417174 4.33716394 12 9 C9 9 9 9 7 7.0625 C6.34 6.381875 5.68 5.70125 5 5 C4.01 4.67 3.02 4.34 2 4 C2 4.66 2 5.32 2 6 C1.01 6 0.02 6 -1 6 C-0.67 4.02 -0.34 2.04 0 0 Z " fill="#0A477E" transform="translate(244,114)"/>
<path d="M0 0 C0 1.32 0 2.64 0 4 C-3.32423843 5.10807948 -4.67190578 4.76802174 -8 4 C-8.66 4 -9.32 4 -10 4 C-9.1875 2.0625 -9.1875 2.0625 -8 0 C-4.71023192 -1.09658936 -3.28696233 -0.79953138 0 0 Z " fill="#0A5492" transform="translate(85,115)"/>
<path d="M0 0 C3.91211733 1.15585285 6.8745041 2.35534962 10 5 C9.2575 4.979375 8.515 4.95875 7.75 4.9375 C5.08608477 4.88746913 5.08608477 4.88746913 2.9375 5.5625 C0.64383315 6.08042477 -0.78601575 5.7116378 -3 5 C-3 4.34 -3 3.68 -3 3 C-2.34 3 -1.68 3 -1 3 C-0.67 2.01 -0.34 1.02 0 0 Z " fill="#1998BB" transform="translate(187,82)"/>
<path d="M0 0 C0.33 0 0.66 0 1 0 C1 3.96 1 7.92 1 12 C-0.32 12 -1.64 12 -3 12 C-3.125 5.25 -3.125 5.25 -2 3 C-1.34 3 -0.68 3 0 3 C0 2.01 0 1.02 0 0 Z " fill="#606064" transform="translate(218,165)"/>
<path d="M0 0 C0.33 0 0.66 0 1 0 C1.66 2.31 2.32 4.62 3 7 C4.32 7 5.64 7 7 7 C7 7.99 7 8.98 7 10 C3.63458162 11.08174162 2.70152678 10.92538169 -1 10 C-0.67 6.7 -0.34 3.4 0 0 Z " fill="#5C5C5F" transform="translate(135,167)"/>
<path d="M0 0 C1.32 0 2.64 0 4 0 C4.33 2.64 4.66 5.28 5 8 C3.35 7.67 1.7 7.34 0 7 C0 4.69 0 2.38 0 0 Z " fill="#035198" transform="translate(240,146)"/>
<path d="M0 0 C1.00289063 0.10183594 2.00578125 0.20367187 3.0390625 0.30859375 C3.80992187 0.39238281 4.58078125 0.47617188 5.375 0.5625 C5.375 1.2225 5.375 1.8825 5.375 2.5625 C3.725 2.5625 2.075 2.5625 0.375 2.5625 C0.045 3.2225 -0.285 3.8825 -0.625 4.5625 C-2.935 3.9025 -5.245 3.2425 -7.625 2.5625 C-7.625 1.9025 -7.625 1.2425 -7.625 0.5625 C-4.89657939 -0.80171031 -3.01546682 -0.31557211 0 0 Z " fill="#6C6C70" transform="translate(258.625,161.4375)"/>
<path d="M0 0 C0.99 0.33 1.98 0.66 3 1 C3.33 3.31 3.66 5.62 4 8 C2.35 7.67 0.7 7.34 -1 7 C-1.04254356 5.00045254 -1.04080783 2.99958364 -1 1 C-0.67 0.67 -0.34 0.34 0 0 Z " fill="#015399" transform="translate(136,138)"/>
<path d="M0 0 C0.33 0 0.66 0 1 0 C1 1.65 1 3.3 1 5 C1.66 5 2.32 5 3 5 C2.38461538 11.52307692 2.38461538 11.52307692 0.4375 13.9375 C-0.036875 14.288125 -0.51125 14.63875 -1 15 C-0.67 12.69 -0.34 10.38 0 8 C-0.99 8.495 -0.99 8.495 -2 9 C-1.34 6.03 -0.68 3.06 0 0 Z " fill="#0F4B84" transform="translate(314,115)"/>
<path d="M0 0 C-0.33 1.32 -0.66 2.64 -1 4 C-2.65 4 -4.3 4 -6 4 C-6.66 5.32 -7.32 6.64 -8 8 C-8.33 6.02 -8.66 4.04 -9 2 C-5.5647952 -0.29013653 -4.014669 -0.17842973 0 0 Z " fill="#61636A" transform="translate(161,161)"/>
<path d="M0 0 C0.99 0.33 1.98 0.66 3 1 C4.1875 4.0625 4.1875 4.0625 5 7 C4.01 7.66 3.02 8.32 2 9 C0.4375 7.875 0.4375 7.875 -1 6 C-0.6875 2.8125 -0.6875 2.8125 0 0 Z " fill="#02539D" transform="translate(44,118)"/>
<path d="M0 0 C1.32 0 2.64 0 4 0 C4.33 1.98 4.66 3.96 5 6 C3.68 6.33 2.36 6.66 1 7 C-0.0625 5.1875 -0.0625 5.1875 -1 3 C-0.67 2.01 -0.34 1.02 0 0 Z " fill="#024F9E" transform="translate(180,136)"/>
<path d="M0 0 C-0.33 1.32 -0.66 2.64 -1 4 C-3.97 4 -6.94 4 -10 4 C-10.33 3.34 -10.66 2.68 -11 2 C-9.824375 1.7834375 -9.824375 1.7834375 -8.625 1.5625 C-1.33333333 0 -1.33333333 0 0 0 Z " fill="#4C4C50" transform="translate(283,174)"/>
<path d="M0 0 C1.32 0 2.64 0 4 0 C3.67 2.31 3.34 4.62 3 7 C2.34 7 1.68 7 1 7 C1 7.66 1 8.32 1 9 C0.01 8.67 -0.98 8.34 -2 8 C-1.34 7.01 -0.68 6.02 0 5 C0.16713569 2.37468476 0.16713569 2.37468476 0 0 Z " fill="#56575D" transform="translate(215,161)"/>
<path d="M0 0 C0.99 0 1.98 0 3 0 C2.47731534 2.76276177 1.89130413 5.3260876 1 8 C0.01 8 -0.98 8 -2 8 C-2.20086443 4.28400809 -2.1519437 3.22791555 0 0 Z " fill="#01539E" transform="translate(300,145)"/>
<path d="M0 0 C1.34254191 0.6479224 2.67427339 1.31833206 4 2 C5.73813388 2.42663286 7.48988665 2.80076859 9.25 3.125 C10.14203125 3.29257813 11.0340625 3.46015625 11.953125 3.6328125 C12.96632812 3.81457031 12.96632812 3.81457031 14 4 C14 4.33 14 4.66 14 5 C8.50339543 5.19286332 4.18047725 4.90303246 -1 3 C-1.33 2.34 -1.66 1.68 -2 1 C-1.34 0.67 -0.68 0.34 0 0 Z " fill="#038CB3" transform="translate(202,77)"/>
<path d="M0 0 C-4.95 2.475 -4.95 2.475 -10 5 C-10.33 4.34 -10.66 3.68 -11 3 C-9 0 -9 0 -6.625 -0.75 C-4 -1 -4 -1 0 0 Z " fill="#184667" transform="translate(262,72)"/>
<path d="M0 0 C0 3.93602341 -1.58022978 4.99361881 -4 8 C-4.77833534 10.18214568 -4.77833534 10.18214568 -5 12 C-5.66 12 -6.32 12 -7 12 C-7 12.66 -7 13.32 -7 14 C-7.66 14 -8.32 14 -9 14 C-7.64002446 7.95566426 -4.14348206 4.36505864 0 0 Z " fill="#104A7D" transform="translate(153,23)"/>
<path d="M0 0 C3.3 0 6.6 0 10 0 C10 0.66 10 1.32 10 2 C10.66 2 11.32 2 12 2 C12 1.34 12 0.68 12 0 C12.66 0.33 13.32 0.66 14 1 C13.01 2.485 13.01 2.485 12 4 C7.80530429 3.40075776 3.99000166 2.42500059 0 1 C0 0.67 0 0.34 0 0 Z " fill="#109EBE" transform="translate(161,75)"/>
<path d="M0 0 C2.50037734 2.17424117 3.43628586 3.73045798 4 7 C0.7169902 8.6415049 -2.42545033 7.51888624 -6 7 C-6.66 5.35 -7.32 3.7 -8 2 C-7.34 2 -6.68 2 -6 2 C-5.67 3.32 -5.34 4.64 -5 6 C-2.69 6 -0.38 6 2 6 C1.34 4.02 0.68 2.04 0 0 Z " fill="#16426C" transform="translate(340,148)"/>
<path d="M0 0 C0.66 0 1.32 0 2 0 C2.2475 0.969375 2.495 1.93875 2.75 2.9375 C3.63146087 6.10113981 3.63146087 6.10113981 5.9375 6.875 C7.62242272 6.97711653 9.31198568 7 11 7 C11.33 7.66 11.66 8.32 12 9 C9.3125 9.3125 9.3125 9.3125 6 9 C3.19259115 6.75407292 1.38835844 5.10532787 0.1875 1.6875 C0.125625 1.130625 0.06375 0.57375 0 0 Z " fill="#0B4B8B" transform="translate(135,145)"/>
<path d="M0 0 C0.33 0 0.66 0 1 0 C1 4.29 1 8.58 1 13 C-2 10 -2 10 -2.109375 7.7734375 C-1.99078125 6.98195312 -1.8721875 6.19046875 -1.75 5.375 C-1.58757813 4.18003906 -1.58757813 4.18003906 -1.421875 2.9609375 C-1 1 -1 1 0 0 Z " fill="#035298" transform="translate(38,137)"/>
<path d="M0 0 C1.65 1.32 3.3 2.64 5 4 C5 3.34 5 2.68 5 2 C5.66 2 6.32 2 7 2 C7.33 3.32 7.66 4.64 8 6 C5.03 5.67 2.06 5.34 -1 5 C-0.67 3.35 -0.34 1.7 0 0 Z " fill="#034F9C" transform="translate(113,132)"/>
<path d="M0 0 C3.3 0 6.6 0 10 0 C10 0.66 10 1.32 10 2 C8.54263913 2.19491452 7.08405407 2.38069358 5.625 2.5625 C4.81289062 2.66691406 4.00078125 2.77132812 3.1640625 2.87890625 C1 3 1 3 -1 2 C-0.67 1.34 -0.34 0.68 0 0 Z " fill="#00519B" transform="translate(227,76)"/>
<path d="M0 0 C6.0546875 -0.1953125 6.0546875 -0.1953125 8 0 C10 2 10 2 10 5 C8.02 4.34 6.04 3.68 4 3 C4 2.34 4 1.68 4 1 C2.68 0.67 1.36 0.34 0 0 Z " fill="#52565C" transform="translate(76,161)"/>
<path d="M0 0 C0.33 0.66 0.66 1.32 1 2 C0.67 2.99 0.34 3.98 0 5 C0.99 4.67 1.98 4.34 3 4 C3.99 4.99 4.98 5.98 6 7 C3.36 7 0.72 7 -2 7 C-1.125 1.125 -1.125 1.125 0 0 Z " fill="#054374" transform="translate(112,132)"/>
<path d="M0 0 C0.66 0.33 1.32 0.66 2 1 C1.62403791 3.78211944 1.32681541 5.5879284 -0.4375 7.8125 C-2 9 -2 9 -4 9 C-3.71848913 7.68528432 -3.42446661 6.37324233 -3.125 5.0625 C-2.96257812 4.33160156 -2.80015625 3.60070312 -2.6328125 2.84765625 C-2 1 -2 1 0 0 Z " fill="#045096" transform="translate(119,123)"/>
<path d="M0 0 C1.258125 -0.04125 2.51625 -0.0825 3.8125 -0.125 C4.52019531 -0.14820313 5.22789062 -0.17140625 5.95703125 -0.1953125 C8 0 8 0 11 2 C10 3 10 3 6.625 3.25 C3 3 3 3 1.0625 1.5 C0.5365625 0.7575 0.5365625 0.7575 0 0 Z " fill="#099ECF" transform="translate(192,49)"/>
<path d="M0 0 C4.875 4.625 4.875 4.625 6 8 C5.401875 7.67 4.80375 7.34 4.1875 7 C1.94613529 5.79212012 1.94613529 5.79212012 -1 6 C-0.67 4.02 -0.34 2.04 0 0 Z " fill="#0B477F" transform="translate(220,22)"/>
<path d="M0 0 C2.475 0.495 2.475 0.495 5 1 C4.34 2.32 3.68 3.64 3 5 C3.66 5.66 4.32 6.32 5 7 C3.35 6.67 1.7 6.34 0 6 C0 4.02 0 2.04 0 0 Z " fill="#03549C" transform="translate(315,114)"/>
<path d="M0 0 C-1.97420135 2.52259061 -2.96745642 2.9929808 -6.1875 3.6875 C-7.5796875 3.8421875 -7.5796875 3.8421875 -9 4 C-9.66 3.01 -10.32 2.02 -11 1 C-7.32589215 -0.17571451 -3.83070817 -0.07366746 0 0 Z " fill="#12779E" transform="translate(249,62)"/>
<path d="M0 0 C0 0.66 0 1.32 0 2 C1.32 2.66 2.64 3.32 4 4 C2.5608866 3.71640113 1.12374482 3.42278601 -0.3125 3.125 C-1.11300781 2.96257813 -1.91351563 2.80015625 -2.73828125 2.6328125 C-5 2 -5 2 -8 0 C-4.71303767 -0.79953138 -3.28976808 -1.09658936 0 0 Z " fill="#168DB2" transform="translate(204,61)"/>
<path d="M0 0 C-0.66 1.98 -1.32 3.96 -2 6 C-2.99 6 -3.98 6 -5 6 C-5 4.35 -5 2.7 -5 1 C-3 0 -3 0 0 0 Z " fill="#0255A1" transform="translate(80,118)"/>
<path d="M0 0 C2.375 0.3125 2.375 0.3125 5 1 C5.66 1.99 6.32 2.98 7 4 C6.01 5.485 6.01 5.485 5 7 C5 6.01 5 5.02 5 4 C3.35 3.67 1.7 3.34 0 3 C0 2.01 0 1.02 0 0 Z " fill="#55585C" transform="translate(236,161)"/>
<path d="M0 0 C1.98 0 3.96 0 6 0 C6 1.32 6 2.64 6 4 C3.69 3.67 1.38 3.34 -1 3 C-0.67 2.01 -0.34 1.02 0 0 Z " fill="#5B5E62" transform="translate(177,161)"/>
<path d="M0 0 C1.32 0.66 2.64 1.32 4 2 C3.67 2.99 3.34 3.98 3 5 C2.67 4.67 2.34 4.34 2 4 C1.34 5.32 0.68 6.64 0 8 C-0.66 8 -1.32 8 -2 8 C-1.34 5.36 -0.68 2.72 0 0 Z " fill="#606165" transform="translate(120,161)"/>
<path d="M0 0 C0.99 0 1.98 0 3 0 C2.4140625 6.15234375 2.4140625 6.15234375 2 8 C1.01 8.495 1.01 8.495 0 9 C-0.87890625 2.84765625 -0.87890625 2.84765625 -1 1 C-0.67 0.67 -0.34 0.34 0 0 Z " fill="#104675" transform="translate(239,114)"/>
<path d="M0 0 C1.65 0 3.3 0 5 0 C3.63016497 3.16115776 3.0109362 3.9927092 0 6 C0 4.02 0 2.04 0 0 Z " fill="#61646C" transform="translate(75,162)"/>
<path d="M0 0 C2 3 2 3 1.625 5.1875 C1.41875 5.785625 1.2125 6.38375 1 7 C0.34 6.67 -0.32 6.34 -1 6 C-1.33 6.66 -1.66 7.32 -2 8 C-2.125 5.125 -2.125 5.125 -2 2 C-1.34 1.34 -0.68 0.68 0 0 Z " fill="#5E5E62" transform="translate(115,169)"/>
<path d="M0 0 C1.32 0 2.64 0 4 0 C3.67 1.65 3.34 3.3 3 5 C1.68 4.67 0.36 4.34 -1 4 C-0.67 2.68 -0.34 1.36 0 0 Z " fill="#545559" transform="translate(101,161)"/>
<path d="M0 0 C0.99 0.66 1.98 1.32 3 2 C3 2.66 3 3.32 3 4 C-0.73159669 5.24386556 -3.18015204 4.77811718 -7 4 C-7.33 3.34 -7.66 2.68 -8 2 C-5.36 2.33 -2.72 2.66 0 3 C0 2.01 0 1.02 0 0 Z " fill="#16466E" transform="translate(147,151)"/>
<path d="M0 0 C0.33 0.99 0.66 1.98 1 3 C1.99 2.67 2.98 2.34 4 2 C3.34 3.32 2.68 4.64 2 6 C0.35 6 -1.3 6 -3 6 C-2.01 4.02 -1.02 2.04 0 0 Z " fill="#104B81" transform="translate(65,135)"/>
<path d="M0 0 C0.66 0 1.32 0 2 0 C1.37240135 2.92879371 0.41377341 5.36095629 -1 8 C-1.66 8 -2.32 8 -3 8 C-2.67 6.02 -2.34 4.04 -2 2 C-1.34 2 -0.68 2 0 2 C0 1.34 0 0.68 0 0 Z " fill="#045099" transform="translate(72,125)"/>
<path d="M0 0 C0.99 0 1.98 0 3 0 C3.99 3.3 4.98 6.6 6 10 C5.34 10 4.68 10 4 10 C2.14223235 6.86501708 1.79859524 4.62528568 2 1 C1.34 0.67 0.68 0.34 0 0 Z " fill="#0E457A" transform="translate(323,116)"/>
<path d="M0 0 C1.65 0.33 3.3 0.66 5 1 C5 1.99 5 2.98 5 4 C3.35 4 1.7 4 0 4 C-0.33 3.34 -0.66 2.68 -1 2 C-0.67 1.34 -0.34 0.68 0 0 Z " fill="#4F4E51" transform="translate(276,167)"/>
<path d="M0 0 C1.65 0.33 3.3 0.66 5 1 C4.34 2.32 3.68 3.64 3 5 C1.68 4.34 0.36 3.68 -1 3 C-0.67 2.01 -0.34 1.02 0 0 Z " fill="#02539C" transform="translate(140,148)"/>
<path d="M0 0 C2.15377564 2.62198774 3.40072174 4.64404172 4 8 C2.35 7.67 0.7 7.34 -1 7 C-0.67 4.69 -0.34 2.38 0 0 Z " fill="#0D4B80" transform="translate(54,131)"/>
<path d="M0 0 C2.64 0.33 5.28 0.66 8 1 C7.360625 1.268125 6.72125 1.53625 6.0625 1.8125 C3.66868314 2.88667752 3.66868314 2.88667752 3 6 C2.01 4.02 1.02 2.04 0 0 Z " fill="#10477D" transform="translate(179,131)"/>
<path d="M0 0 C0.66 0 1.32 0 2 0 C2.66 2.31 3.32 4.62 4 7 C2.68 6.67 1.36 6.34 0 6 C0 4.02 0 2.04 0 0 Z " fill="#104C88" transform="translate(131,121)"/>
<path d="M0 0 C0.33 0.66 0.66 1.32 1 2 C1.99 2 2.98 2 4 2 C4 2.66 4 3.32 4 4 C3.01 4 2.02 4 1 4 C0.67 4.66 0.34 5.32 0 6 C-0.66 5.34 -1.32 4.68 -2 4 C-1.67 3.67 -1.34 3.34 -1 3 C-1.66 2.34 -2.32 1.68 -3 1 C-2.01 0.67 -1.02 0.34 0 0 Z " fill="#049BBD" transform="translate(197,84)"/>
<path d="M0 0 C0.33 0.66 0.66 1.32 1 2 C1.66 2.33 2.32 2.66 3 3 C0.69 3.33 -1.62 3.66 -4 4 C-3.67 3.01 -3.34 2.02 -3 1 C-2.01 0.67 -1.02 0.34 0 0 Z " fill="#515154" transform="translate(159,174)"/>
<path d="M0 0 C2.64 0 5.28 0 8 0 C8 1.32 8 2.64 8 4 C7.01 4 6.02 4 5 4 C5 3.34 5 2.68 5 2 C3.35 1.67 1.7 1.34 0 1 C0 0.67 0 0.34 0 0 Z " fill="#4D4E53" transform="translate(273,161)"/>
<path d="M0 0 C2.64 0 5.28 0 8 0 C4.93882432 2.62386487 4.26826873 3 0 3 C0 2.01 0 1.02 0 0 Z " fill="#565963" transform="translate(272,162)"/>
<path d="M0 0 C0.33 1.32 0.66 2.64 1 4 C-2.3 4.33 -5.6 4.66 -9 5 C-9.33 4.01 -9.66 3.02 -10 2 C-6.7 2.33 -3.4 2.66 0 3 C0 2.01 0 1.02 0 0 Z " fill="#244A6F" transform="translate(302,151)"/>
<path d="M0 0 C0.66 1.32 1.32 2.64 2 4 C0.02 4.33 -1.96 4.66 -4 5 C-3.67 3.68 -3.34 2.36 -3 1 C-2.01 1.33 -1.02 1.66 0 2 C0 1.34 0 0.68 0 0 Z " fill="#04A9D1" transform="translate(168,87)"/>
<path d="M0 0 C0 0.66 0 1.32 0 2 C-1.98 2.33 -3.96 2.66 -6 3 C-6 2.01 -6 1.02 -6 0 C-3.50907189 -1.24546405 -2.58919267 -0.7767578 0 0 Z " fill="#2F798D" transform="translate(132,86)"/>
<path d="M0 0 C2.64 0 5.28 0 8 0 C7.01 0.495 7.01 0.495 6 1 C6 1.66 6 2.32 6 3 C5.01 3.33 4.02 3.66 3 4 C2.67 3.01 2.34 2.02 2 1 C1.34 0.67 0.68 0.34 0 0 Z " fill="#1B8BB2" transform="translate(231,80)"/>
<path d="M0 0 C0 0.99 0 1.98 0 3 C-1.98 3.33 -3.96 3.66 -6 4 C-5.67 3.01 -5.34 2.02 -5 1 C-3 0 -3 0 0 0 Z " fill="#277B9E" transform="translate(118,70)"/>
<path d="M0 0 C2 1 2 1 2 1 Z " fill="#396B8C" transform="translate(129,64)"/>
<path d="" fill="#4D6474" transform="translate(0,0)"/>
</svg>
