<?xml version="1.0" encoding="UTF-8"?>
<svg version="1.1" xmlns="http://www.w3.org/2000/svg" width="366" height="168">
<path d="M0 0 C3.36553685 0.26176398 6.73063074 0.44307825 10.1015625 0.62109375 C13 1 13 1 15 3 C15 4.32 15 5.64 15 7 C14.01 7 13.02 7 12 7 C12 6.34 12 5.68 12 5 C9.58239124 5.11426509 7.16652782 5.24099661 4.75 5.375 C4.06808594 5.4059375 3.38617188 5.436875 2.68359375 5.46875 C-1.24910625 5.69783932 -3.38894206 6.19447103 -7 8 C-6.67 13.28 -6.34 18.56 -6 24 C-0.39 24 5.22 24 11 24 C11.33 21.69 11.66 19.38 12 17 C9.69 17 7.38 17 5 17 C5 16.01 5 15.02 5 14 C8.3 14 11.6 14 15 14 C15.08107583 15.93681161 15.13922475 17.8745934 15.1875 19.8125 C15.23970703 21.43091797 15.23970703 21.43091797 15.29296875 23.08203125 C15 26 15 26 13.7668457 27.65527344 C10.38328089 30.23046689 6.09222251 29.46920032 2 29.4375 C0.62714844 29.4674707 0.62714844 29.4674707 -0.7734375 29.49804688 C-1.65257812 29.49740234 -2.53171875 29.49675781 -3.4375 29.49609375 C-4.24058594 29.49794678 -5.04367188 29.4997998 -5.87109375 29.50170898 C-8 29 -8 29 -9.7668457 27.19848633 C-11.57721804 23.97092686 -11.31986815 20.8409104 -11.1875 17.25 C-11.17396484 16.55261719 -11.16042969 15.85523437 -11.14648438 15.13671875 C-11.1112945 13.42414459 -11.05749155 11.71197059 -11 10 C-11.66 10 -12.32 10 -13 10 C-13.1875 6.625 -13.1875 6.625 -13 3 C-8.48564 -0.00957334 -5.2311018 -1.36063808 0 0 Z " fill="#F5F7F5" transform="translate(64,66)"/>
<path d="M0 0 C1.97806641 -0.02900391 1.97806641 -0.02900391 3.99609375 -0.05859375 C7.5625 0.4375 7.5625 0.4375 10.03515625 1.90234375 C11.5625 4.4375 11.5625 4.4375 11.5625 13.4375 C5.6225 13.4375 -0.3175 13.4375 -6.4375 13.4375 C-6.4375 15.4175 -6.4375 17.3975 -6.4375 19.4375 C-0.4975 19.4375 5.4425 19.4375 11.5625 19.4375 C11.5625 20.7575 11.5625 22.0775 11.5625 23.4375 C8.45864789 23.55363204 5.35535338 23.62472029 2.25 23.6875 C1.36892578 23.72101563 0.48785156 23.75453125 -0.41992188 23.7890625 C-6.81926016 23.88639084 -6.81926016 23.88639084 -9.51953125 21.92578125 C-10.81659295 18.40991612 -10.87236468 15.06998109 -10.8125 11.375 C-10.82410156 10.65505859 -10.83570312 9.93511719 -10.84765625 9.19335938 C-10.83176387 6.34067797 -10.74545418 4.01022659 -9.37890625 1.46875 C-6.35375146 -0.13817327 -3.33998611 -0.03522517 0 0 Z M-6.4375 4.4375 C-6.4375 6.0875 -6.4375 7.7375 -6.4375 9.4375 C-1.8175 9.4375 2.8025 9.4375 7.5625 9.4375 C7.5625 7.7875 7.5625 6.1375 7.5625 4.4375 C2.9425 4.4375 -1.6775 4.4375 -6.4375 4.4375 Z " fill="#F6F9F9" transform="translate(110.4375,71.5625)"/>
<path d="M0 0 C1.00836914 -0.01063477 1.00836914 -0.01063477 2.03710938 -0.02148438 C4.85394534 0.01487994 6.96430293 0.14601061 9.390625 1.640625 C11.48734512 5.23947296 10.5947365 9.40176326 10.4375 13.4375 C4.4975 13.4375 -1.4425 13.4375 -7.5625 13.4375 C-7.5625 15.4175 -7.5625 17.3975 -7.5625 19.4375 C-1.6225 19.4375 4.3175 19.4375 10.4375 19.4375 C10.4375 20.7575 10.4375 22.0775 10.4375 23.4375 C7.51984109 23.54556144 4.60618875 23.62482877 1.6875 23.6875 C0.8625 23.72101563 0.0375 23.75453125 -0.8125 23.7890625 C-4.54992583 23.84934356 -6.86669454 23.86010577 -10.109375 21.890625 C-12.13162809 18.47671387 -12.09358286 15.88502373 -12.0625 11.9375 C-12.07796875 9.97296875 -12.07796875 9.97296875 -12.09375 7.96875 C-11.5625 4.4375 -11.5625 4.4375 -10.00390625 1.99609375 C-6.58612874 -0.18581541 -4.0252279 -0.05902094 0 0 Z M-7.5625 4.4375 C-7.5625 6.0875 -7.5625 7.7375 -7.5625 9.4375 C-2.9425 9.4375 1.6775 9.4375 6.4375 9.4375 C6.4375 7.7875 6.4375 6.1375 6.4375 4.4375 C1.8175 4.4375 -2.8025 4.4375 -7.5625 4.4375 Z " fill="#F2F5F4" transform="translate(135.5625,71.5625)"/>
<path d="M0 0 C1.32 0 2.64 0 4 0 C4 6.27 4 12.54 4 19 C8.62 19 13.24 19 18 19 C18 12.73 18 6.46 18 0 C19.32 0 20.64 0 22 0 C22.04947698 3.93265896 22.08575578 7.86519714 22.10986328 11.7980957 C22.12485495 13.79319618 22.15026731 15.78820946 22.17578125 17.78320312 C22.18222656 19.03681641 22.18867188 20.29042969 22.1953125 21.58203125 C22.20578613 22.73936768 22.21625977 23.8967041 22.22705078 25.08911133 C22 28 22 28 20 31 C17.2114711 31.22107787 14.65346819 31.28107535 11.875 31.1875 C10.74384766 31.16719727 10.74384766 31.16719727 9.58984375 31.14648438 C7.72625873 31.11109985 5.86304022 31.05729167 4 31 C4 30.01 4 29.02 4 28 C10.435 27.505 10.435 27.505 17 27 C17.33 25.68 17.66 24.36 18 23 C16.42798828 23.06960937 16.42798828 23.06960937 14.82421875 23.140625 C13.44534099 23.17814548 12.06643242 23.21454536 10.6875 23.25 C9.99720703 23.28351563 9.30691406 23.31703125 8.59570312 23.3515625 C5.58282149 23.40978243 3.52298027 23.37355734 1.03125 21.59375 C-0.58693588 17.52376732 -0.3122718 13.58182099 -0.1875 9.25 C-0.17396484 8.36183594 -0.16042969 7.47367187 -0.14648438 6.55859375 C-0.11121309 4.37177422 -0.06192752 2.18620034 0 0 Z " fill="#F1F4F3" transform="translate(229,72)"/>
<path d="M0 0 C2.93774463 -0.05390357 5.87450232 -0.0936255 8.8125 -0.125 C10.06256836 -0.15013672 10.06256836 -0.15013672 11.33789062 -0.17578125 C12.14033203 -0.18222656 12.94277344 -0.18867187 13.76953125 -0.1953125 C14.50792236 -0.20578613 15.24631348 -0.21625977 16.00708008 -0.22705078 C18 0 18 0 21 2 C22.47919991 6.35676915 21.91332603 10.80015147 21.5625 15.3125 C21.51029297 16.05306641 21.45808594 16.79363281 21.40429688 17.55664062 C21.27549848 19.37152709 21.13856738 21.18583325 21 23 C18.06195004 23.08086376 15.12611925 23.1404283 12.1875 23.1875 C11.35412109 23.21263672 10.52074219 23.23777344 9.66210938 23.26367188 C8.45844727 23.27817383 8.45844727 23.27817383 7.23046875 23.29296875 C6.12288208 23.31653442 6.12288208 23.31653442 4.99291992 23.34057617 C2.43114785 22.90278712 1.56278869 22.03990175 0 20 C-0.39872284 16.62414666 -0.13292547 13.41175371 0 10 C5.94 10 11.88 10 18 10 C18 8.02 18 6.04 18 4 C12.06 4 6.12 4 0 4 C0 2.68 0 1.36 0 0 Z M4 13 C4 14.98 4 16.96 4 19 C8.62 19 13.24 19 18 19 C18 17.02 18 15.04 18 13 C13.38 13 8.76 13 4 13 Z " fill="#F2F5F4" transform="translate(292,72)"/>
<path d="M0 0 C1.22589844 -0.02835937 2.45179688 -0.05671875 3.71484375 -0.0859375 C7.57120319 0.44504315 8.69495809 1.37255337 11.0625 4.375 C10.7325 5.035 10.4025 5.695 10.0625 6.375 C9.0725 6.045 8.0825 5.715 7.0625 5.375 C4.66995424 5.14939324 2.27321877 4.96651405 -0.125 4.8125 C-1.39730469 4.72871094 -2.66960937 4.64492187 -3.98046875 4.55859375 C-4.95628906 4.49800781 -5.93210937 4.43742187 -6.9375 4.375 C-6.9375 6.025 -6.9375 7.675 -6.9375 9.375 C-5.97328125 9.32859375 -5.0090625 9.2821875 -4.015625 9.234375 C-2.75234375 9.19828125 -1.4890625 9.1621875 -0.1875 9.125 C1.06546875 9.07859375 2.3184375 9.0321875 3.609375 8.984375 C7.0625 9.375 7.0625 9.375 9.484375 11.203125 C11.0625 13.375 11.0625 13.375 11.5625 16.375 C10.93693064 20.12841614 10.06138007 21.07715683 7.0625 23.375 C3.75 23.90625 3.75 23.90625 0.0625 23.875 C-1.7628125 23.89046875 -1.7628125 23.89046875 -3.625 23.90625 C-7.4393321 23.29451749 -8.65473982 22.43389865 -10.9375 19.375 C-10.9375 18.715 -10.9375 18.055 -10.9375 17.375 C-9.6175 17.375 -8.2975 17.375 -6.9375 17.375 C-6.9375 18.035 -6.9375 18.695 -6.9375 19.375 C-2.3175 19.375 2.3025 19.375 7.0625 19.375 C7.0625 17.395 7.0625 15.415 7.0625 13.375 C1.7825 13.375 -3.4975 13.375 -8.9375 13.375 C-11.20889251 8.83221498 -11.09938936 7.20130965 -9.9375 2.375 C-6.29344748 -0.05436835 -4.338683 0.04552658 0 0 Z " fill="#F3F6F6" transform="translate(263.9375,71.625)"/>
<path d="M0 0 C1.49249268 0.01571045 1.49249268 0.01571045 3.01513672 0.03173828 C4.6296875 0.04140625 4.6296875 0.04140625 6.27685547 0.05126953 C7.40478516 0.06802734 8.53271484 0.08478516 9.69482422 0.10205078 C11.39832031 0.11558594 11.39832031 0.11558594 13.13623047 0.12939453 C15.94763721 0.1530198 18.7586272 0.18596065 21.56982422 0.22705078 C21.23982422 1.54705078 20.90982422 2.86705078 20.56982422 4.22705078 C13.30982422 4.22705078 6.04982422 4.22705078 -1.43017578 4.22705078 C-1.10017578 10.82705078 -0.77017578 17.42705078 -0.43017578 24.22705078 C6.82982422 24.22705078 14.08982422 24.22705078 21.56982422 24.22705078 C21.23982422 25.54705078 20.90982422 26.86705078 20.56982422 28.22705078 C16.96580941 28.31406117 13.3620641 28.36744466 9.75732422 28.41455078 C8.73316406 28.4396875 7.70900391 28.46482422 6.65380859 28.49072266 C5.17944336 28.50522461 5.17944336 28.50522461 3.67529297 28.52001953 C2.76932373 28.53572998 1.86335449 28.55144043 0.92993164 28.56762695 C-1.43017578 28.22705078 -1.43017578 28.22705078 -3.2265625 27.03710938 C-4.85592848 24.58678091 -4.802799 22.90374548 -4.79345703 19.97314453 C-4.79249023 18.44463867 -4.79249023 18.44463867 -4.79150391 16.88525391 C-4.77539062 15.82242188 -4.75927734 14.75958984 -4.74267578 13.66455078 C-4.74589844 12.59785156 -4.74912109 11.53115234 -4.75244141 10.43212891 C-4.68281458 0.43751432 -4.68281458 0.43751432 0 0 Z " fill="#F3F4F3" transform="translate(187.43017578125,66.77294921875)"/>
<path d="M0 0 C1.32 0 2.64 0 4 0 C4.33 0.99 4.66 1.98 5 3 C6.07121094 2.98839844 7.14242188 2.97679688 8.24609375 2.96484375 C9.64322743 2.95546701 11.04036299 2.94636669 12.4375 2.9375 C13.14455078 2.92912109 13.85160156 2.92074219 14.58007812 2.91210938 C16.38693559 2.90346412 18.19387603 2.94779989 20 3 C21 4 21 4 21.1328125 5.8125 C21.13023437 6.534375 21.12765625 7.25625 21.125 8 C21.12886719 9.0828125 21.12886719 9.0828125 21.1328125 10.1875 C21 12 21 12 20 13 C18.00041636 13.04080783 15.99954746 13.04254356 14 13 C14.33 12.34 14.66 11.68 15 11 C13.68 10.67 12.36 10.34 11 10 C11 8.02 11 6.04 11 4 C9.68 4 8.36 4 7 4 C7 5.98 7 7.96 7 10 C0.4 10 -6.2 10 -13 10 C-13.33 8.68 -13.66 7.36 -14 6 C-12.02 6 -10.04 6 -8 6 C-8 5.34 -8 4.68 -8 4 C-12.455 4.495 -12.455 4.495 -17 5 C-17.33 6.65 -17.66 8.3 -18 10 C-18.66 10 -19.32 10 -20 10 C-20.04254356 8.00045254 -20.04080783 5.99958364 -20 4 C-19 3 -19 3 -17.14233398 2.88647461 C-15.95619507 2.89432983 -15.95619507 2.89432983 -14.74609375 2.90234375 C-13.46508789 2.90717773 -13.46508789 2.90717773 -12.15820312 2.91210938 C-11.26037109 2.92048828 -10.36253906 2.92886719 -9.4375 2.9375 C-8.53580078 2.94201172 -7.63410156 2.94652344 -6.70507812 2.95117188 C-4.46998686 2.96299775 -2.23502563 2.9794778 0 3 C0 2.01 0 1.02 0 0 Z M-3 4 C-3.33 5.65 -3.66 7.3 -4 9 C-2.68 9 -1.36 9 0 9 C0 7.35 0 5.7 0 4 C-0.99 4 -1.98 4 -3 4 Z M16 4 C15.67 5.65 15.34 7.3 15 9 C16.32 9 17.64 9 19 9 C18.67 7.35 18.34 5.7 18 4 C17.34 4 16.68 4 16 4 Z M-11 7 C-11 7.66 -11 8.32 -11 9 C-10.01 8.67 -9.02 8.34 -8 8 C-8.99 7.67 -9.98 7.34 -11 7 Z " fill="#D5DEDB" transform="translate(260,110)"/>
<path d="M0 0 C2.908125 -0.04125 5.81625 -0.0825 8.8125 -0.125 C10.18112183 -0.15231201 10.18112183 -0.15231201 11.57739258 -0.18017578 C12.30079834 -0.1851709 13.0242041 -0.19016602 13.76953125 -0.1953125 C14.50792236 -0.20578613 15.24631348 -0.21625977 16.00708008 -0.22705078 C18 0 18 0 21 2 C21.34057617 4.15478516 21.34057617 4.15478516 21.29296875 6.7890625 C21.28330078 7.73007813 21.27363281 8.67109375 21.26367188 9.640625 C21.23853516 10.62546875 21.21339844 11.6103125 21.1875 12.625 C21.16719727 14.11386719 21.16719727 14.11386719 21.14648438 15.6328125 C21.11105743 18.08908072 21.06166196 20.54427285 21 23 C20.01 23 19.02 23 18 23 C17.67 17.06 17.34 11.12 17 5 C12.71 5 8.42 5 4 5 C3.67 10.94 3.34 16.88 3 23 C2.01 23 1.02 23 0 23 C0 15.41 0 7.82 0 0 Z " fill="#F2F2F2" transform="translate(149,72)"/>
<path d="M0 0 C0.99 0 1.98 0 3 0 C3 2.31 3 4.62 3 7 C5.97 7 8.94 7 12 7 C12 8.32 12 9.64 12 11 C9.03 11 6.06 11 3 11 C3.33 15.62 3.66 20.24 4 25 C6.64 25.33 9.28 25.66 12 26 C12 27.32 12 28.64 12 30 C10.5629191 30.05422947 9.12524538 30.09289723 7.6875 30.125 C6.48673828 30.15980469 6.48673828 30.15980469 5.26171875 30.1953125 C3 30 3 30 0 28 C-1.44596988 22.05018952 -0.92336274 16.13080094 -0.5625 10.0625 C-0.51029297 9.09248047 -0.45808594 8.12246094 -0.40429688 7.12304688 C-0.27561558 4.74829212 -0.14070204 2.37406771 0 0 Z " fill="#F3F6F6" transform="translate(278,65)"/>
<path d="M0 0 C3.36553685 0.26176398 6.73063074 0.44307825 10.1015625 0.62109375 C13 1 13 1 15 3 C15 4.32 15 5.64 15 7 C14.01 7 13.02 7 12 7 C12 6.34 12 5.68 12 5 C9.58239124 5.11426509 7.16652782 5.24099661 4.75 5.375 C4.06808594 5.4059375 3.38617188 5.436875 2.68359375 5.46875 C-1.24910625 5.69783932 -3.38894206 6.19447103 -7 8 C-6.67 13.61 -6.34 19.22 -6 25 C-6.66 25.33 -7.32 25.66 -8 26 C-8 19.07 -8 12.14 -8 5 C-5.69 4.34 -3.38 3.68 -1 3 C-3.91652174 2.83318891 -3.91652174 2.83318891 -7 3 C-9.43914492 5.43914492 -9.28662523 6.21446431 -9.4140625 9.5703125 C-9.45273437 10.46621094 -9.49140625 11.36210938 -9.53125 12.28515625 C-9.5621875 13.22230469 -9.593125 14.15945312 -9.625 15.125 C-9.66367187 16.06988281 -9.70234375 17.01476562 -9.7421875 17.98828125 C-9.83661346 20.32532375 -9.92218394 22.66235501 -10 25 C-10.33 25 -10.66 25 -11 25 C-11 20.05 -11 15.1 -11 10 C-11.66 10 -12.32 10 -13 10 C-13.1875 6.625 -13.1875 6.625 -13 3 C-8.48564 -0.00957334 -5.2311018 -1.36063808 0 0 Z " fill="#EAEAEA" transform="translate(64,66)"/>
<path d="M0 0 C0.66 0.33 1.32 0.66 2 1 C2 1.66 2 2.32 2 3 C9.92 3 17.84 3 26 3 C26.495 3.99 26.495 3.99 27 5 C25.02 4.67 23.04 4.34 21 4 C21 4.66 21 5.32 21 6 C22.65 6 24.3 6 26 6 C26.495 6.99 26.495 6.99 27 8 C26.67 8.66 26.34 9.32 26 10 C23.69 10 21.38 10 19 10 C19 9.34 19 8.68 19 8 C20.65 8 22.3 8 24 8 C21.525 7.505 21.525 7.505 19 7 C19 6.01 19 5.02 19 4 C18.01 4.33 17.02 4.66 16 5 C15.67 6.65 15.34 8.3 15 10 C7.41 10 -0.18 10 -8 10 C-8 8.68 -8 7.36 -8 6 C-6.35 6 -4.7 6 -3 6 C-3 5.34 -3 4.68 -3 4 C-4.65 4 -6.3 4 -8 4 C-8 3.67 -8 3.34 -8 3 C-5.69 3 -3.38 3 -1 3 C-0.67 2.01 -0.34 1.02 0 0 Z M2 4 C2 5.65 2 7.3 2 9 C2.99 9 3.98 9 5 9 C5 7.35 5 5.7 5 4 C4.01 4 3.02 4 2 4 Z M7 4 C7 5.65 7 7.3 7 9 C8.32 8.67 9.64 8.34 11 8 C10.34 6.68 9.68 5.36 9 4 C8.34 4 7.68 4 7 4 Z M-6 7 C-6 7.66 -6 8.32 -6 9 C-5.01 8.67 -4.02 8.34 -3 8 C-3.99 7.67 -4.98 7.34 -6 7 Z " fill="#D4DAD8" transform="translate(106,110)"/>
<path d="M0 0 C1.90845703 0.05414063 1.90845703 0.05414063 3.85546875 0.109375 C5.31919922 0.17898437 5.31919922 0.17898437 6.8125 0.25 C6.8125 1.57 6.8125 2.89 6.8125 4.25 C2.5225 4.25 -1.7675 4.25 -6.1875 4.25 C-6.1875 10.52 -6.1875 16.79 -6.1875 23.25 C-7.5075 23.25 -8.8275 23.25 -10.1875 23.25 C-10.27483513 20.16684615 -10.32800127 17.08401173 -10.375 14 C-10.40013672 13.12730469 -10.42527344 12.25460938 -10.45117188 11.35546875 C-10.49201592 7.78842195 -10.48647162 4.97984248 -9.125 1.65625 C-6.13789896 -0.51180721 -3.62710627 -0.13310482 0 0 Z " fill="#E9ECEB" transform="translate(92.1875,71.75)"/>
<path d="M0 0 C0.33 0.99 0.66 1.98 1 3 C2.98 3 4.96 3 7 3 C7 2.01 7 1.02 7 0 C7.66 0 8.32 0 9 0 C9.33 3.63 9.66 7.26 10 11 C8.68 10.67 7.36 10.34 6 10 C4.41788427 9.93451508 2.83329919 9.91421619 1.25 9.9375 C0.05117187 9.95103516 0.05117187 9.95103516 -1.171875 9.96484375 C-1.77515625 9.97644531 -2.3784375 9.98804687 -3 10 C-3.33 8.35 -3.66 6.7 -4 5 C-4.66 5 -5.32 5 -6 5 C-6.33 6.65 -6.66 8.3 -7 10 C-10.3 10 -13.6 10 -17 10 C-17 7.69 -17 5.38 -17 3 C-15.94039063 3.03480469 -14.88078125 3.06960937 -13.7890625 3.10546875 C-12.40105748 3.13360399 -11.01303537 3.16090443 -9.625 3.1875 C-8.57699219 3.22520508 -8.57699219 3.22520508 -7.5078125 3.26367188 C-5.23252323 3.32978561 -5.23252323 3.32978561 -2 3 C-1.34 2.01 -0.68 1.02 0 0 Z M-15 4 C-15 4.66 -15 5.32 -15 6 C-13.68 5.67 -12.36 5.34 -11 5 C-12.32 4.67 -13.64 4.34 -15 4 Z M1 4 C1 5.65 1 7.3 1 9 C1.99 9 2.98 9 4 9 C4 7.35 4 5.7 4 4 C3.01 4 2.02 4 1 4 Z M-15 7 C-15 7.66 -15 8.32 -15 9 C-13.02 9 -11.04 9 -9 9 C-9 8.34 -9 7.68 -9 7 C-10.98 7 -12.96 7 -15 7 Z " fill="#D8E1E0" transform="translate(87,110)"/>
<path d="M0 0 C1.32 0 2.64 0 4 0 C4 8.58 4 17.16 4 26 C5.65 26 7.3 26 9 26 C8.67 27.32 8.34 28.64 8 30 C3.53161191 30.36230174 3.53161191 30.36230174 1.3503418 28.87573242 C-0.60203702 26.16372258 -0.33964567 24.11484241 -0.29296875 20.80078125 C-0.28330078 19.59228516 -0.27363281 18.38378906 -0.26367188 17.13867188 C-0.23853516 15.87603516 -0.21339844 14.61339844 -0.1875 13.3125 C-0.17396484 12.03826172 -0.16042969 10.76402344 -0.14648438 9.45117188 C-0.11108199 6.30035943 -0.0616979 3.15038955 0 0 Z " fill="#E2E5E4" transform="translate(316,65)"/>
<path d="M0 0 C1.01513672 -0.00483398 1.01513672 -0.00483398 2.05078125 -0.00976562 C5.73473014 0.03019832 7.36207954 0.22055303 10.5 2.3125 C10.79296875 4.6953125 10.79296875 4.6953125 10.6875 7.4375 C10.66042969 8.34757812 10.63335937 9.25765625 10.60546875 10.1953125 C10.57066406 10.89398438 10.53585938 11.59265625 10.5 12.3125 C9.51 11.9825 8.52 11.6525 7.5 11.3125 C4.93365139 11.08531504 2.38321893 10.89641816 -0.1875 10.75 C-0.88939453 10.70681641 -1.59128906 10.66363281 -2.31445312 10.61914062 C-4.04275206 10.5133264 -5.7713511 10.41243419 -7.5 10.3125 C-7.83 8.6625 -8.16 7.0125 -8.5 5.3125 C-8.83 9.9325 -9.16 14.5525 -9.5 19.3125 C-9.83 19.3125 -10.16 19.3125 -10.5 19.3125 C-10.5809313 16.70771117 -10.64045434 14.10543347 -10.6875 11.5 C-10.72520508 10.39301758 -10.72520508 10.39301758 -10.76367188 9.26367188 C-10.80330824 6.34379304 -10.83019345 3.94320659 -9.45703125 1.3203125 C-6.40052664 -0.25369586 -3.35172856 -0.07980306 0 0 Z M-6.5 4.3125 C-6.5 5.9625 -6.5 7.6125 -6.5 9.3125 C-1.88 9.3125 2.74 9.3125 7.5 9.3125 C7.5 7.6625 7.5 6.0125 7.5 4.3125 C2.88 4.3125 -1.74 4.3125 -6.5 4.3125 Z " fill="#EBEEED" transform="translate(110.5,71.6875)"/>
<path d="M0 0 C1.18851563 0.00902344 2.37703125 0.01804687 3.6015625 0.02734375 C4.51679688 0.03894531 5.43203125 0.05054687 6.375 0.0625 C6.375 1.3825 6.375 2.7025 6.375 4.0625 C2.085 4.0625 -2.205 4.0625 -6.625 4.0625 C-6.625 10.3325 -6.625 16.6025 -6.625 23.0625 C-7.615 23.0625 -8.605 23.0625 -9.625 23.0625 C-11.00084104 16.87121533 -12.05953653 8.79103107 -9.73828125 2.7578125 C-7.35240333 -0.87541915 -3.98417382 -0.03906053 0 0 Z " fill="#F6F7F6" transform="translate(221.625,71.9375)"/>
<path d="M0 0 C1.32 0 2.64 0 4 0 C4 6.27 4 12.54 4 19 C7.96 19 11.92 19 16 19 C16 19.33 16 19.66 16 20 C13.03 20.33 10.06 20.66 7 21 C10.63 21.33 14.26 21.66 18 22 C18 22.33 18 22.66 18 23 C15.56131832 23.1079859 13.12740867 23.18726589 10.6875 23.25 C9.99720703 23.28351563 9.30691406 23.31703125 8.59570312 23.3515625 C5.58282149 23.40978243 3.52298027 23.37355734 1.03125 21.59375 C-0.58693588 17.52376732 -0.3122718 13.58182099 -0.1875 9.25 C-0.17396484 8.36183594 -0.16042969 7.47367187 -0.14648438 6.55859375 C-0.11121309 4.37177422 -0.06192752 2.18620034 0 0 Z " fill="#EBEEED" transform="translate(229,72)"/>
<path d="M0 0 C0.33 0 0.66 0 1 0 C1 3.3 1 6.6 1 10 C-2.3 10 -5.6 10 -9 10 C-9 8.02 -9 6.04 -9 4 C-9.99 4.33 -10.98 4.66 -12 5 C-12.33 6.65 -12.66 8.3 -13 10 C-15.97 10 -18.94 10 -22 10 C-22 8.68 -22 7.36 -22 6 C-20.68 5.67 -19.36 5.34 -18 5 C-19.32 4.34 -20.64 3.68 -22 3 C-15.07 3 -8.14 3 -1 3 C-0.67 2.01 -0.34 1.02 0 0 Z M-4 4 C-4.33 5.65 -4.66 7.3 -5 9 C-3.68 9 -2.36 9 -1 9 C-1 7.35 -1 5.7 -1 4 C-1.99 4 -2.98 4 -4 4 Z M-20 7 C-20.33 7.66 -20.66 8.32 -21 9 C-19.68 8.67 -18.36 8.34 -17 8 C-17.99 7.67 -18.98 7.34 -20 7 Z " fill="#E1E9E6" transform="translate(159,110)"/>
<path d="M0 0 C2.14576637 -0.02685938 4.29162645 -0.04633088 6.4375 -0.0625 C7.63246094 -0.07410156 8.82742187 -0.08570312 10.05859375 -0.09765625 C13 0 13 0 14 1 C14.08685603 2.56172745 14.10702219 4.12729344 14.09765625 5.69140625 C14.09443359 6.63564453 14.09121094 7.57988281 14.08789062 8.55273438 C14.07951172 9.54595703 14.07113281 10.53917969 14.0625 11.5625 C14.05798828 12.55958984 14.05347656 13.55667969 14.04882812 14.58398438 C14.03700007 17.05604849 14.02051849 19.52799518 14 22 C13.01 22 12.02 22 11 22 C10.67 15.4 10.34 8.8 10 2 C6.37 2 2.74 2 -1 2 C-0.67 1.34 -0.34 0.68 0 0 Z " fill="#F8F8F8" transform="translate(156,73)"/>
<path d="M0 0 C0.33 0 0.66 0 1 0 C1.33 2.31 1.66 4.62 2 7 C3.98 7 5.96 7 8 7 C8.33 4.69 8.66 2.38 9 0 C9.66 0 10.32 0 11 0 C11 2.64 11 5.28 11 8 C13.31 8 15.62 8 18 8 C18 5.36 18 2.72 18 0 C20.97 0 23.94 0 27 0 C27 0.66 27 1.32 27 2 C24.69 2 22.38 2 20 2 C20 3.98 20 5.96 20 8 C22.31 8 24.62 8 27 8 C26.67 8.66 26.34 9.32 26 10 C13.13 9.505 13.13 9.505 0 9 C0 6.03 0 3.06 0 0 Z " fill="#DEE3E2" transform="translate(285,111)"/>
<path d="M0 0 C6.93 0 13.86 0 21 0 C20.67 0.66 20.34 1.32 20 2 C18.68 1.67 17.36 1.34 16 1 C16 1.66 16 2.32 16 3 C17.65 3 19.3 3 21 3 C21 4.32 21 5.64 21 7 C18.69 7 16.38 7 14 7 C14 6.34 14 5.68 14 5 C15.65 5 17.3 5 19 5 C16.525 4.505 16.525 4.505 14 4 C14 3.01 14 2.02 14 1 C12.68 1 11.36 1 10 1 C10 2.98 10 4.96 10 7 C9.01 7.495 9.01 7.495 8 8 C8 6.68 8 5.36 8 4 C6.02 4 4.04 4 2 4 C2 4.66 2 5.32 2 6 C3.65 6 5.3 6 7 6 C7 6.33 7 6.66 7 7 C4.69 7 2.38 7 0 7 C0 4.69 0 2.38 0 0 Z M2 1 C2 1.66 2 2.32 2 3 C2.99 3 3.98 3 5 3 C5 2.34 5 1.68 5 1 C4.01 1 3.02 1 2 1 Z " fill="#DFE3E2" transform="translate(206,113)"/>
<path d="M0 0 C1.23492187 -0.03738281 2.46984375 -0.07476562 3.7421875 -0.11328125 C7.64036908 0.37736747 8.74344592 1.27871125 11.125 4.3125 C10.795 4.9725 10.465 5.6325 10.125 6.3125 C9.135 5.9825 8.145 5.6525 7.125 5.3125 C4.79516055 5.08567669 2.46083031 4.90328886 0.125 4.75 C-1.73125 4.62431641 -1.73125 4.62431641 -3.625 4.49609375 C-5.70591436 4.3785421 -7.79076802 4.3125 -9.875 4.3125 C-9.545 3.3225 -9.215 2.3325 -8.875 1.3125 C-5.93776222 -0.15611889 -3.26907643 0.06456596 0 0 Z " fill="#EBEFEE" transform="translate(263.875,71.6875)"/>
<path d="M0 0 C0.66 0 1.32 0 2 0 C2.33 3.63 2.66 7.26 3 11 C1.68 10.67 0.36 10.34 -1 10 C-2.99963028 9.96154557 -5.00051633 9.95455719 -7 10 C-7 7.36 -7 4.72 -7 2 C-4.69 2.33 -2.38 2.66 0 3 C0 2.01 0 1.02 0 0 Z M-6 4 C-6 5.65 -6 7.3 -6 9 C-5.01 9 -4.02 9 -3 9 C-3 7.35 -3 5.7 -3 4 C-3.99 4 -4.98 4 -6 4 Z " fill="#E3ECEA" transform="translate(94,110)"/>
<path d="M0 0 C3.5 0.125 3.5 0.125 4.5 1.125 C4.64115161 3.79558851 4.54247107 6.44932238 4.5 9.125 C3.84 9.125 3.18 9.125 2.5 9.125 C2.5 8.135 2.5 7.145 2.5 6.125 C0.85 6.125 -0.8 6.125 -2.5 6.125 C-2.5 7.115 -2.5 8.105 -2.5 9.125 C-3.16 9.125 -3.82 9.125 -4.5 9.125 C-4.59765625 2.97265625 -4.59765625 2.97265625 -4.5 1.125 C-3.5 0.125 -3.5 0.125 0 0 Z M-2.5 2.125 C-2.5 3.115 -2.5 4.105 -2.5 5.125 C-0.85 5.125 0.8 5.125 2.5 5.125 C2.5 4.135 2.5 3.145 2.5 2.125 C0.85 2.125 -0.8 2.125 -2.5 2.125 Z " fill="#C5CDCC" transform="translate(168.5,110.875)"/>
<path d="M0 0 C0.33 0.66 0.66 1.32 1 2 C-1.70879335 3.35439668 -4.00933268 3.06501451 -7 3 C-7 3.66 -7 4.32 -7 5 C-5.35 5 -3.7 5 -2 5 C-2 5.66 -2 6.32 -2 7 C-3.65 7 -5.3 7 -7 7 C-7 7.99 -7 8.98 -7 10 C-7.66 10 -8.32 10 -9 10 C-9 7.03 -9 4.06 -9 1 C-4.545 0.505 -4.545 0.505 0 0 Z " fill="#D3DAD8" transform="translate(195,110)"/>
<path d="M0 0 C3.3 0 6.6 0 10 0 C10 2.64 10 5.28 10 8 C9.34 8 8.68 8 8 8 C7.67 6.35 7.34 4.7 7 3 C4.69 3 2.38 3 0 3 C0 2.01 0 1.02 0 0 Z " fill="#FBFCFB" transform="translate(69,80)"/>
<path d="M0 0 C0.66 0.33 1.32 0.66 2 1 C1.67 1.33 1.34 1.66 1 2 C0.84285346 3.63256758 0.74914586 5.27135338 0.68359375 6.91015625 C0.64169922 7.89951172 0.59980469 8.88886719 0.55664062 9.90820312 C0.49766602 11.46958008 0.49766602 11.46958008 0.4375 13.0625 C0.39431641 14.10728516 0.35113281 15.15207031 0.30664062 16.22851562 C0.20018775 18.81886884 0.0981724 21.40932186 0 24 C-0.33 24 -0.66 24 -1 24 C-1 19.05 -1 14.1 -1 9 C-1.66 9 -2.32 9 -3 9 C-3.1875 5.625 -3.1875 5.625 -3 2 C-2.01 1.34 -1.02 0.68 0 0 Z " fill="#ACACAC" transform="translate(54,67)"/>
<path d="M0 0 C0.66 0 1.32 0 2 0 C2.33 3.63 2.66 7.26 3 11 C0.03 10.505 0.03 10.505 -3 10 C-3 7.69 -3 5.38 -3 3 C-2.34 3 -1.68 3 -1 3 C-0.67 2.01 -0.34 1.02 0 0 Z " fill="#CBD4D1" transform="translate(197,110)"/>
<path d="M0 0 C1.32 0 2.64 0 4 0 C3.34 1.32 2.68 2.64 2 4 C1.34 4 0.68 4 0 4 C0.33 9.61 0.66 15.22 1 21 C0.34 21.33 -0.32 21.66 -1 22 C-1.02887814 18.52085059 -1.04675687 15.04173169 -1.0625 11.5625 C-1.07087891 10.56927734 -1.07925781 9.57605469 -1.08789062 8.55273438 C-1.09111328 7.60849609 -1.09433594 6.66425781 -1.09765625 5.69140625 C-1.10289307 4.81685791 -1.10812988 3.94230957 -1.11352539 3.04125977 C-1 1 -1 1 0 0 Z " fill="#95938E" transform="translate(57,70)"/>
<path d="M0 0 C2.24707241 0.2198223 4.49771238 0.40483987 6.75 0.5625 C7.92046875 0.64628906 9.0909375 0.73007813 10.296875 0.81640625 C11.18890625 0.87699219 12.0809375 0.93757813 13 1 C13 1.33 13 1.66 13 2 C12.40985107 2.01981934 11.81970215 2.03963867 11.21166992 2.06005859 C8.53649904 2.15534659 5.86210502 2.26500939 3.1875 2.375 C2.25873047 2.4059375 1.32996094 2.436875 0.37304688 2.46875 C-0.51962891 2.50742188 -1.41230469 2.54609375 -2.33203125 2.5859375 C-3.15421143 2.6173584 -3.9763916 2.6487793 -4.82348633 2.68115234 C-7.28952937 2.88373622 -7.28952937 2.88373622 -10 5 C-9.01906046 2.54765115 -8.31296172 1.2190732 -6.125 -0.3125 C-3.53355275 -1.15090941 -2.62186086 -0.66217646 0 0 Z " fill="#B7B8BA" transform="translate(64,66)"/>
<path d="M0 0 C2.31 0 4.62 0 7 0 C7 2.31 7 4.62 7 7 C4.69 7 2.38 7 0 7 C0 5.68 0 4.36 0 3 C1.65 3 3.3 3 5 3 C5 2.34 5 1.68 5 1 C3.35 1 1.7 1 0 1 C0 0.67 0 0.34 0 0 Z M2 4 C2 4.66 2 5.32 2 6 C2.99 5.67 3.98 5.34 5 5 C4.01 4.67 3.02 4.34 2 4 Z " fill="#EFF4F3" transform="translate(98,113)"/>
<path d="M0 0 C2.31 0 4.62 0 7 0 C7 1.32 7 2.64 7 4 C5.35 4 3.7 4 2 4 C2 4.66 2 5.32 2 6 C3.65 6 5.3 6 7 6 C7 6.33 7 6.66 7 7 C4.69 7 2.38 7 0 7 C0 4.69 0 2.38 0 0 Z M2 1 C2 1.66 2 2.32 2 3 C2.99 3 3.98 3 5 3 C5 2.34 5 1.68 5 1 C4.01 1 3.02 1 2 1 Z " fill="#F1F4F3" transform="translate(206,113)"/>
<path d="M0 0 C1.37562854 1.28965176 2.70766393 2.62689293 4 4 C4 4.66 4 5.32 4 6 C4.66 6 5.32 6 6 6 C6.433125 4.7934375 6.433125 4.7934375 6.875 3.5625 C8 1 8 1 10 0 C8.94124926 3.40312738 7.99097846 6.01353231 6 9 C3 8 3 8 1.3125 5.0625 C0 2 0 2 0 0 Z " fill="#E9EDED" transform="translate(59,111)"/>
<path d="M0 0 C2.31 0 4.62 0 7 0 C7 1.32 7 2.64 7 4 C5.35 4 3.7 4 2 4 C2 4.66 2 5.32 2 6 C3.65 6 5.3 6 7 6 C7 6.33 7 6.66 7 7 C4.69 7 2.38 7 0 7 C0 4.69 0 2.38 0 0 Z M2 1 C2 1.66 2 2.32 2 3 C3.32 2.67 4.64 2.34 6 2 C4.68 1.67 3.36 1.34 2 1 Z " fill="#F1F4F5" transform="translate(70,113)"/>
<path d="M0 0 C2.33944736 0.28730055 4.6739143 0.61936779 7 1 C6.67 2.32 6.34 3.64 6 5 C4.35 5 2.7 5 1 5 C0.34 3.68 -0.32 2.36 -1 1 C-0.67 0.67 -0.34 0.34 0 0 Z " fill="#F1F5F4" transform="translate(318,90)"/>
<path d="M0 0 C1.98 0 3.96 0 6 0 C6 2.31 6 4.62 6 7 C2.37 7 -1.26 7 -5 7 C-1.23312136 5.11656068 0.02958963 4.77942165 4 5 C3.24849977 1.72226496 3.24849977 1.72226496 0 0 Z " fill="#ECF0EF" transform="translate(112,113)"/>
<path d="M0 0 C0.66 0 1.32 0 2 0 C2.33 3.63 2.66 7.26 3 11 C2.01 10.67 1.02 10.34 0 10 C-1.125 3.375 -1.125 3.375 0 0 Z " fill="#B9C7C3" transform="translate(94,110)"/>
<path d="M0 0 C2.64 0 5.28 0 8 0 C6.68 0.33 5.36 0.66 4 1 C4 3.31 4 5.62 4 8 C2.68 7.67 1.36 7.34 0 7 C0 4.69 0 2.38 0 0 Z " fill="#EEF4F3" transform="translate(174,113)"/>
<path d="M0 0 C2.97 0 5.94 0 9 0 C9 0.66 9 1.32 9 2 C7.68 2 6.36 2 5 2 C5 4.31 5 6.62 5 9 C4.67 9 4.34 9 4 9 C4 6.69 4 4.38 4 2 C2.68 2 1.36 2 0 2 C0 1.34 0 0.68 0 0 Z " fill="#E0E3E2" transform="translate(231,111)"/>
<path d="M0 0 C1.53445094 3.06890187 0.54984289 5.70094266 0 9 C-0.99 9.33 -1.98 9.66 -3 10 C-3.33 8.02 -3.66 6.04 -4 4 C-3.01 4 -2.02 4 -1 4 C-0.67 2.68 -0.34 1.36 0 0 Z " fill="#C9D2CF" transform="translate(87,110)"/>
<path d="M0 0 C0.99 0.495 0.99 0.495 2 1 C2 1.66 2 2.32 2 3 C2.66 3.33 3.32 3.66 4 4 C3.34 4 2.68 4 2 4 C2 5.65 2 7.3 2 9 C2.66 9.33 3.32 9.66 4 10 C2.68 10 1.36 10 0 10 C0 6.7 0 3.4 0 0 Z " fill="#DBDEDD" transform="translate(201,110)"/>
<path d="M0 0 C0.66 0.33 1.32 0.66 2 1 C1.01 2.485 1.01 2.485 0 4 C-0.38499891 5.65549531 -0.72793135 7.3222433 -1 9 C-1.66 9 -2.32 9 -3 9 C-3.1875 5.625 -3.1875 5.625 -3 2 C-2.01 1.34 -1.02 0.68 0 0 Z " fill="#1D1D23" transform="translate(54,67)"/>
<path d="M0 0 C1.98 0 3.96 0 6 0 C6 1.32 6 2.64 6 4 C4.02 4 2.04 4 0 4 C0 2.66666667 0 1.33333333 0 0 Z " fill="#EAF3F0" transform="translate(274,119)"/>
<path d="M0 0 C2.31 0 4.62 0 7 0 C5.68 0.33 4.36 0.66 3 1 C3 1.66 3 2.32 3 3 C4.32 3.33 5.64 3.66 7 4 C5.02 4 3.04 4 1 4 C0.67 2.68 0.34 1.36 0 0 Z " fill="#E9EFEE" transform="translate(246,116)"/>
<path d="M0 0 C1.98 0 3.96 0 6 0 C6.33 0.66 6.66 1.32 7 2 C6.67 2.66 6.34 3.32 6 4 C3.69 4 1.38 4 -1 4 C-1 3.34 -1 2.68 -1 2 C0.65 2 2.3 2 4 2 C2.68 1.34 1.36 0.68 0 0 Z " fill="#ECF0F0" transform="translate(126,116)"/>
<path d="M0 0 C0.33 0 0.66 0 1 0 C1 2.31 1 4.62 1 7 C0.34 7 -0.32 7 -1 7 C-1 6.01 -1 5.02 -1 4 C-2.98 4 -4.96 4 -7 4 C-7 3.67 -7 3.34 -7 3 C-5.5459375 2.814375 -5.5459375 2.814375 -4.0625 2.625 C-2.5465625 2.315625 -2.5465625 2.315625 -1 2 C-0.67 1.34 -0.34 0.68 0 0 Z " fill="#E9F0F0" transform="translate(172,113)"/>
<path d="M0 0 C1.485 0.99 1.485 0.99 3 2 C2.67 3.65 2.34 5.3 2 7 C1.34 7 0.68 7 0 7 C-0.38133299 5.0085944 -0.71325582 3.00720923 -1 1 C-0.67 0.67 -0.34 0.34 0 0 Z " fill="#C1CCC8" transform="translate(119,113)"/>
<path d="M0 0 C0.66 0.66 1.32 1.32 2 2 C1.34 2 0.68 2 0 2 C0 1.34 0 0.68 0 0 Z " fill="#CCD8D6" transform="translate(174,110)"/>
<path d="M0 0 C0.33 0.66 0.66 1.32 1 2 C0.34 1.67 -0.32 1.34 -1 1 C-0.67 0.67 -0.34 0.34 0 0 Z " fill="#B7C2BC" transform="translate(92,110)"/>
<path d="" fill="#FFFFFF" transform="translate(0,0)"/>
</svg>
