<?xml version="1.0" encoding="UTF-8"?>
<svg version="1.1" xmlns="http://www.w3.org/2000/svg" width="314" height="157">
<path d="M0 0 C1.051875 -0.00515625 2.10375 -0.0103125 3.1875 -0.015625 C6 0.25 6 0.25 9 2.25 C9 4.25 9 6.25 9 8.25 C9.98048938 10.31402685 9.98048938 10.31402685 12 11.25 C20.2578479 10.48128637 27.9019241 5.71724047 34 0.25 C34.99 0.745 34.99 0.745 36 1.25 C35.67 1.91 35.34 2.57 35 3.25 C34.34 3.25 33.68 3.25 33 3.25 C33 3.91 33 4.57 33 5.25 C32.34 5.25 31.68 5.25 31 5.25 C31 5.91 31 6.57 31 7.25 C30.34 7.25 29.68 7.25 29 7.25 C28.72905518 7.84256592 28.45811035 8.43513184 28.17895508 9.0456543 C26.27806142 12.59984125 23.49471123 15.20543818 20.6875 18.0625 C20.11837891 18.67287109 19.54925781 19.28324219 18.96289062 19.91210938 C17.37242643 21.53178991 15.87887382 22.97544232 14 24.25 C11.28515625 24.20703125 11.28515625 24.20703125 9 23.25 C2.62521201 21.04334262 -2.61853047 20.66612889 -8.98828125 22.96875 C-13.75135871 25.33498976 -16.17309516 28.41117097 -18 33.25 C-19.72858542 40.39481974 -18.25304639 45.74390722 -15 52.25 C-15.680625 52.91 -16.36125 53.57 -17.0625 54.25 C-20.56725347 57.74468234 -23.77221788 61.50130779 -27 65.25 C-28.921875 64.87890625 -28.921875 64.87890625 -31 64.25 C-32.25 62.1875 -32.25 62.1875 -33 60.25 C-32.34 59.71375 -31.68 59.1775 -31 58.625 C-28.70665444 56.35671278 -28.70665444 56.35671278 -28.6875 53.0625 C-28.69253291 50.34923541 -28.69253291 50.34923541 -30 49.25 C-31.32781878 49.04395915 -32.66295895 48.8837041 -34 48.75 C-37.88888889 48.36111111 -37.88888889 48.36111111 -39 47.25 C-40.2449627 41.38987255 -40.02893016 36.85939516 -38 31.25 C-34.04 30.755 -34.04 30.755 -30 30.25 C-29.20046862 26.96303767 -28.90341064 25.53976808 -30 22.25 C-30.99 21.59 -31.98 20.93 -33 20.25 C-32.25563724 15.22555139 -29.06398484 12.26078559 -25.5 8.875 C-23 7.25 -23 7.25 -20.75 7.3125 C-19 8.25 -19 8.25 -18 11.25 C-13.87412251 11.58517511 -13.87412251 11.58517511 -10.125 10.125 C-8.73739279 8.17675581 -8.73739279 8.17675581 -9 5.1875 C-9 4.218125 -9 3.24875 -9 2.25 C-5.53767506 -0.05821663 -4.08201684 -0.02000989 0 0 Z " fill="#FCFCFC" transform="translate(70,38.75)"/>
<path d="M0 0 C1.9375 0.6875 1.9375 0.6875 4 2 C4.75 4.625 4.75 4.625 5 7 C4.01 7.5878125 4.01 7.5878125 3 8.1875 C0.74530409 9.84473993 0.74530409 9.84473993 0.625 12.5625 C0.78103864 15.17528109 0.78103864 15.17528109 3 17 C4.99956611 17.04165763 7.00043389 17.04165763 9 17 C11 18 11 18 11.61328125 19.78125 C12.01019726 22.05850552 12.16771458 24.18906313 12.1875 26.5 C12.20167969 27.2528125 12.21585937 28.005625 12.23046875 28.78125 C11.96201075 31.365727 11.52795332 32.88796666 10 35 C7.8359375 35.609375 7.8359375 35.609375 5.375 35.75 C4.14910156 35.83507812 4.14910156 35.83507812 2.8984375 35.921875 C1.95871094 35.96054688 1.95871094 35.96054688 1 36 C0.66551741 38.832168 0.66551741 38.832168 1 42 C1.680625 42.680625 2.36125 43.36125 3.0625 44.0625 C5 46 5 46 5.1875 48.3125 C3.19352801 52.82517345 -0.44644979 57.00590573 -5.1171875 58.82421875 C-5.73851562 58.88222656 -6.35984375 58.94023438 -7 59 C-7.598125 58.360625 -8.19625 57.72125 -8.8125 57.0625 C-10.95577873 54.60362182 -10.95577873 54.60362182 -14.75 54.75 C-15.8225 54.8325 -16.895 54.915 -18 55 C-18 57.97 -18 60.94 -18 64 C-22.51492784 66.33028534 -27.01932524 66.60587815 -32 66 C-34.27734375 64.984375 -34.27734375 64.984375 -36 64 C-35.95875 63.071875 -35.9175 62.14375 -35.875 61.1875 C-35.72863661 57.84190281 -35.72863661 57.84190281 -38 55 C-46.55336257 53.93531571 -53.73995437 59.88171151 -60.1875 64.875 C-61.46492463 65.90857299 -62.73842965 66.94713388 -64 68 C-64 63.90243572 -61.87641283 62.39121829 -59.14453125 59.640625 C-58.39655525 58.8776712 -58.39655525 58.8776712 -57.63346863 58.0993042 C-56.57563769 57.02628198 -55.51369253 55.95730262 -54.44799805 54.89208984 C-52.82010714 53.2576378 -51.21769261 51.60075212 -49.61523438 49.94140625 C-48.5848099 48.90217969 -47.55295425 47.86436983 -46.51953125 46.828125 C-46.04224075 46.32927795 -45.56495026 45.83043091 -45.07319641 45.31646729 C-43.67895508 43.95019531 -43.67895508 43.95019531 -41 42 C-38.28881836 42.16040039 -38.28881836 42.16040039 -36 43 C-29.47427409 44.84578014 -24.4829517 45.45948557 -18 43 C-13.6232606 40.24075125 -11.14414342 37.01637811 -9.3125 32.1875 C-8.58507118 27.09549826 -8.36342083 22.91927768 -10.5625 18.25 C-12 15 -12 15 -11.90234375 13.0859375 C-10.59041133 10.05315865 -8.50276815 8.5009309 -6 6.375 C-2.50769762 3.57718343 -2.50769762 3.57718343 0 0 Z " fill="#FCFCFC" transform="translate(97,52)"/>
<path d="M0 0 C0.85142578 -0.020625 1.70285156 -0.04125 2.58007812 -0.0625 C7.73922764 -0.09442049 11.38292187 0.30154053 15.8125 3.25 C18.27061625 6.93717438 18.12368164 8.89345704 17.8125 13.25 C16.8225 14.735 16.8225 14.735 15.8125 16.25 C16.4725 16.95125 17.1325 17.6525 17.8125 18.375 C20.15735971 21.74573583 20.32551839 23.23135598 19.8125 27.25 C18.94631763 30.28163829 18.04831393 31.0936825 15.40234375 32.84765625 C10.51846756 34.75550342 6.18993422 34.61305507 1 34.5 C-0.44922852 34.49226563 -0.44922852 34.49226563 -1.92773438 34.484375 C-9.03301572 34.40448428 -9.03301572 34.40448428 -10.1875 33.25 C-10.2882812 30.88601532 -10.32723215 28.55188689 -10.3203125 26.1875 C-10.32126923 25.48101318 -10.32222595 24.77452637 -10.32321167 24.04663086 C-10.32389333 22.55029207 -10.32204005 21.05395033 -10.31787109 19.55761719 C-10.31252257 17.25969843 -10.31781651 14.96197514 -10.32421875 12.6640625 C-10.32355797 11.21354123 -10.3222768 9.76302009 -10.3203125 8.3125 C-10.32233673 7.6208374 -10.32436096 6.9291748 -10.32644653 6.21655273 C-10.28806348 -1.54442759 -6.7539565 0.03999382 0 0 Z M-3.1875 6.25 C-3.1875 8.89 -3.1875 11.53 -3.1875 14.25 C-1.41700311 14.30410687 0.35396849 14.34284119 2.125 14.375 C3.60419922 14.40980469 3.60419922 14.40980469 5.11328125 14.4453125 C8.03656527 14.45682639 8.03656527 14.45682639 10.8125 12.25 C10.4825 10.6 10.1525 8.95 9.8125 7.25 C6.79759443 6.24503148 4.77068308 6.14664697 1.625 6.1875 C0.72394531 6.19652344 -0.17710937 6.20554687 -1.10546875 6.21484375 C-2.13607422 6.23224609 -2.13607422 6.23224609 -3.1875 6.25 Z M-3.1875 20.25 C-3.1875 22.89 -3.1875 25.53 -3.1875 28.25 C-1.25030622 28.30406122 0.68731921 28.34282025 2.625 28.375 C3.70394531 28.39820313 4.78289062 28.42140625 5.89453125 28.4453125 C9.00652868 28.48023717 9.00652868 28.48023717 11.8125 26.25 C12.06280977 23.66619823 12.06280977 23.66619823 11.8125 21.25 C8.92834117 19.80792059 6.39528472 20.15605113 3.1875 20.1875 C1.40472656 20.20103516 1.40472656 20.20103516 -0.4140625 20.21484375 C-1.78691406 20.23224609 -1.78691406 20.23224609 -3.1875 20.25 Z " fill="#FDFDFD" transform="translate(205.1875,61.75)"/>
<path d="M0 0 C2.24609375 -0.37890625 2.24609375 -0.37890625 5 0 C7.09765625 2.59765625 7.09765625 2.59765625 9.0625 6.0625 C9.40539062 6.65506592 9.74828125 7.24763184 10.1015625 7.8581543 C11.08404558 9.56279046 12.04263125 11.28113335 13 13 C13.83260366 14.43792275 14.6657329 15.87554172 15.5 17.3125 C15.995 18.199375 16.49 19.08625 17 20 C20.27348773 16.14537624 22.75387953 12.15151995 25.1875 7.75 C28.89130435 1.10869565 28.89130435 1.10869565 30 0 C32.5 -0.125 32.5 -0.125 35 0 C36.67673649 1.67673649 36.12787817 3.72855076 36.13894653 5.96655273 C36.1369223 6.65821533 36.13489807 7.34987793 36.1328125 8.0625 C36.13376923 8.76898682 36.13472595 9.47547363 36.13571167 10.20336914 C36.13639333 11.69970793 36.13454005 13.19604967 36.13037109 14.69238281 C36.12502257 16.99030157 36.13031651 19.28802486 36.13671875 21.5859375 C36.13605797 23.03645877 36.1347768 24.48697991 36.1328125 25.9375 C36.13483673 26.6291626 36.13686096 27.3208252 36.13894653 28.03344727 C36.11495224 32.88504776 36.11495224 32.88504776 35 34 C33.02 34 31.04 34 29 34 C28.67 28.06 28.34 22.12 28 16 C25.36 20.62 22.72 25.24 20 30 C18.35 30 16.7 30 15 30 C12.98046875 27.375 12.98046875 27.375 11.1875 24 C10.58292969 22.88625 9.97835937 21.7725 9.35546875 20.625 C8.90816406 19.75875 8.46085938 18.8925 8 18 C6.00383446 19.99616554 6.59016573 23.81701963 6.4375 26.5625 C6.39431641 27.27341797 6.35113281 27.98433594 6.30664062 28.71679688 C6.20028223 30.47761912 6.09961154 32.2387832 6 34 C4.02 34 2.04 34 0 34 C-1.79792257 3.59584514 -1.79792257 3.59584514 0 0 Z " fill="#FDFDFD" transform="translate(234,62)"/>
<path d="M0 0 C1.64453125 0.984375 1.64453125 0.984375 3.89453125 3.234375 C3.89453125 4.554375 3.89453125 5.874375 3.89453125 7.234375 C1.91453125 8.224375 1.91453125 8.224375 -0.10546875 9.234375 C-0.76546875 8.574375 -1.42546875 7.914375 -2.10546875 7.234375 C-6.6664712 6.2461578 -9.05963979 5.86639815 -13.48046875 7.421875 C-16.21532234 9.31022629 -17.20449624 10.08097123 -18.10546875 13.234375 C-18.59638776 17.84901374 -18.0366034 20.59572509 -15.10546875 24.234375 C-10.90696112 26.75347958 -6.85638198 26.39542291 -2.10546875 26.234375 C-2.11707031 25.52410156 -2.12867188 24.81382813 -2.140625 24.08203125 C-2.14964844 23.16292969 -2.15867188 22.24382812 -2.16796875 21.296875 C-2.17957031 20.38035156 -2.19117188 19.46382812 -2.203125 18.51953125 C-2.10546875 16.234375 -2.10546875 16.234375 -1.10546875 15.234375 C1.39453125 15.109375 1.39453125 15.109375 3.89453125 15.234375 C4.89453125 16.234375 4.89453125 16.234375 4.9921875 19.17578125 C4.98058594 20.37074219 4.96898437 21.56570312 4.95703125 22.796875 C4.94800781 23.99441406 4.93898437 25.19195312 4.9296875 26.42578125 C4.91808594 27.35261719 4.90648437 28.27945313 4.89453125 29.234375 C-1.19317568 33.66179822 -6.67062536 34.35996882 -14.10546875 33.234375 C-19.22012419 31.36093557 -23.08540846 28.18242537 -25.4765625 23.25 C-26.98979884 18.40012454 -27.06760657 13.71635 -25.22265625 8.95703125 C-19.96130077 -0.39842534 -10.2081802 -3.71206553 0 0 Z " fill="#FCFCFC" transform="translate(148.10546875,62.765625)"/>
<path d="M0 0 C1.04027344 -0.01417969 2.08054688 -0.02835938 3.15234375 -0.04296875 C6.01296613 0.18357718 7.63920151 0.71016381 10.0625 2.1875 C9.7325 4.1675 9.4025 6.1475 9.0625 8.1875 C8.14726562 8.1153125 7.23203125 8.043125 6.2890625 7.96875 C5.10054687 7.8759375 3.91203125 7.783125 2.6875 7.6875 C1.50414062 7.5946875 0.32078125 7.501875 -0.8984375 7.40625 C-2.57536843 7.28554546 -4.25623056 7.1875 -5.9375 7.1875 C-5.6075 8.8375 -5.2775 10.4875 -4.9375 12.1875 C-4.12925781 12.41824219 -3.32101563 12.64898437 -2.48828125 12.88671875 C8.83180843 16.34146265 8.83180843 16.34146265 12.0625 21.1875 C12.73179633 24.33319275 12.74182572 26.11356595 11 28.8671875 C9.22157681 31.07963063 7.62304352 32.90722824 5.0625 34.1875 C-8.175883 35.13832309 -8.175883 35.13832309 -13.9375 31.1875 C-13.6075 29.2075 -13.2775 27.2275 -12.9375 25.1875 C-11.9475 25.5175 -10.9575 25.8475 -9.9375 26.1875 C-5.4768637 27.46845666 -0.21023753 28.32386877 4.0625 26.1875 C4.0625 25.1975 4.0625 24.2075 4.0625 23.1875 C3.09828125 22.88457031 2.1340625 22.58164063 1.140625 22.26953125 C-0.13570249 21.84721701 -1.41172869 21.42399146 -2.6875 21 C-3.94046875 20.59394531 -5.1934375 20.18789062 -6.484375 19.76953125 C-10.22594529 18.05535029 -11.76204761 16.63599489 -13.9375 13.1875 C-14.53022341 10.09216662 -14.57755599 8.23797357 -12.9140625 5.5078125 C-9.0160519 0.57033241 -6.03220244 0.03728184 0 0 Z " fill="#FCFCFC" transform="translate(174.9375,61.8125)"/>
<path d="M0 0 C0.99 0.33 1.98 0.66 3 1 C5.22574335 1.22451458 7.45581519 1.40782878 9.6875 1.5625 C10.86699219 1.64628906 12.04648438 1.73007813 13.26171875 1.81640625 C14.61716797 1.90728516 14.61716797 1.90728516 16 2 C17.49751334 6.49254002 15.92227034 9.79318529 14 14 C11.0963193 17.59139456 8.54491699 19.99001845 4 21 C-1.47995982 21.24272394 -5.72961152 20.71634732 -10.0625 17.1875 C-12.51669833 14.94118671 -13.42378471 13.27944751 -14 10 C-12.96875 10.804375 -11.9375 11.60875 -10.875 12.4375 C-7.55981143 14.77410881 -5.15960302 16 -1 16 C4.89888826 14.27101551 7.13126037 12.16373133 10 7 C9.31292969 7.16757813 8.62585938 7.33515625 7.91796875 7.5078125 C7.01691406 7.71148437 6.11585937 7.91515625 5.1875 8.125 C4.29417969 8.33382812 3.40085937 8.54265625 2.48046875 8.7578125 C0 9 0 9 -3 7 C-3.375 4.5 -3.375 4.5 -3 2 C-2.01 1.34 -1.02 0.68 0 0 Z " fill="#FBFCFC" transform="translate(69,75)"/>
<path d="M0 0 C4.39777923 0.50743607 8.04163088 2.28063384 11.25 5.375 C11.25 9.375 11.25 9.375 10.25 11.375 C7.25 10.375 7.25 10.375 5.5625 8.375 C2.40682037 5.64576356 -0.68919743 5.15592009 -4.75 5.375 C-8.12806311 6.71347784 -10.73157735 8.36271824 -13.75 10.375 C-13.49706737 6.96040955 -12.49051411 6.12704681 -9.9375 3.6875 C-6.20073808 0.97651586 -4.40610117 0.60083198 0 0 Z " fill="#F5F7F6" transform="translate(69.75,62.625)"/>
<path d="M0 0 C0.66 0 1.32 0 2 0 C0.49939007 5.86602064 -2.0612833 9.15280664 -7.1875 12.375 C-12.34251641 13.5205592 -17.52552242 13.4490184 -22.16796875 10.73046875 C-25.44612384 8.0606311 -27.25234646 6.255164 -28 2 C-26.96875 2.804375 -25.9375 3.60875 -24.875 4.4375 C-20.65850964 7.43834899 -17.30523899 8.35079724 -12.125 7.5625 C-11.42375 7.376875 -10.7225 7.19125 -10 7 C-10 7.99 -10 8.98 -10 10 C-8.35 9.67 -6.7 9.34 -5 9 C-5 8.34 -5 7.68 -5 7 C-4.01 6.34 -3.02 5.68 -2 5 C-0.79549696 2.44816596 -0.79549696 2.44816596 0 0 Z " fill="#EFF3F3" transform="translate(83,83)"/>
<path d="M0 0 C3 1 3 1 4 2 C7.36629251 2.14636054 9.78419562 2.07193479 13 1 C16 1 16 1 19 2 C18.01 2.495 18.01 2.495 17 3 C17 3.66 17 4.32 17 5 C17.66 5.33 18.32 5.66 19 6 C18.01 6.495 18.01 6.495 17 7 C16.01 6.67 15.02 6.34 14 6 C13.01 6.495 13.01 6.495 12 7 C11.01 6.67 10.02 6.34 9 6 C6.3430809 6.87914688 6.3430809 6.87914688 4 8 C3.67 7.34 3.34 6.68 3 6 C1.68 6 0.36 6 -1 6 C-1 3 -1 3 0 0 Z M6 3 C7 5 7 5 7 5 Z " fill="#F0FBF8" transform="translate(120,107)"/>
<path d="M0 0 C0.556875 0.185625 1.11375 0.37125 1.6875 0.5625 C4.03287582 1.15591602 4.03287582 1.15591602 6.5 0.5 C9.16173663 -0.03234733 10.43107563 0.33705178 13 1 C15.18703385 0.62092718 15.18703385 0.62092718 17 0 C17.33 1.65 17.66 3.3 18 5 C17.34 4.34 16.68 3.68 16 3 C15.67 3.66 15.34 4.32 15 5 C10.29353608 6.11827139 5.67783727 6.2757738 1 5 C0.34 5 -0.32 5 -1 5 C-0.67 3.35 -0.34 1.7 0 0 Z " fill="#F4FDFC" transform="translate(210,108)"/>
<path d="M0 0 C1.32 0 2.64 0 4 0 C4.33 0.99 4.66 1.98 5 3 C5.66 2.67 6.32 2.34 7 2 C7 2.66 7 3.32 7 4 C7.66 4 8.32 4 9 4 C9.66 2.68 10.32 1.36 11 0 C11.66 0.33 12.32 0.66 13 1 C13 2.65 13 4.3 13 6 C8.08641143 6.89337974 3.85592571 7.38740735 -1 6 C-1.042721 4.33388095 -1.04063832 2.66617115 -1 1 C-0.67 0.67 -0.34 0.34 0 0 Z " fill="#F7FCFB" transform="translate(154,107)"/>
<path d="M0 0 C0.66 0.33 1.32 0.66 2 1 C-0.29199439 3.70470078 -2.6331639 6.36056669 -5 9 C-5.75667969 9.84820312 -6.51335937 10.69640625 -7.29296875 11.5703125 C-8.06253906 12.39273438 -8.83210938 13.21515625 -9.625 14.0625 C-10.33914062 14.83722656 -11.05328125 15.61195312 -11.7890625 16.41015625 C-14 18 -14 18 -16.7734375 17.74609375 C-17.50820312 17.49988281 -18.24296875 17.25367187 -19 17 C-17.68 16.67 -16.36 16.34 -15 16 C-15 15.34 -15 14.68 -15 14 C-13.49609375 12.51953125 -13.49609375 12.51953125 -11.4375 10.8125 C-7.41324753 7.39798275 -3.67809995 3.78154651 0 0 Z " fill="#F0F4F4" transform="translate(98,45)"/>
<path d="M0 0 C1.72265625 2.02734375 1.72265625 2.02734375 3 4 C2.24976562 3.88140625 1.49953125 3.7628125 0.7265625 3.640625 C-6.65674359 2.71073758 -12.57004156 2.93704714 -19 7 C-20.01723024 8.32023499 -21.02055805 9.65149296 -22 11 C-22.66 11 -23.32 11 -24 11 C-24 8 -24 8 -21.625 5.5 C-15.56170621 0.76662678 -7.53570622 -0.92543761 0 0 Z " fill="#EBECEC" transform="translate(76,57)"/>
<path d="M0 0 C0.7425 0.185625 1.485 0.37125 2.25 0.5625 C4.94990963 0.99203108 6.44631077 0.85122974 9 0 C10.125 4.75 10.125 4.75 9 7 C7.68 7 6.36 7 5 7 C4.67 6.34 4.34 5.68 4 5 C2.35 5 0.7 5 -1 5 C-0.67 3.35 -0.34 1.7 0 0 Z " fill="#ECFAF5" transform="translate(180,108)"/>
<path d="M0 0 C0.66 0 1.32 0 2 0 C2.33 0.66 2.66 1.32 3 2 C3.78375 1.67 4.5675 1.34 5.375 1 C8 0 8 0 10 0 C10 1.98 10 3.96 10 6 C6.33694766 6.74926071 3.57644848 7.2380014 0 6 C0 4.02 0 2.04 0 0 Z M4 3 C5 5 5 5 5 5 Z " fill="#E4F4ED" transform="translate(168,107)"/>
<path d="M0 0 C0.53625 0.268125 1.0725 0.53625 1.625 0.8125 C-0.72108818 4.33163227 -2.60672645 5.04371854 -6.375 6.8125 C-7.365 7.4725 -8.355 8.1325 -9.375 8.8125 C-9.12158809 5.39143924 -8.06717816 4.50467816 -5.5625 2 C-2.375 -0.1875 -2.375 -0.1875 0 0 Z " fill="#E6EAE9" transform="translate(65.375,64.1875)"/>
<path d="M0 0 C0.66 0.33 1.32 0.66 2 1 C1.67 2.65 1.34 4.3 1 6 C-0.65 6.33 -2.3 6.66 -4 7 C-4.33 5.35 -4.66 3.7 -5 2 C-3.68 2 -2.36 2 -1 2 C-0.67 1.34 -0.34 0.68 0 0 Z " fill="#F1FDFC" transform="translate(206,107)"/>
<path d="M0 0 C0.66 0.33 1.32 0.66 2 1 C-0.45094711 6.55548012 -5.01132848 8.95659662 -10 12 C-8.52278578 8.54798361 -6.56205999 6.35038064 -3.875 3.75 C-3.15054688 3.04359375 -2.42609375 2.3371875 -1.6796875 1.609375 C-1.12539063 1.07828125 -0.57109375 0.5471875 0 0 Z " fill="#F3F6F6" transform="translate(42,108)"/>
<path d="M0 0 C1.485 0.99 1.485 0.99 3 2 C3.66 1.34 4.32 0.68 5 0 C6 1 6 1 6.0625 3.5625 C6.041875 4.366875 6.02125 5.17125 6 6 C3.69 6 1.38 6 -1 6 C-1.042721 4.33388095 -1.04063832 2.66617115 -1 1 C-0.67 0.67 -0.34 0.34 0 0 Z " fill="#EEFAF8" transform="translate(194,107)"/>
<path d="M0 0 C1.17219543 0.78345715 2.33763668 1.57702836 3.5 2.375 C4.47453125 3.03628906 4.47453125 3.03628906 5.46875 3.7109375 C5.9740625 4.13632813 6.479375 4.56171875 7 5 C7 5.66 7 6.32 7 7 C7.99 7 8.98 7 10 7 C10 7.99 10 8.98 10 10 C4.98343041 8.5666944 2.98547118 6.09436048 0 2 C0 1.34 0 0.68 0 0 Z " fill="#E4E6E5" transform="translate(55,85)"/>
<path d="M0 0 C1.32 0 2.64 0 4 0 C4 0.66 4 1.32 4 2 C3.01 2 2.02 2 1 2 C1.33 2.66 1.66 3.32 2 4 C2.99 3.67 3.98 3.34 5 3 C4.67 4.32 4.34 5.64 4 7 C2.68 6.67 1.36 6.34 0 6 C-1.125 2.25 -1.125 2.25 0 0 Z " fill="#EAF3F0" transform="translate(99,107)"/>
<path d="M0 0 C0.61875 0.86625 0.61875 0.86625 1.25 1.75 C3.88955125 5.14370875 5.86373451 7.62124484 10 9 C10 9.66 10 10.32 10 11 C6.49047825 10.35008857 3.87602678 9.11917763 1 7 C-0.375 4.4375 -0.375 4.4375 -1 2 C-0.67 1.34 -0.34 0.68 0 0 Z " fill="#F4F5F4" transform="translate(128,80)"/>
<path d="M0 0 C0.66 0 1.32 0 2 0 C2 1.98 2 3.96 2 6 C0.02 6.33 -1.96 6.66 -4 7 C-4.33 6.34 -4.66 5.68 -5 5 C-4.01 4.67 -3.02 4.34 -2 4 C-0.79117904 1.99983534 -0.79117904 1.99983534 0 0 Z " fill="#EAF8F4" transform="translate(176,107)"/>
<path d="M0 0 C1.32 0 2.64 0 4 0 C3.67 1.65 3.34 3.3 3 5 C1.68 5 0.36 5 -1 5 C-0.67 3.35 -0.34 1.7 0 0 Z " fill="#E3F4EC" transform="translate(154,107)"/>
<path d="M0 0 C0.99 0.66 1.98 1.32 3 2 C2.21625 2.433125 1.4325 2.86625 0.625 3.3125 C-2.21698375 4.89220247 -2.21698375 4.89220247 -4 8 C-4.66 8 -5.32 8 -6 8 C-6 5 -6 5 -4.6875 3.61328125 C-3.125 2.40885417 -1.5625 1.20442708 0 0 Z " fill="#F2F3F3" transform="translate(58,60)"/>
<path d="M0 0 C0.99 0.33 1.98 0.66 3 1 C3 2.32 3 3.64 3 5 C2.01 5.33 1.02 5.66 0 6 C-0.38218767 4.34385343 -0.71395102 2.67542976 -1 1 C-0.67 0.67 -0.34 0.34 0 0 Z " fill="#E9F8F5" transform="translate(144,108)"/>
<path d="M0 0 C0.99 0.33 1.98 0.66 3 1 C4.32 1 5.64 1 7 1 C6.01 1.495 6.01 1.495 5 2 C4.67 2.66 4.34 3.32 4 4 C2.35 4 0.7 4 -1 4 C-1.33 3.01 -1.66 2.02 -2 1 C-1.34 0.67 -0.68 0.34 0 0 Z " fill="#E0F4F1" transform="translate(132,108)"/>
<path d="M0 0 C1.32 0 2.64 0 4 0 C3.67 1.65 3.34 3.3 3 5 C2.01 4.67 1.02 4.34 0 4 C-0.33 3.01 -0.66 2.02 -1 1 C-0.67 0.67 -0.34 0.34 0 0 Z " fill="#FEFEFE" transform="translate(245,109)"/>
<path d="M0 0 C1.98 0.495 1.98 0.495 4 1 C4 2.32 4 3.64 4 5 C2.35 5 0.7 5 -1 5 C-0.67 3.35 -0.34 1.7 0 0 Z " fill="#FAFDFD" transform="translate(235,108)"/>
<path d="M0 0 C2.97 0.33 5.94 0.66 9 1 C9.33 1.99 9.66 2.98 10 4 C8.51882199 3.71872579 7.04006751 3.42466268 5.5625 3.125 C4.73878906 2.96257812 3.91507813 2.80015625 3.06640625 2.6328125 C2.38449219 2.42398438 1.70257813 2.21515625 1 2 C0.67 1.34 0.34 0.68 0 0 Z " fill="#EEEFEE" transform="translate(60,96)"/>
<path d="M0 0 C0.66 0 1.32 0 2 0 C2 1.32 2 2.64 2 4 C3.65 4 5.3 4 7 4 C4 6 4 6 1.8125 5.625 C1.214375 5.41875 0.61625 5.2125 0 5 C0 3.35 0 1.7 0 0 Z " fill="#F9FBFA" transform="translate(260,108)"/>
<path d="M0 0 C0.99 0.33 1.98 0.66 3 1 C2.67 2.65 2.34 4.3 2 6 C1.01 5.67 0.02 5.34 -1 5 C-0.67 3.35 -0.34 1.7 0 0 Z " fill="#F6FCFC" transform="translate(230,108)"/>
<path d="M0 0 C0.66 0.33 1.32 0.66 2 1 C2 2.65 2 4.3 2 6 C0.68 6 -0.64 6 -2 6 C-1.49396008 3.83125748 -1.00016187 2.00032373 0 0 Z " fill="#ECF9F6" transform="translate(165,107)"/>
<path d="M0 0 C0.66 0.66 1.32 1.32 2 2 C1.01 2 0.02 2 -1 2 C-1 2.99 -1 3.98 -1 5 C-0.01 5.33 0.98 5.66 2 6 C1.01 6.495 1.01 6.495 0 7 C-0.99 6.34 -1.98 5.68 -3 5 C-2.625 3.0625 -2.625 3.0625 -2 1 C-1.34 0.67 -0.68 0.34 0 0 Z " fill="#FAFCFB" transform="translate(270,107)"/>
<path d="M0 0 C0.66 0 1.32 0 2 0 C2 1.32 2 2.64 2 4 C2.66 4 3.32 4 4 4 C4 4.66 4 5.32 4 6 C2.68 6 1.36 6 0 6 C0 4.02 0 2.04 0 0 Z " fill="#FDFDFD" transform="translate(253,108)"/>
<path d="M0 0 C0.66 0 1.32 0 2 0 C1.67 1.98 1.34 3.96 1 6 C0.34 6 -0.32 6 -1 6 C-1.042721 4.33388095 -1.04063832 2.66617115 -1 1 C-0.67 0.67 -0.34 0.34 0 0 Z " fill="#F2F5F4" transform="translate(114,107)"/>
<path d="M0 0 C0.99 0.33 1.98 0.66 3 1 C2.01 1.33 1.02 1.66 0 2 C0 2.66 0 3.32 0 4 C0.99 4.33 1.98 4.66 3 5 C1.68 5 0.36 5 -1 5 C-0.67 3.35 -0.34 1.7 0 0 Z " fill="#FDFEFD" transform="translate(241,108)"/>
<path d="M0 0 C0.33 0.99 0.66 1.98 1 3 C1.66 3 2.32 3 3 3 C3.33 2.01 3.66 1.02 4 0 C4 1.65 4 3.3 4 5 C2.68 4.67 1.36 4.34 0 4 C0 2.68 0 1.36 0 0 Z " fill="#F9FDFC" transform="translate(105,109)"/>
<path d="M0 0 C0.66 0 1.32 0 2 0 C2 1.98 2 3.96 2 6 C1.34 6 0.68 6 0 6 C0 4.02 0 2.04 0 0 Z " fill="#E5F1F1" transform="translate(140,107)"/>
<path d="M0 0 C0.33 0 0.66 0 1 0 C1 1.98 1 3.96 1 6 C0.67 6 0.34 6 0 6 C0 4.02 0 2.04 0 0 Z " fill="#F4F8F7" transform="translate(148,107)"/>
<path d="M0 0 C0.33 0 0.66 0 1 0 C1 1.98 1 3.96 1 6 C0.67 6 0.34 6 0 6 C0 4.02 0 2.04 0 0 Z " fill="#FBFDFC" transform="translate(111,107)"/>
<path d="" fill="#FFFFFF" transform="translate(0,0)"/>
<path d="" fill="#FFFFFF" transform="translate(0,0)"/>
<path d="" fill="#FFFFFF" transform="translate(0,0)"/>
<path d="" fill="#FFFFFF" transform="translate(0,0)"/>
<path d="" fill="#FFFFFF" transform="translate(0,0)"/>
<path d="" fill="#FFFFFF" transform="translate(0,0)"/>
<path d="" fill="#FFFFFF" transform="translate(0,0)"/>
<path d="" fill="#FFFFFF" transform="translate(0,0)"/>
<path d="" fill="#FFFFFF" transform="translate(0,0)"/>
</svg>
