<?xml version="1.0" encoding="UTF-8"?>
<svg version="1.1" xmlns="http://www.w3.org/2000/svg" width="387" height="95">
<path d="M0 0 C0.98484375 0.01804687 1.9696875 0.03609375 2.984375 0.0546875 C4.10585937 0.08949219 4.10585937 0.08949219 5.25 0.125 C5.25 1.445 5.25 2.765 5.25 4.125 C2.75 5.875 2.75 5.875 0.25 7.125 C3.22 8.115 6.19 9.105 9.25 10.125 C9.25 10.785 9.25 11.445 9.25 12.125 C7.27 11.795 5.29 11.465 3.25 11.125 C3.25 12.115 3.25 13.105 3.25 14.125 C4.3225 14.08375 5.395 14.0425 6.5 14 C9.90747485 14.1135825 11.45739631 14.33773364 14.25 16.125 C14.25 17.115 14.25 18.105 14.25 19.125 C12.27 19.785 10.29 20.445 8.25 21.125 C7.73655879 28.21334112 8.33414968 32.19189346 12.25 38.125 C13 40.5625 13 40.5625 13.25 42.125 C9.56197956 40.89565985 8.52643027 39.18640622 6.25 36.125 C5.59 37.775 4.93 39.425 4.25 41.125 C5.24 41.90875 6.23 42.6925 7.25 43.5 C8.24 44.36625 9.23 45.2325 10.25 46.125 C10.25 46.785 10.25 47.445 10.25 48.125 C7.17463146 47.46599246 5.17264434 46.58632217 2.25 45.125 C1.26 48.095 0.27 51.065 -0.75 54.125 C-4.75 53.125 -4.75 53.125 -6.75 51.125 C-7.925625 51.640625 -9.10125 52.15625 -10.3125 52.6875 C-14.5067062 54.24090971 -17.36225382 54.34381838 -21.75 53.125 C-26.65909091 50.21590909 -26.65909091 50.21590909 -28.75 48.125 C-29.74 50.6 -29.74 50.6 -30.75 53.125 C-31.74 53.125 -32.73 53.125 -33.75 53.125 C-33.8325 52.50625 -33.915 51.8875 -34 51.25 C-34.56258459 48.94062433 -34.56258459 48.94062433 -36.8125 47.875 C-37.451875 47.6275 -38.09125 47.38 -38.75 47.125 C-39.74 47.785 -40.73 48.445 -41.75 49.125 C-42.41 49.125 -43.07 49.125 -43.75 49.125 C-43.75 49.785 -43.75 50.445 -43.75 51.125 C-46.225 51.62 -46.225 51.62 -48.75 52.125 C-48.5625 49.8125 -48.5625 49.8125 -47.75 47.125 C-43.71551724 44.125 -43.71551724 44.125 -40.75 44.125 C-40.58322718 40.70843976 -40.58322718 40.70843976 -40.75 37.125 C-41.41 36.465 -42.07 35.805 -42.75 35.125 C-42.87152524 27.97526508 -41.76198027 20.96573292 -39.75 14.125 C-40.8946875 14.62 -40.8946875 14.62 -42.0625 15.125 C-44.75 16.125 -44.75 16.125 -47.75 16.125 C-47.75 15.465 -47.75 14.805 -47.75 14.125 C-47.11191406 13.85945313 -46.47382812 13.59390625 -45.81640625 13.3203125 C-44.99011719 12.96710937 -44.16382813 12.61390625 -43.3125 12.25 C-42.48878906 11.90195312 -41.66507813 11.55390625 -40.81640625 11.1953125 C-38.59253285 10.3005063 -38.59253285 10.3005063 -37.75 8.125 C-38.925625 7.939375 -38.925625 7.939375 -40.125 7.75 C-42.75 7.125 -42.75 7.125 -44.75 5.125 C-43.39567321 5.26933868 -42.04154775 5.41556661 -40.6875 5.5625 C-39.93339844 5.64371094 -39.17929687 5.72492187 -38.40234375 5.80859375 C-35.17797304 6.19323886 -31.96459609 6.66577199 -28.75 7.125 C-33.37 5.805 -37.99 4.485 -42.75 3.125 C-42.75 2.795 -42.75 2.465 -42.75 2.125 C-35.84647445 1.61362774 -31.00172386 3.25535626 -24.75 6.125 C-25.08 7.445 -25.41 8.765 -25.75 10.125 C-29.05 9.795 -32.35 9.465 -35.75 9.125 C-36.41 12.425 -37.07 15.725 -37.75 19.125 C-36.1 19.125 -34.45 19.125 -32.75 19.125 C-32.5334375 17.701875 -32.5334375 17.701875 -32.3125 16.25 C-31.75 13.125 -31.75 13.125 -30.75 11.125 C-29.33376784 11.07052953 -27.91691809 11.03199492 -26.5 11 C-25.71109375 10.97679687 -24.9221875 10.95359375 -24.109375 10.9296875 C-21.48033049 11.14732364 -19.93951811 11.66209188 -17.75 13.125 C-17.42 14.115 -17.09 15.105 -16.75 16.125 C-17.08 16.785 -17.41 17.445 -17.75 18.125 C-17.09 18.125 -16.43 18.125 -15.75 18.125 C-15.6675 17.34125 -15.585 16.5575 -15.5 15.75 C-14.75 13.125 -14.75 13.125 -13.1875 11.8125 C-9.64342826 10.81289002 -6.42781281 11.00240624 -2.75 11.125 C-2.255 13.105 -2.255 13.105 -1.75 15.125 C-1.09 15.125 -0.43 15.125 0.25 15.125 C0.25 13.475 0.25 11.825 0.25 10.125 C-0.74 10.125 -1.73 10.125 -2.75 10.125 C-2.75 9.135 -2.75 8.145 -2.75 7.125 C-3.69875 7.145625 -4.6475 7.16625 -5.625 7.1875 C-8.75 7.125 -8.75 7.125 -10.75 6.125 C-10.5 4.25 -10.5 4.25 -9.75 2.125 C-6.51286374 -0.03309084 -3.82462761 -0.09106256 0 0 Z M-6.75 3.125 C-6.75 3.455 -6.75 3.785 -6.75 4.125 C-4.44 4.125 -2.13 4.125 0.25 4.125 C0.25 3.795 0.25 3.465 0.25 3.125 C-2.06 3.125 -4.37 3.125 -6.75 3.125 Z M-29.75 16.125 C-29.75 16.785 -29.75 17.445 -29.75 18.125 C-29.09 18.125 -28.43 18.125 -27.75 18.125 C-27.75 17.465 -27.75 16.805 -27.75 16.125 C-28.41 16.125 -29.07 16.125 -29.75 16.125 Z M-26.75 16.125 C-27.08 17.115 -27.41 18.105 -27.75 19.125 C-26.76 19.455 -25.77 19.785 -24.75 20.125 C-24.09 19.465 -23.43 18.805 -22.75 18.125 C-23.08 17.465 -23.41 16.805 -23.75 16.125 C-24.74 16.125 -25.73 16.125 -26.75 16.125 Z M-21.75 17.125 C-22.08 18.445 -22.41 19.765 -22.75 21.125 C-22.09 21.125 -21.43 21.125 -20.75 21.125 C-20.42 19.805 -20.09 18.485 -19.75 17.125 C-20.41 17.125 -21.07 17.125 -21.75 17.125 Z M-4.75 15.125 C-4.75 15.785 -4.75 16.445 -4.75 17.125 C-5.3275 16.91875 -5.905 16.7125 -6.5 16.5 C-9.26967567 16.03838739 -10.39561267 16.69555055 -12.75 18.125 C-12.42 19.115 -12.09 20.105 -11.75 21.125 C-7.67035719 19.82344994 -7.67035719 19.82344994 -3.75 18.125 C-4.08 17.135 -4.41 16.145 -4.75 15.125 Z M3.25 20.125 C3.58 22.105 3.91 24.085 4.25 26.125 C4.58 26.125 4.91 26.125 5.25 26.125 C5.25 24.475 5.25 22.825 5.25 21.125 C4.59 20.795 3.93 20.465 3.25 20.125 Z M0.25 21.125 C0.25 24.125 0.25 24.125 0.25 24.125 Z M-38.75 23.125 C-38.75 26.095 -38.75 29.065 -38.75 32.125 C-37.76 31.795 -36.77 31.465 -35.75 31.125 C-35.75 31.785 -35.75 32.445 -35.75 33.125 C-34.986875 32.939375 -34.22375 32.75375 -33.4375 32.5625 C-30.75 32.125 -30.75 32.125 -27.75 33.125 C-25.49837398 30.37028606 -25.49837398 30.37028606 -25.8125 27.5625 C-26.53636273 24.94178105 -26.53636273 24.94178105 -29 23.75 C-32.00677719 23.06664155 -33.79164874 23.40540104 -36.75 24.125 C-37.41 23.795 -38.07 23.465 -38.75 23.125 Z M-3.75 28.125 C-4.08 28.785 -4.41 29.445 -4.75 30.125 C-3.76 29.795 -2.77 29.465 -1.75 29.125 C-2.41 28.795 -3.07 28.465 -3.75 28.125 Z M1.25 28.125 C2.25 30.125 2.25 30.125 2.25 30.125 Z M-23.6875 33.125 C-25.98136937 36.46153726 -26.5045711 38.22462386 -26.234375 42.1875 C-25.36901083 45.64895669 -23.60801731 47.13681405 -20.75 49.125 C-17.19127844 49.71812026 -15.30179633 49.36327569 -12 47.9375 C-9.30814848 45.76906405 -8.53085977 44.48269699 -7.75 41.125 C-7.82904824 37.25163609 -8.2766911 35.6539923 -10.875 32.75 C-15.70284 30.02122087 -19.08356113 29.99040332 -23.6875 33.125 Z M-37.75 37.125 C-38.08397787 39.99913125 -38.08397787 39.99913125 -37.75 43.125 C-36.05835778 45.16529596 -36.05835778 45.16529596 -33.75 46.125 C-32.76 45.795 -31.77 45.465 -30.75 45.125 C-30.75 42.815 -30.75 40.505 -30.75 38.125 C-33.06 37.795 -35.37 37.465 -37.75 37.125 Z " fill="#F2F6F6" transform="translate(51.75,20.875)"/>
<path d="M0 0 C2.625 0.1875 2.625 0.1875 5.625 2.1875 C6.615 1.5275 7.605 0.8675 8.625 0.1875 C12.16723486 0.50377097 15.25144274 1.06298091 18.625 2.1875 C19.2025 1.8575 19.78 1.5275 20.375 1.1875 C23.71965813 -0.29901472 26.13463998 0.34722814 29.625 1.1875 C34.15711677 7.98567515 32.76307916 18.25561923 32.625 26.1875 C29.8125 26.8125 29.8125 26.8125 26.625 27.1875 C25.635 26.5275 24.645 25.8675 23.625 25.1875 C23.18359375 22.21875 23.18359375 22.21875 23.0625 18.6875 C23.15623222 13.89343045 23.15623222 13.89343045 20.625 10.1875 C21.285 10.1875 21.945 10.1875 22.625 10.1875 C22.625 9.5275 22.625 8.8675 22.625 8.1875 C21.635 8.1875 20.645 8.1875 19.625 8.1875 C19.64820313 9.30769531 19.67140625 10.42789063 19.6953125 11.58203125 C19.71407237 13.05468084 19.73227234 14.52733763 19.75 16 C19.76675781 16.73798828 19.78351563 17.47597656 19.80078125 18.23632812 C19.83574628 22.09996426 19.81897555 23.89653668 17.625 27.1875 C14.5625 27.4375 14.5625 27.4375 11.625 27.1875 C9.56577598 25.12827598 10.21072421 20.97041876 10.0625 18.125 C10.01931641 17.36638672 9.97613281 16.60777344 9.93164062 15.82617188 C9.82526367 13.94684562 9.72460066 12.06719756 9.625 10.1875 C8.635 9.8575 7.645 9.5275 6.625 9.1875 C6.57601562 10.31929687 6.52703125 11.45109375 6.4765625 12.6171875 C6.40153486 14.09898339 6.32598703 15.580753 6.25 17.0625 C6.2190625 17.80886719 6.188125 18.55523437 6.15625 19.32421875 C5.8515625 24.9609375 5.8515625 24.9609375 3.625 27.1875 C1.125 27.4375 1.125 27.4375 -1.375 27.1875 C-3.375 25.1875 -3.375 25.1875 -3.61791992 22.77319336 C-3.61381104 21.78456299 -3.60970215 20.79593262 -3.60546875 19.77734375 C-3.60353516 18.70548828 -3.60160156 17.63363281 -3.59960938 16.52929688 C-3.58736328 15.40587891 -3.57511719 14.28246094 -3.5625 13.125 C-3.56185547 11.99771484 -3.56121094 10.87042969 -3.56054688 9.70898438 C-3.50944073 0.27706111 -3.50944073 0.27706111 0 0 Z " fill="#FCFCFC" transform="translate(217.375,36.8125)"/>
<path d="M0 0 C0.33 2.31 0.66 4.62 1 7 C2.32 6.67 3.64 6.34 5 6 C6.0625 8.375 6.0625 8.375 7 11 C6.67 11.66 6.34 12.32 6 13 C4.35 13 2.7 13 1 13 C1.25345016 18.9307337 1.55506637 21.84183629 6 26 C6.25 29.25 6.25 29.25 6 32 C2.93570224 33.53214888 0.3834358 33.22938548 -3 33 C-6.40012406 31.63995037 -7.64010998 30.70264242 -9.3125 27.4375 C-10.21579491 22.92102545 -10.16323321 18.58866699 -10 14 C-10.99 14 -11.98 14 -13 14 C-12.97679687 15.20398438 -12.95359375 16.40796875 -12.9296875 17.6484375 C-12.91093137 19.22395215 -12.89273101 20.79947348 -12.875 22.375 C-12.84986328 23.56609375 -12.84986328 23.56609375 -12.82421875 24.78125 C-12.80664527 26.85492015 -12.89664832 28.92883241 -13 31 C-15 33 -15 33 -18.0625 33.1875 C-21 33 -21 33 -22 32 C-22.15620555 30.58672053 -22.25056173 29.1664541 -22.31640625 27.74609375 C-22.35830078 26.89208984 -22.40019531 26.03808594 -22.44335938 25.15820312 C-22.48267578 24.26037109 -22.52199219 23.36253906 -22.5625 22.4375 C-22.62727539 21.08495117 -22.62727539 21.08495117 -22.69335938 19.70507812 C-22.79978142 17.47021515 -22.90179988 15.23523692 -23 13 C-23.99 13 -24.98 13 -26 13 C-26.125 10.625 -26.125 10.625 -26 8 C-24 6 -24 6 -21.1875 5.6875 C-17.67774407 6.03159372 -15.85135899 6.98727601 -13 9 C-12.67 8.34 -12.34 7.68 -12 7 C-10.68 7 -9.36 7 -8 7 C-7.67 4.69 -7.34 2.38 -7 0 C-3.98968256 -0.93423645 -3.13349732 -1.04449911 0 0 Z " fill="#FAFBFB" transform="translate(302,31)"/>
<path d="M0 0 C0.98484375 0.01804687 1.9696875 0.03609375 2.984375 0.0546875 C4.10585938 0.08949219 4.10585938 0.08949219 5.25 0.125 C5.25 1.445 5.25 2.765 5.25 4.125 C2.75 5.875 2.75 5.875 0.25 7.125 C3.22 8.115 6.19 9.105 9.25 10.125 C9.25 10.785 9.25 11.445 9.25 12.125 C6.28 11.63 6.28 11.63 3.25 11.125 C3.25 12.115 3.25 13.105 3.25 14.125 C4.3225 14.08375 5.395 14.0425 6.5 14 C9.90747485 14.1135825 11.45739631 14.33773364 14.25 16.125 C14.25 17.115 14.25 18.105 14.25 19.125 C12.27 19.785 10.29 20.445 8.25 21.125 C7.73655879 28.21334112 8.33414968 32.19189346 12.25 38.125 C13 40.5625 13 40.5625 13.25 42.125 C9.56197956 40.89565985 8.52643027 39.18640622 6.25 36.125 C5.26 38.6 5.26 38.6 4.25 41.125 C5.24 41.90875 6.23 42.6925 7.25 43.5 C8.24 44.36625 9.23 45.2325 10.25 46.125 C10.25 46.785 10.25 47.445 10.25 48.125 C7.32120629 47.49740135 4.88904371 46.53877341 2.25 45.125 C1.92 46.115 1.59 47.105 1.25 48.125 C0.26 48.125 -0.73 48.125 -1.75 48.125 C-1.75 46.805 -1.75 45.485 -1.75 44.125 C-2.41 44.125 -3.07 44.125 -3.75 44.125 C-3.75 41.155 -3.75 38.185 -3.75 35.125 C-2.76 35.125 -1.77 35.125 -0.75 35.125 C-1.41 33.805 -2.07 32.485 -2.75 31.125 C-2.09 30.795 -1.43 30.465 -0.75 30.125 C-1.41 29.465 -2.07 28.805 -2.75 28.125 C-1.76 28.125 -0.77 28.125 0.25 28.125 C-0.08 27.465 -0.41 26.805 -0.75 26.125 C-1.41 26.125 -2.07 26.125 -2.75 26.125 C-2.75 25.135 -2.75 24.145 -2.75 23.125 C-3.513125 23.95 -4.27625 24.775 -5.0625 25.625 C-8.17508031 28.52042354 -8.79170907 28.125 -12.75 28.125 C-12.75 27.465 -12.75 26.805 -12.75 26.125 C-16.71 26.62 -16.71 26.62 -20.75 27.125 C-20.09 25.145 -19.43 23.165 -18.75 21.125 C-18.09 21.125 -17.43 21.125 -16.75 21.125 C-17.41 20.465 -18.07 19.805 -18.75 19.125 C-17.76 18.795 -16.77 18.465 -15.75 18.125 C-15.6675 17.34125 -15.585 16.5575 -15.5 15.75 C-14.75 13.125 -14.75 13.125 -13.1875 11.8125 C-9.64342826 10.81289002 -6.42781281 11.00240624 -2.75 11.125 C-2.42 12.445 -2.09 13.765 -1.75 15.125 C-1.09 15.125 -0.43 15.125 0.25 15.125 C0.25 13.475 0.25 11.825 0.25 10.125 C-0.74 10.125 -1.73 10.125 -2.75 10.125 C-2.75 9.135 -2.75 8.145 -2.75 7.125 C-3.69875 7.145625 -4.6475 7.16625 -5.625 7.1875 C-8.75 7.125 -8.75 7.125 -10.75 6.125 C-10.5 4.25 -10.5 4.25 -9.75 2.125 C-6.51286374 -0.03309084 -3.82462761 -0.09106256 0 0 Z M-6.75 3.125 C-6.75 3.455 -6.75 3.785 -6.75 4.125 C-4.44 4.125 -2.13 4.125 0.25 4.125 C0.25 3.795 0.25 3.465 0.25 3.125 C-2.06 3.125 -4.37 3.125 -6.75 3.125 Z M-4.75 15.125 C-4.75 15.785 -4.75 16.445 -4.75 17.125 C-5.3275 16.91875 -5.905 16.7125 -6.5 16.5 C-9.26967567 16.03838739 -10.39561267 16.69555055 -12.75 18.125 C-12.42 19.115 -12.09 20.105 -11.75 21.125 C-7.67035719 19.82344994 -7.67035719 19.82344994 -3.75 18.125 C-4.08 17.135 -4.41 16.145 -4.75 15.125 Z M3.25 20.125 C3.58 22.105 3.91 24.085 4.25 26.125 C4.58 26.125 4.91 26.125 5.25 26.125 C5.25 24.475 5.25 22.825 5.25 21.125 C4.59 20.795 3.93 20.465 3.25 20.125 Z M0.25 21.125 C0.25 24.125 0.25 24.125 0.25 24.125 Z M1.25 28.125 C2.25 30.125 2.25 30.125 2.25 30.125 Z " fill="#F6FAFA" transform="translate(51.75,20.875)"/>
<path d="M0 0 C3.6875 1.5 3.6875 1.5 6 3 C5.67 4.65 5.34 6.3 5 8 C1.01803543 9.05404945 -1.98195309 8.84098656 -6 8 C-5.87255152 9.91136161 -5.87255152 9.91136161 -5 12 C-2.76807784 13.68345519 -2.76807784 13.68345519 -0.0625 15.0625 C3.33879989 16.90752167 4.81359584 17.72039377 7 21 C7.66799205 27.90258449 7.66799205 27.90258449 5.25 31.875 C0.68287153 36.18839911 -3.12412362 36.35951359 -9.2265625 36.26953125 C-13.02189456 35.90068912 -15.65225099 34.78546614 -19 33 C-19.125 30.625 -19.125 30.625 -19 28 C-18.34 27.34 -17.68 26.68 -17 26 C-13.7421875 26.2421875 -13.7421875 26.2421875 -9.875 26.875 C-8.59367187 27.07867187 -7.31234375 27.28234375 -5.9921875 27.4921875 C-5.00476563 27.65976562 -4.01734375 27.82734375 -3 28 C-3.04521971 26.08019275 -3.04521971 26.08019275 -4 24 C-6.69454166 22.30318242 -6.69454166 22.30318242 -9.9375 20.9375 C-15.79693704 18.30459444 -15.79693704 18.30459444 -18 15 C-18.54531842 11.93473649 -18.54325893 9.06591671 -18 6 C-12.79029771 -0.58067658 -7.97133242 -0.67268628 0 0 Z M-8 7 C-8.33 8.32 -8.66 9.64 -9 11 C-8.34 9.68 -7.68 8.36 -7 7 C-7.33 7 -7.66 7 -8 7 Z " fill="#F9FAF9" transform="translate(96,28)"/>
<path d="M0 0 C3.5 0.125 3.5 0.125 4.5 1.125 C4.73363881 2.97391946 4.91303635 4.82988031 5.0625 6.6875 C5.14628906 7.69941406 5.23007813 8.71132813 5.31640625 9.75390625 C5.37699219 10.53636719 5.43757812 11.31882812 5.5 12.125 C6.7375 11.8775 7.975 11.63 9.25 11.375 C13.15728993 10.87016431 13.15728993 10.87016431 15.9375 12.9375 C18.98859806 17.20903728 18.92337828 20.94409864 19.25 26.0625 C19.35248047 27.2990332 19.35248047 27.2990332 19.45703125 28.56054688 C19.53244141 29.75067383 19.53244141 29.75067383 19.609375 30.96484375 C19.66061523 31.69050537 19.71185547 32.41616699 19.76464844 33.16381836 C19.42308774 35.69495958 18.42565013 36.52585399 16.5 38.125 C14.47954558 37.52316251 12.47888961 36.85193904 10.5 36.125 C9.11773984 33.36047967 9.40474613 31.0788637 9.4375 28 C9.44652344 26.90429688 9.45554688 25.80859375 9.46484375 24.6796875 C9.47644531 23.83664063 9.48804688 22.99359375 9.5 22.125 C8.18 22.125 6.86 22.125 5.5 22.125 C5.520625 23.300625 5.54125 24.47625 5.5625 25.6875 C5.5625 29.57679881 5.20404476 33.2918674 4.5 37.125 C3.5 38.125 3.5 38.125 0.5625 38.375 C-0.448125 38.2925 -1.45875 38.21 -2.5 38.125 C-4.95198633 34.44702051 -4.77259068 31.68019479 -4.73046875 27.4296875 C-4.73001053 26.68163849 -4.72955231 25.93358948 -4.7290802 25.16287231 C-4.72606246 23.58431407 -4.71819041 22.00575868 -4.70581055 20.42724609 C-4.68751639 18.00217227 -4.68530117 15.57747947 -4.68554688 13.15234375 C-4.68063298 11.61978834 -4.67480522 10.08723554 -4.66796875 8.5546875 C-4.66685593 7.82555145 -4.6657431 7.09641541 -4.66459656 6.34518433 C-4.60582605 0.16449379 -4.60582605 0.16449379 0 0 Z M4.5 20.125 C4.83 20.785 5.16 21.445 5.5 22.125 C5.83 21.465 6.16 20.805 6.5 20.125 C5.84 20.125 5.18 20.125 4.5 20.125 Z " fill="#FBFBFB" transform="translate(163.5,25.875)"/>
<path d="M0 0 C5.75 -0.125 5.75 -0.125 8 1 C8.33 6.61 8.66 12.22 9 18 C10.22294351 16.84622456 10.22294351 16.84622456 11.625 14.5 C14.64920941 11.31662167 16.71058259 11.24746639 21 11 C21.33 11.66 21.66 12.32 22 13 C21.15234375 14.76953125 21.15234375 14.76953125 19.9375 16.8125 C18.14118125 20.08963102 18.14118125 20.08963102 18.625 23.75 C19.305625 24.86375 19.305625 24.86375 20 26 C20.33 26.7425 20.66 27.485 21 28.25 C21.88443746 30.17334381 21.88443746 30.17334381 24 31 C23.34 32.98 22.68 34.96 22 37 C19.03 37.495 19.03 37.495 16 38 C12 32.25 12 32.25 12 30 C11.34 29.67 10.68 29.34 10 29 C8.03177114 30.96822886 8.33751619 34.34808709 8 37 C5.1875 37.6875 5.1875 37.6875 2 38 C-0.59230504 36.21220342 -0.98667605 35.03997185 -2 32 C-2.66407974 21.23573077 -1.35318923 10.65636517 0 0 Z " fill="#FCFCFC" transform="translate(134,26)"/>
<path d="M0 0 C0.99 4.29 1.98 8.58 3 13 C4.99977858 11.00022142 4.43532807 7.15670096 4.62109375 4.4453125 C5 2 5 2 7 -1 C10.625 -1.1875 10.625 -1.1875 14 -1 C14 2.96 14 6.92 14 11 C14.66 11 15.32 11 16 11 C16.08107583 12.93681161 16.13922475 14.8745934 16.1875 16.8125 C16.23970703 18.43091797 16.23970703 18.43091797 16.29296875 20.08203125 C16 23 16 23 14.48828125 24.88671875 C13.99714844 25.25410156 13.50601563 25.62148438 13 26 C11.9275 25.62875 10.855 25.2575 9.75 24.875 C5.63292599 23.9143494 5.40972803 24.13014915 2 26 C-1.18351958 25.80509064 -3.24920177 25.56957107 -5.8125 23.625 C-8.72886606 19.63418329 -8.44594077 14.68008235 -8.75 9.9375 C-8.81832031 9.10927734 -8.88664062 8.28105469 -8.95703125 7.42773438 C-9.00730469 6.63560547 -9.05757813 5.84347656 -9.109375 5.02734375 C-9.16061523 4.30281006 -9.21185547 3.57827637 -9.26464844 2.83178711 C-9.17731445 2.22729736 -9.08998047 1.62280762 -9 1 C-6 -1 -6 -1 0 0 Z " fill="#FBFBFB" transform="translate(114,38)"/>
<path d="M0 0 C3.70376964 3.83604713 3.46847837 8.61884294 3.69140625 13.671875 C3.79324219 14.44015625 3.89507812 15.2084375 4 16 C4.66 16.33 5.32 16.66 6 17 C6.33 17.33 6.66 17.66 7 18 C6.97679687 16.86820313 6.95359375 15.73640625 6.9296875 14.5703125 C6.91093099 13.08854825 6.89273066 11.60677688 6.875 10.125 C6.85824219 9.37863281 6.84148437 8.63226563 6.82421875 7.86328125 C6.8066041 5.90805539 6.89679811 3.95257979 7 2 C9 0 9 0 12.0625 -0.1875 C15 0 15 0 16 1 C16.15764405 2.77869726 16.25100677 4.56318476 16.31640625 6.34765625 C16.35830078 7.42724609 16.40019531 8.50683594 16.44335938 9.61914062 C16.48267578 10.75544922 16.52199219 11.89175781 16.5625 13.0625 C16.60568359 14.20267578 16.64886719 15.34285156 16.69335938 16.51757812 C16.79982839 19.34492195 16.90184207 22.17235738 17 25 C15.1640625 26.05859375 15.1640625 26.05859375 13 27 C10.375 26.0625 10.375 26.0625 8 25 C7.34 25.33 6.68 25.66 6 26 C3.94140625 26.23828125 3.94140625 26.23828125 1.5625 26.3125 C0.38880859 26.36857422 0.38880859 26.36857422 -0.80859375 26.42578125 C-3 26 -3 26 -4.60498047 24.28491211 C-6.21412864 21.64927722 -6.41826506 20.0809061 -6.51171875 17.015625 C-6.54716797 16.08105469 -6.58261719 15.14648438 -6.61914062 14.18359375 C-6.64169922 13.21550781 -6.66425781 12.24742188 -6.6875 11.25 C-6.72166016 10.26644531 -6.75582031 9.28289063 -6.79101562 8.26953125 C-6.87335273 5.84646801 -6.94254838 3.42376002 -7 1 C-4.39722303 -0.30138849 -2.88185107 -0.4217343 0 0 Z " fill="#FDFDFD" transform="translate(193,37)"/>
<path d="M0 0 C1.49206121 2.98412242 1.14224377 6.03737472 1.1328125 9.30859375 C1.13424759 10.3923806 1.13424759 10.3923806 1.13571167 11.49806213 C1.13639252 13.02711067 1.13454486 14.55616209 1.13037109 16.08520508 C1.12502921 18.42470817 1.13031524 20.76401859 1.13671875 23.10351562 C1.1360578 24.58854209 1.13477629 26.07356844 1.1328125 27.55859375 C1.13483673 28.2586705 1.13686096 28.95874725 1.13894653 29.68003845 C1.12423541 32.73226783 0.97335025 35.07994925 0 38 C-6.15234375 38.09765625 -6.15234375 38.09765625 -8 38 C-9 37 -9 37 -9.11352539 34.86694336 C-9.10828857 33.95050049 -9.10305176 33.03405762 -9.09765625 32.08984375 C-9.09443359 31.10048828 -9.09121094 30.11113281 -9.08789062 29.09179688 C-9.07951172 28.05087891 -9.07113281 27.00996094 -9.0625 25.9375 C-9.05798828 24.89271484 -9.05347656 23.84792969 -9.04882812 22.77148438 C-9.03699913 20.1809334 -9.02051689 17.59049441 -9 15 C-9.99 15 -10.98 15 -12 15 C-12 14.34 -12 13.68 -12 13 C-12.78375 13.20625 -13.5675 13.4125 -14.375 13.625 C-15.24125 13.74875 -16.1075 13.8725 -17 14 C-19 12 -19 12 -19.45703125 9.609375 C-19 7 -19 7 -16.69921875 5.015625 C-15.70535156 4.43296875 -14.71148437 3.8503125 -13.6875 3.25 C-12.70136719 2.65703125 -11.71523438 2.0640625 -10.69921875 1.453125 C-6.65073724 -0.7263759 -4.41429024 -1.27782086 0 0 Z " fill="#F8F9F8" transform="translate(362,27)"/>
<path d="M0 0 C1 1 1 1 1.11352539 4.51000977 C1.11336626 6.07048422 1.10767142 7.63096393 1.09765625 9.19140625 C1.0962413 10.01124496 1.09482635 10.83108368 1.09336853 11.67576599 C1.08775289 14.30471382 1.07519779 16.93357773 1.0625 19.5625 C1.05748701 21.34049357 1.05292376 23.11848846 1.04882812 24.89648438 C1.03777839 29.26435545 1.02050331 33.63216348 1 38 C-5.15234375 38.09765625 -5.15234375 38.09765625 -7 38 C-8.68300669 36.31699331 -8.22809077 34.17991273 -8.31640625 31.87109375 C-8.35830078 30.83662109 -8.40019531 29.80214844 -8.44335938 28.73632812 C-8.48267578 27.64771484 -8.52199219 26.55910156 -8.5625 25.4375 C-8.60568359 24.34501953 -8.64886719 23.25253906 -8.69335938 22.12695312 C-8.79982068 19.41810436 -8.90183516 16.70916008 -9 14 C-10.11503906 14.0515625 -11.23007812 14.103125 -12.37890625 14.15625 C-13.57386719 14.1046875 -14.76882813 14.053125 -16 14 C-17.9375 11.5 -17.9375 11.5 -19 9 C-13.55711868 3.06231129 -8.52736312 -0.85273631 0 0 Z " fill="#F8F8F8" transform="translate(337,27)"/>
<path d="M0 0 C1.75 3.25 1.75 3.25 3 7 C3.65843226 8.66993688 4.3234599 10.33731671 5 12 C5.24234375 11.14535156 5.4846875 10.29070313 5.734375 9.41015625 C6.23710937 7.75306641 6.23710937 7.75306641 6.75 6.0625 C7.07484375 4.96035156 7.3996875 3.85820313 7.734375 2.72265625 C9 0 9 0 10.953125 -0.94140625 C13 -1 13 -1 16 0 C15.45202525 7.94563382 14.50455327 18.42802215 9.55078125 24.890625 C7.02623979 26.6965942 5.00188951 26.36757831 2 26 C-0.83966791 24.50128638 -1.81147647 23.37704707 -3.25 20.5 C-4 18 -4 18 -4 15 C-4.99 14.67 -5.98 14.34 -7 14 C-7.38133299 12.0085944 -7.71325582 10.00720923 -8 8 C-7.67 7.67 -7.34 7.34 -7 7 C-7.28730055 4.66055264 -7.61936779 2.3260857 -8 0 C-4.9374046 -1.5312977 -3.21273912 -1.04905767 0 0 Z " fill="#FCFCFC" transform="translate(259,38)"/>
<path d="M0 0 C0.66 0.66 1.32 1.32 2 2 C1.67 2.99 1.34 3.98 1 5 C1.66 5.66 2.32 6.32 3 7 C2.34 8.32 1.68 9.64 1 11 C0.67 10.01 0.34 9.02 0 8 C-0.66 9.32 -1.32 10.64 -2 12 C-0.9275 11.979375 0.145 11.95875 1.25 11.9375 C4.14790424 11.9857984 6.28612141 12.13155885 9 13 C9 13.66 9 14.32 9 15 C9.66 15 10.32 15 11 15 C11 14.34 11 13.68 11 13 C12.85633912 10.87846958 14.61993038 9.58671308 17 8 C16.67 9.32 16.34 10.64 16 12 C16.99 11.67 17.98 11.34 19 11 C19 11.99 19 12.98 19 14 C18.01 14.495 18.01 14.495 17 15 C17.66 15.66 18.32 16.32 19 17 C18.01 17 17.02 17 16 17 C16.66 17.33 17.32 17.66 18 18 C18 18.99 18 19.98 18 21 C17.01 21 16.02 21 15 21 C15 23.97 15 26.94 15 30 C15.66 30 16.32 30 17 30 C19.29013653 33.4352048 19.17842973 34.985331 19 39 C17.1875 39.6875 17.1875 39.6875 15 40 C13.25 38.5625 13.25 38.5625 12 37 C11.01 37.495 11.01 37.495 10 38 C8.29297265 38.06996014 6.58331997 38.08440154 4.875 38.0625 C3.96492188 38.05347656 3.05484375 38.04445312 2.1171875 38.03515625 C1.41851562 38.02355469 0.71984375 38.01195312 0 38 C0 37.34 0 36.68 0 36 C6.75 32 6.75 32 9 32 C10.16396662 26.39446065 10.16396662 26.39446065 8.6875 21.0625 C7.16126242 18.91019125 7.16126242 18.91019125 5 18 C1.27366541 17.65496902 -1.13936 17.51451077 -4.4375 19.375 C-6.84368898 23.41739748 -6.31542629 27.40879515 -6 32 C-6.66 31.67 -7.32 31.34 -8 31 C-9.29411765 23.58823529 -9.29411765 23.58823529 -8 21 C-8.66 20.67 -9.32 20.34 -10 20 C-9.649375 19.443125 -9.29875 18.88625 -8.9375 18.3125 C-7.76827359 15.42840819 -8.14660484 13.94809235 -9 11 C-9.33 10.34 -9.66 9.68 -10 9 C-9.01 9 -8.02 9 -7 9 C-8.32 8.34 -9.64 7.68 -11 7 C-10.34 6.67 -9.68 6.34 -9 6 C-8.01 6.33 -7.02 6.66 -6 7 C-6 6.34 -6 5.68 -6 5 C-5.34 5 -4.68 5 -4 5 C-4 5.66 -4 6.32 -4 7 C-3.34 7 -2.68 7 -2 7 C-2 6.01 -2 5.02 -2 4 C-1.34 4 -0.68 4 0 4 C0 2.68 0 1.36 0 0 Z " fill="#E3EFED" transform="translate(33,35)"/>
<path d="M0 0 C0.99 0 1.98 0 3 0 C3.01417969 0.68707031 3.02835938 1.37414063 3.04296875 2.08203125 C3.18691192 4.80138999 3.40711754 7.34062142 4 10 C6.19640473 12.1349293 6.19640473 12.1349293 9 13 C9.763125 13.391875 10.52625 13.78375 11.3125 14.1875 C11.869375 14.455625 12.42625 14.72375 13 15 C12.34 15 11.68 15 11 15 C11 15.66 11 16.32 11 17 C13.64 17 16.28 17 19 17 C16.32553144 18.81863862 14.91497146 18.99685079 11.625 18.875 C7.37725518 17.84968229 4.11559032 16.11559032 1 13 C0.34 14.65 -0.32 16.3 -1 18 C-1.99 18 -2.98 18 -4 18 C-4.0825 17.38125 -4.165 16.7625 -4.25 16.125 C-4.81258459 13.81562433 -4.81258459 13.81562433 -7.0625 12.75 C-7.701875 12.5025 -8.34125 12.255 -9 12 C-9.99 12.66 -10.98 13.32 -12 14 C-12.66 14 -13.32 14 -14 14 C-14 14.66 -14 15.32 -14 16 C-15.65 16.33 -17.3 16.66 -19 17 C-18.8125 14.6875 -18.8125 14.6875 -18 12 C-13.96551724 9 -13.96551724 9 -11 9 C-10.67 7.02 -10.34 5.04 -10 3 C-9.34 3 -8.68 3 -8 3 C-7.7525 3.969375 -7.505 4.93875 -7.25 5.9375 C-6.36005841 9.10685022 -6.36005841 9.10685022 -4 9.9375 C-1.92579178 10.16078447 -1.92579178 10.16078447 0 9 C0 6.03 0 3.06 0 0 Z " fill="#EBF3F0" transform="translate(22,56)"/>
<path d="M0 0 C0.99 0 1.98 0 3 0 C3 2.31 3 4.62 3 7 C3.66 7 4.32 7 5 7 C7.29013653 10.4352048 7.17842973 11.985331 7 16 C5.1875 16.6875 5.1875 16.6875 3 17 C1.25 15.5625 1.25 15.5625 0 14 C-0.99 14.495 -0.99 14.495 -2 15 C-3.70702735 15.06996014 -5.41668003 15.08440154 -7.125 15.0625 C-8.03507812 15.05347656 -8.94515625 15.04445313 -9.8828125 15.03515625 C-10.58148438 15.02355469 -11.28015625 15.01195313 -12 15 C-12 14.34 -12 13.68 -12 13 C-5.25 9 -5.25 9 -3 9 C-2.67 8.01 -2.34 7.02 -2 6 C-1.34 6 -0.68 6 0 6 C0 4.02 0 2.04 0 0 Z " fill="#D1E3DE" transform="translate(45,58)"/>
<path d="M0 0 C6.90352555 -0.51137226 11.74827614 1.13035626 18 4 C17.67 5.32 17.34 6.64 17 8 C13.7 7.67 10.4 7.34 7 7 C6.01 10.63 5.02 14.26 4 18 C3.67 18 3.34 18 3 18 C3 16.02 3 14.04 3 12 C1.8553125 12.495 1.8553125 12.495 0.6875 13 C-2 14 -2 14 -5 14 C-5 13.34 -5 12.68 -5 12 C-4.36191406 11.73445313 -3.72382812 11.46890625 -3.06640625 11.1953125 C-2.24011719 10.84210937 -1.41382813 10.48890625 -0.5625 10.125 C0.26121094 9.77695312 1.08492187 9.42890625 1.93359375 9.0703125 C4.15746715 8.1755063 4.15746715 8.1755063 5 6 C3.824375 5.814375 3.824375 5.814375 2.625 5.625 C0 5 0 5 -2 3 C-0.64567321 3.14433868 0.70845225 3.29056661 2.0625 3.4375 C3.19365234 3.55931641 3.19365234 3.55931641 4.34765625 3.68359375 C7.57202696 4.06823886 10.78540391 4.54077199 14 5 C9.38 3.68 4.76 2.36 0 1 C0 0.67 0 0.34 0 0 Z " fill="#FCFCFC" transform="translate(9,23)"/>
<path d="M0 0 C0 0.66 0 1.32 0 2 C0.66 2 1.32 2 2 2 C2 2.66 2 3.32 2 4 C-0.64 4.33 -3.28 4.66 -6 5 C-6.6814823 6.89179203 -6.6814823 6.89179203 -7 9 C-6.34 9.66 -5.68 10.32 -5 11 C-4.34 11 -3.68 11 -3 11 C-3.33 12.32 -3.66 13.64 -4 15 C-4.66 15 -5.32 15 -6 15 C-6 14.34 -6 13.68 -6 13 C-8.64 13.33 -11.28 13.66 -14 14 C-13.34 12.02 -12.68 10.04 -12 8 C-11.34 8 -10.68 8 -10 8 C-10.66 7.34 -11.32 6.68 -12 6 C-11.01 5.67 -10.02 5.34 -9 5 C-8.26676204 2.98491642 -8.26676204 2.98491642 -8 1 C-7.34 1 -6.68 1 -6 1 C-4 0 -4 0 0 0 Z " fill="#F9FCFC" transform="translate(45,34)"/>
<path d="M0 0 C3 0.125 3 0.125 4 1.125 C4.125 4.125 4.125 4.125 4 7.125 C3 8.125 3 8.125 0.0625 8.375 C-0.948125 8.2925 -1.95875 8.21 -3 8.125 C-5 5.125 -5 5.125 -4.6875 3 C-3.57393491 -0.03699569 -3.43088098 0.14295337 0 0 Z " fill="#F9F9F9" transform="translate(283,26.875)"/>
<path d="M0 0 C0.99 0 1.98 0 3 0 C3 0.66 3 1.32 3 2 C3.66 2.33 4.32 2.66 5 3 C4.43410156 3.26554687 3.86820313 3.53109375 3.28515625 3.8046875 C2.55167969 4.15789063 1.81820312 4.51109375 1.0625 4.875 C0.33160156 5.22304688 -0.39929688 5.57109375 -1.15234375 5.9296875 C-3.16332459 6.8684977 -3.16332459 6.8684977 -4 9 C-4.06996014 10.70702735 -4.08440154 12.41668003 -4.0625 14.125 C-4.04896484 15.49011719 -4.04896484 15.49011719 -4.03515625 16.8828125 C-4.02355469 17.58148438 -4.01195312 18.28015625 -4 19 C-4.66 18.67 -5.32 18.34 -6 18 C-7.29411765 10.58823529 -7.29411765 10.58823529 -6 8 C-6.66 7.67 -7.32 7.34 -8 7 C-5.375 2.125 -5.375 2.125 -2 1 C-1.67 1 -1.34 1 -1 1 C-0.67 0.67 -0.34 0.34 0 0 Z " fill="#DDECE6" transform="translate(31,48)"/>
<path d="M0 0 C0.763125 0.309375 1.52625 0.61875 2.3125 0.9375 C4.18789677 1.67893593 6.08684652 2.36228217 8 3 C8 3.66 8 4.32 8 5 C8.639375 5.268125 9.27875 5.53625 9.9375 5.8125 C12 7 12 7 13 10 C12.0625 13.1875 12.0625 13.1875 11 16 C10.34 16 9.68 16 9 16 C8.9175 14.741875 8.835 13.48375 8.75 12.1875 C8.33967374 8.77623358 8.33967374 8.77623358 6.1875 6.125 C5.465625 5.75375 4.74375 5.3825 4 5 C3.2575 4.608125 2.515 4.21625 1.75 3.8125 C1.1725 3.544375 0.595 3.27625 0 3 C0 2.01 0 1.02 0 0 Z " fill="#E7F4F0" transform="translate(34,48)"/>
<path d="M0 0 C1.875 0.3125 1.875 0.3125 4 1 C6.29013653 4.4352048 6.17842973 5.985331 6 10 C4.1875 10.6875 4.1875 10.6875 2 11 C0.375 9.5625 0.375 9.5625 -1 8 C-1.66 8 -2.32 8 -3 8 C-3 7.34 -3 6.68 -3 6 C-1.68 5.34 -0.36 4.68 1 4 C0.67 2.68 0.34 1.36 0 0 Z " fill="#E4F2EF" transform="translate(46,64)"/>
<path d="M0 0 C1.5625 1.25 1.5625 1.25 3 3 C2.6875 5.1875 2.6875 5.1875 2 7 C0.35 7.33 -1.3 7.66 -3 8 C-3 8.66 -3 9.32 -3 10 C-4.65 10.33 -6.3 10.66 -8 11 C-7.8125 8.6875 -7.8125 8.6875 -7 6 C-2.96551724 3 -2.96551724 3 0 3 C0 2.01 0 1.02 0 0 Z " fill="#EFF5F6" transform="translate(11,62)"/>
<path d="M0 0 C0.66 0.66 1.32 1.32 2 2 C1.67 2.99 1.34 3.98 1 5 C-0.98 5.33 -2.96 5.66 -5 6 C-5 7.32 -5 8.64 -5 10 C-5.66 10 -6.32 10 -7 10 C-7 9.01 -7 8.02 -7 7 C-7.66 7 -8.32 7 -9 7 C-9 7.66 -9 8.32 -9 9 C-11 8 -11 8 -12 5 C-8.17010894 3.19769832 -5.21878192 2.80377759 -1 3 C-0.67 2.01 -0.34 1.02 0 0 Z " fill="#E7EFEE" transform="translate(49,37)"/>
<path d="M0 0 C4.13333333 2.7125 4.13333333 2.7125 6 4.3125 C6 4.9725 6 5.6325 6 6.3125 C3.07120629 5.68490135 0.63904371 4.72627341 -2 3.3125 C-2.33 4.3025 -2.66 5.2925 -3 6.3125 C-3.99 6.3125 -4.98 6.3125 -6 6.3125 C-6 4.6625 -6 3.0125 -6 1.3125 C-2.57918552 -0.88659502 -2.57918552 -0.88659502 0 0 Z " fill="#F1F7F6" transform="translate(56,62.6875)"/>
<path d="M0 0 C0.99 0 1.98 0 3 0 C3 0.66 3 1.32 3 2 C6.3 1.67 9.6 1.34 13 1 C12.67 1.99 12.34 2.98 12 4 C10.20909747 4.19466332 8.41723495 4.38051213 6.625 4.5625 C5.12839844 4.71912109 5.12839844 4.71912109 3.6015625 4.87890625 C1 5 1 5 -1 4 C-0.67 2.68 -0.34 1.36 0 0 Z " fill="#F0F1F0" transform="translate(42,23)"/>
<path d="M0 0 C1.62566606 0.47690204 3.25051311 0.95659666 4.875 1.4375 C5.77992187 1.70433594 6.68484375 1.97117187 7.6171875 2.24609375 C10 3 10 3 12 4 C12 4.66 12 5.32 12 6 C9.69 5.67 7.38 5.34 5 5 C4.34 6.32 3.68 7.64 3 9 C3 7.35 3 5.7 3 4 C2.01 4 1.02 4 0 4 C0 2.68 0 1.36 0 0 Z " fill="#FAFBFB" transform="translate(49,27)"/>
<path d="M0 0 C0.66 0.33 1.32 0.66 2 1 C1.67 1.99 1.34 2.98 1 4 C1.66 4.66 2.32 5.32 3 6 C-0.3 6 -3.6 6 -7 6 C-7 5.34 -7 4.68 -7 4 C-1.7265625 0.77734375 -1.7265625 0.77734375 0 0 Z " fill="#D9E8E3" transform="translate(40,67)"/>
<path d="M0 0 C0.66 0.66 1.32 1.32 2 2 C1.625 5.125 1.625 5.125 1 8 C0.01 8 -0.98 8 -2 8 C-2.6875 5.6875 -2.6875 5.6875 -3 3 C-1.5625 1.1875 -1.5625 1.1875 0 0 Z " fill="#F3F7F7" transform="translate(20,66)"/>
<path d="M0 0 C0.763125 0.309375 1.52625 0.61875 2.3125 0.9375 C4.18789677 1.67893593 6.08684652 2.36228217 8 3 C8 3.66 8 4.32 8 5 C8.66 5.33 9.32 5.66 10 6 C5.82412255 7.39195915 3.86525224 5.82323219 0 4 C0 2.68 0 1.36 0 0 Z " fill="#F5FCFB" transform="translate(34,48)"/>
<path d="M0 0 C2.475 0.495 2.475 0.495 5 1 C4.67 2.32 4.34 3.64 4 5 C2.68 4.67 1.36 4.34 0 4 C0 2.68 0 1.36 0 0 Z " fill="#D5EEE6" transform="translate(47,70)"/>
<path d="M0 0 C0.99 0 1.98 0 3 0 C3.33 1.65 3.66 3.3 4 5 C2.68 5.99 1.36 6.98 0 8 C0 5.36 0 2.72 0 0 Z " fill="#DDFFFD" transform="translate(48,56)"/>
<path d="M0 0 C0.33 0 0.66 0 1 0 C1 2.97 1 5.94 1 9 C1.66 9 2.32 9 3 9 C3.33 10.65 3.66 12.3 4 14 C2.68 13.34 1.36 12.68 0 12 C0 8.04 0 4.08 0 0 Z " fill="#D5DBDA" transform="translate(301,44)"/>
<path d="M0 0 C2.97 0 5.94 0 9 0 C8.67 1.32 8.34 2.64 8 4 C7.01 4.33 6.02 4.66 5 5 C5 4.34 5 3.68 5 3 C3.35 2.67 1.7 2.34 0 2 C0 1.34 0 0.68 0 0 Z " fill="#FDFDFE" transform="translate(21,32)"/>
<path d="M0 0 C0.66 0.33 1.32 0.66 2 1 C2 3.64 2 6.28 2 9 C1.01 9.495 1.01 9.495 0 10 C0 7.69 0 5.38 0 3 C-0.99 2.67 -1.98 2.34 -3 2 C-2.01 2 -1.02 2 0 2 C0 1.34 0 0.68 0 0 Z " fill="#F6FEFA" transform="translate(21,56)"/>
<path d="M0 0 C0.33 0 0.66 0 1 0 C1 1.98 1 3.96 1 6 C1.66 6 2.32 6 3 6 C2.67 7.32 2.34 8.64 2 10 C1.67 9.67 1.34 9.34 1 9 C0.34 10.32 -0.32 11.64 -1 13 C-0.67 8.71 -0.34 4.42 0 0 Z " fill="#FAFDFC" transform="translate(10,43)"/>
<path d="M0 0 C2.64 0.33 5.28 0.66 8 1 C8 1.66 8 2.32 8 3 C8.66 3.33 9.32 3.66 10 4 C9.34 4.66 8.68 5.32 8 6 C6.66402348 5.19185349 5.331275 4.37836819 4 3.5625 C3.2575 3.11003906 2.515 2.65757813 1.75 2.19140625 C1.1725 1.79824219 0.595 1.40507813 0 1 C0 0.67 0 0.34 0 0 Z " fill="#EAF3F4" transform="translate(34,47)"/>
<path d="M0 0 C3.26954202 0.56371414 4.82575883 1.49962266 7 4 C6.01 4.66 5.02 5.32 4 6 C1 4 1 4 0.3125 1.875 C0.209375 1.25625 0.10625 0.6375 0 0 Z " fill="#F4F9F8" transform="translate(25,46)"/>
<path d="M0 0 C0.66 0.33 1.32 0.66 2 1 C2.33 1 2.66 1 3 1 C3.99 1.33 4.98 1.66 6 2 C5.34 2 4.68 2 4 2 C4 2.66 4 3.32 4 4 C2.35 4.33 0.7 4.66 -1 5 C-0.67 3.35 -0.34 1.7 0 0 Z " fill="#F6FEFE" transform="translate(4,68)"/>
<path d="M0 0 C0 0.99 0 1.98 0 3 C-1.98 3.33 -3.96 3.66 -6 4 C-6.33 3.01 -6.66 2.02 -7 1 C-4.53721199 -0.231394 -2.7204945 -0.07159196 0 0 Z " fill="#F5F5F5" transform="translate(193,37)"/>
<path d="M0 0 C0.66 0.66 1.32 1.32 2 2 C1.01 2.33 0.02 2.66 -1 3 C-0.67 2.01 -0.34 1.02 0 0 Z " fill="#FFFFFF" transform="translate(225,46)"/>
<path d="M0 0 C1 4 1 4 1 4 Z " fill="#FFFFFF" transform="translate(104,52)"/>
<path d="" fill="#FFFFFF" transform="translate(0,0)"/>
<path d="" fill="#FFFFFF" transform="translate(0,0)"/>
<path d="" fill="#FFFFFF" transform="translate(0,0)"/>
<path d="" fill="#FFFFFF" transform="translate(0,0)"/>
</svg>
