<?xml version="1.0" encoding="UTF-8"?>
<svg version="1.1" xmlns="http://www.w3.org/2000/svg" width="383" height="126">
<path d="M0 0 C2.4375 1 2.4375 1 4 2 C4 2.66 4 3.32 4 4 C4.99 4 5.98 4 7 4 C7.33 2.68 7.66 1.36 8 0 C27.2 0 27.2 0 30 1 C31.92238055 3.17904717 33.482217 5.52633664 35 8 C35.33 5.69 35.66 3.38 36 1 C38.49064888 0.31292445 40.37886292 0 43 0 C44.53054026 -0.01944943 46.06105609 -0.04085387 47.59155273 -0.06347656 C52.75665922 -0.13534847 57.92169998 -0.18164725 63.0871582 -0.21972656 C65.31900543 -0.23989337 67.55079951 -0.26722644 69.7824707 -0.30175781 C72.99964341 -0.35023283 76.2161228 -0.37295272 79.43359375 -0.390625 C80.43160507 -0.41127014 81.42961639 -0.43191528 82.45787048 -0.45318604 C89.31200329 -0.45541033 89.31200329 -0.45541033 92.6496582 1.75390625 C94.16696432 4.27772044 94.42084844 5.42343484 94.171875 8.328125 C94.11386719 9.12734375 94.05585938 9.9265625 93.99609375 10.75 C93.87427734 11.9875 93.87427734 11.9875 93.75 13.25 C93.68425781 14.09046875 93.61851562 14.9309375 93.55078125 15.796875 C93.38617731 17.86618164 93.19560475 19.93339331 93 22 C91.35 21.67 89.7 21.34 88 21 C87.01 18.03 87.01 18.03 86 15 C85.34 15 84.68 15 84 15 C83.9175 15.61875 83.835 16.2375 83.75 16.875 C83 19 83 19 81.48828125 20.1171875 C77.81152061 21.42165831 74.30866184 21.28920164 70.4375 21.25 C69.66986328 21.25773437 68.90222656 21.26546875 68.11132812 21.2734375 C64.22792179 21.25989467 62.29975323 21.19983549 59 19 C58.26953125 15.9609375 58.26953125 15.9609375 57.8125 12.375 C57.65394531 11.18648437 57.49539063 9.99796875 57.33203125 8.7734375 C57.16767578 7.40058594 57.16767578 7.40058594 57 6 C56.34 6 55.68 6 55 6 C54.34 10.29 53.68 14.58 53 19 C51.35 19.33 49.7 19.66 48 20 C47.80664062 19.14535156 47.61328125 18.29070312 47.4140625 17.41015625 C47.02347656 15.75306641 47.02347656 15.75306641 46.625 14.0625 C46.36976563 12.96035156 46.11453125 11.85820313 45.8515625 10.72265625 C45.57054687 9.82417969 45.28953125 8.92570312 45 8 C44.34 7.67 43.68 7.34 43 7 C42.90912109 8.28197266 42.90912109 8.28197266 42.81640625 9.58984375 C42.73261719 10.69457031 42.64882813 11.79929687 42.5625 12.9375 C42.48128906 14.03964844 42.40007812 15.14179687 42.31640625 16.27734375 C42 19 42 19 41 20 C39.33382885 20.04063832 37.66611905 20.042721 36 20 C35.505 18.515 35.505 18.515 35 17 C32.48696195 17.43328242 31.28483439 17.6780133 29.5625 19.625 C28.7890625 20.305625 28.7890625 20.305625 28 21 C26.33157466 20.67558396 24.66535567 20.33982258 23 20 C20.38518042 19.93225856 17.80020744 19.90499742 15.1875 19.9375 C14.49462891 19.94201172 13.80175781 19.94652344 13.08789062 19.95117188 C11.39188932 19.96286844 9.69593297 19.98080076 8 20 C7.67 19.01 7.34 18.02 7 17 C6.175 17.495 5.35 17.99 4.5 18.5 C0.05151631 20.40649301 -2.19256152 20.61046838 -7 20 C-10 18.125 -10 18.125 -12 15 C-13.02120414 9.89397929 -12.82822957 6.25489328 -9.9375 1.875 C-6.28076837 -0.45908402 -4.2685337 -0.54326793 0 0 Z M-6 5 C-5.67 5.66 -5.34 6.32 -5 7 C-4.67 6.34 -4.34 5.68 -4 5 C-4.66 5 -5.32 5 -6 5 Z M-3 5 C-3 5.66 -3 6.32 -3 7 C-3.66 7 -4.32 7 -5 7 C-5 8.98 -5 10.96 -5 13 C-2.70705512 13.85974801 -2.70705512 13.85974801 0 14 C2.33454661 12.16641665 2.33454661 12.16641665 4 10 C3.67 9.34 3.34 8.68 3 8 C2.01 8 1.02 8 0 8 C0 7.01 0 6.02 0 5 C-0.99 5 -1.98 5 -3 5 Z " fill="#F9F9F9" transform="translate(255,71)"/>
<path d="M0 0 C4.61575593 -0.30267252 8.48732234 0.0499626 13 1 C14.9996441 1.03772913 17.00054061 1.04649906 19 1 C19.99 3.64 20.98 6.28 22 9 C22.66 9 23.32 9 24 9 C24.28875 8.236875 24.5775 7.47375 24.875 6.6875 C26 4 26 4 28 1 C29.65 1 31.3 1 33 1 C34.98 5.29 36.96 9.58 39 14 C39.309375 12.040625 39.61875 10.08125 39.9375 8.0625 C40.875 2.125 40.875 2.125 42 1 C46.56888233 0.56003355 50.73446633 0.53511008 55.0625 2.125 C57.65501684 4.63388726 57.77846502 6.45544036 58 10 C58 10.99 58 11.98 58 13 C60.93511881 11.53244059 61.60761752 9.30733209 63.125 6.4375 C63.66382812 5.42558594 64.20265625 4.41367188 64.7578125 3.37109375 C65.16773437 2.58863281 65.57765625 1.80617188 66 1 C70.61816193 1.54376368 70.61816193 1.54376368 72.36328125 3.62890625 C73.2421875 5.41927083 74.12109375 7.20963542 75 9 C76.32 8.67 77.64 8.34 79 8 C79 5.69 79 3.38 79 1 C81.1875 1.0625 81.1875 1.0625 84 2 C85.96065539 4.20441255 87.40665873 6.496178 89 9 C89.99 6.36 90.98 3.72 92 1 C92.99 1.33 93.98 1.66 95 2 C95 5.96 95 9.92 95 14 C95.66 14 96.32 14 97 14 C96.938125 12.948125 96.87625 11.89625 96.8125 10.8125 C97.0090428 6.81612976 97.60570516 5.13100094 100 2 C103.48339075 0.25830462 107.19948216 0.4223738 111 1 C114.348157 3.37161121 115.65750859 5.01533721 117 8.875 C117 12.93344247 115.96854587 15.47019361 114 19 C111.59453771 20.97591545 109.85874941 21.0190145 106.75 21.4375 C101.88681202 20.87012807 98.89806572 18.83495689 95 16 C95 17.32 95 18.64 95 20 C93.1875 20.6875 93.1875 20.6875 91 21 C89.5 19.625 89.5 19.625 88 18 C85.89667109 17.28552357 85.89667109 17.28552357 84 17 C83.67 18.32 83.34 19.64 83 21 C81.37536158 21.05395478 79.75021459 21.09277195 78.125 21.125 C76.76761719 21.15980469 76.76761719 21.15980469 75.3828125 21.1953125 C73 21 73 21 71 19 C68.67724823 18.59952556 66.34260643 18.2602896 64 18 C63.505 19.485 63.505 19.485 63 21 C59.7 21 56.4 21 53 21 C52.34 19.35 51.68 17.7 51 16 C49.05000871 16.19471111 49.05000871 16.19471111 47 17 C45.71563266 18.9837767 45.71563266 18.9837767 45 21 C44.0925 20.835 43.185 20.67 42.25 20.5 C38.88912497 19.89862854 38.88912497 19.89862854 35 20 C34.34 19.34 33.68 18.68 33 18 C29.93008319 18.16442277 29.93008319 18.16442277 27 19 C26.67 19.66 26.34 20.32 26 21 C23.04296875 21.4140625 23.04296875 21.4140625 19.1875 21.625 C18.5176709 21.66222168 17.8478418 21.69944336 17.15771484 21.73779297 C5.00110261 22.36305603 5.00110261 22.36305603 -1 22 C-3.15011953 19.84988047 -2.18520645 15.10202202 -2.1875 12.125 C-2.19974609 11.29613281 -2.21199219 10.46726562 -2.22460938 9.61328125 C-2.22654297 8.81535156 -2.22847656 8.01742187 -2.23046875 7.1953125 C-2.23457764 6.46328613 -2.23868652 5.73125977 -2.24291992 4.97705078 C-2 3 -2 3 0 0 Z M103 6 C102.14612895 9.30567489 102.14612895 9.30567489 102 13 C103.52277007 15.60720318 103.52277007 15.60720318 106 17 C108.1935345 17.0146239 108.1935345 17.0146239 110 16 C111.36952673 13.26094655 111.12621361 11.02912668 111 8 C110.67 7.34 110.34 6.68 110 6 C107.69 6 105.38 6 103 6 Z " fill="#F8F8F8" transform="translate(60,70)"/>
<path d="M0 0 C1.32283509 0.66739781 2.63774216 1.35120395 3.9375 2.0625 C4.5975 2.3925 5.2575 2.7225 5.9375 3.0625 C5.9375 3.7225 5.9375 4.3825 5.9375 5.0625 C6.515 5.26875 7.0925 5.475 7.6875 5.6875 C11.18441848 7.82450574 13.30314948 11.05165031 14.53515625 14.95703125 C15.82545004 21.70915119 15.53572221 28.10294447 11.9375 34.0625 C7.30339168 39.18665196 2.60657389 42.2840803 -4.0625 44.0625 C-5.07570313 43.7840625 -5.07570313 43.7840625 -6.109375 43.5 C-6.75390625 43.355625 -7.3984375 43.21125 -8.0625 43.0625 C-9.0525 43.7225 -10.0425 44.3825 -11.0625 45.0625 C-12.0525 44.4025 -13.0425 43.7425 -14.0625 43.0625 C-15.0525 43.5575 -15.0525 43.5575 -16.0625 44.0625 C-24.21878645 41.16088305 -28.7539955 37.28149098 -32.875 29.75 C-35.21601297 22.48053867 -34.60755105 16.87094622 -31.1796875 10.0625 C-24.75244199 -1.44361783 -12.00826057 -5.23436999 0 0 Z M-13.0625 4.0625 C-13.0625 5.3825 -13.0625 6.7025 -13.0625 8.0625 C-11.4125 8.3925 -9.7625 8.7225 -8.0625 9.0625 C-7.4025 7.7425 -6.7425 6.4225 -6.0625 5.0625 C-8.3725 4.7325 -10.6825 4.4025 -13.0625 4.0625 Z M2.9375 33.0625 C1.9475 34.5475 1.9475 34.5475 0.9375 36.0625 C1.9275 35.7325 2.9175 35.4025 3.9375 35.0625 C3.6075 34.4025 3.2775 33.7425 2.9375 33.0625 Z M-20.0625 37.0625 C-20.0625 37.7225 -20.0625 38.3825 -20.0625 39.0625 C-19.4025 39.0625 -18.7425 39.0625 -18.0625 39.0625 C-18.0625 38.4025 -18.0625 37.7425 -18.0625 37.0625 C-18.7225 37.0625 -19.3825 37.0625 -20.0625 37.0625 Z " fill="#C1B790" transform="translate(41.0625,58.9375)"/>
<path d="M0 0 C2.4375 1.3125 2.4375 1.3125 4 3 C4 3.99 4 4.98 4 6 C4.99 6 5.98 6 7 6 C6.979375 5.195625 6.95875 4.39125 6.9375 3.5625 C7 1 7 1 8 0 C12.25002506 -0.45661426 15.95605441 -0.42202056 19.9375 1.1875 C22.32087126 3.28197778 23.10368306 4.98511576 24 8 C25.32 5.36 26.64 2.72 28 0 C29.65 0 31.3 0 33 0 C33.985267 2.22664317 34.96331444 4.45601317 35.9375 6.6875 C36.35418945 7.62625977 36.35418945 7.62625977 36.77929688 8.58398438 C38.2788865 12.03484724 39.43729857 15.27477406 40 19 C38.35 19.33 36.7 19.66 35 20 C34.505 18.02 34.505 18.02 34 16 C31.69 16.33 29.38 16.66 27 17 C26.505 18.485 26.505 18.485 26 20 C24.35 20 22.7 20 21 20 C21 18.02 21 16.04 21 14 C18.69 14 16.38 14 14 14 C13.34 15.98 12.68 17.96 12 20 C10.35 20 8.7 20 7 20 C7 19.34 7 18.68 7 18 C6.12988281 18.34224609 6.12988281 18.34224609 5.2421875 18.69140625 C0.49903427 20.43682402 -3.00808537 21.66397154 -8 20 C-9.63671875 18.8828125 -9.63671875 18.8828125 -11 17 C-11.43359375 13.75 -11.43359375 13.75 -11.4375 10 C-11.46650391 8.14375 -11.46650391 8.14375 -11.49609375 6.25 C-11 3 -11 3 -9.19140625 1.0859375 C-5.97716479 -0.50685952 -3.53342237 -0.37858097 0 0 Z " fill="#FBFAFA" transform="translate(196,71)"/>
<path d="M0 0 C0 0.66 0 1.32 0 2 C-0.66 2 -1.32 2 -2 2 C-2 3.32 -2 4.64 -2 6 C0.64 6.66 3.28 7.32 6 8 C6.66 7.01 7.32 6.02 8 5 C7.01 4.67 6.02 4.34 5 4 C6.65 4 8.3 4 10 4 C9.52797514 8.24822374 7.03344482 10.19989709 4 13 C5.32 12.67 6.64 12.34 8 12 C7.23925157 13.62974564 6.46601567 15.25366648 5.6875 16.875 C5.25824219 17.77992187 4.82898438 18.68484375 4.38671875 19.6171875 C3 22 3 22 0 24 C-0.38671875 23.38511719 -0.7734375 22.77023438 -1.171875 22.13671875 C-1.69265625 21.32847656 -2.2134375 20.52023438 -2.75 19.6875 C-3.26046875 18.88699219 -3.7709375 18.08648437 -4.296875 17.26171875 C-6.98336677 13.69410698 -9.59241204 11.78706928 -14 11 C-16.21279222 17.63837666 -15.95031129 25.59598604 -13.4375 32.125 C-11.8722546 35.18816842 -10.52871793 36.61736792 -7.375 38 C-6.26125 38.33 -5.1475 38.66 -4 39 C-3.34 39.33 -2.68 39.66 -2 40 C-2.56710884 37.43292752 -3.15286531 34.87260357 -3.75 32.3125 C-3.90726563 31.59126953 -4.06453125 30.87003906 -4.2265625 30.12695312 C-5.3196363 25.5234308 -6.6810159 22.53513643 -10 19 C-10.30115186 24.82375162 -10.30115186 24.82375162 -8 30 C-7.34 30.33 -6.68 30.66 -6 31 C-6.33 32.32 -6.66 33.64 -7 35 C-10.96672721 30.42300706 -13.14563152 27.6991677 -13.125 21.4375 C-13.12757812 20.65246094 -13.13015625 19.86742188 -13.1328125 19.05859375 C-13 17 -13 17 -12 15 C-7.07235572 16.93586025 -4.8803084 20.46761131 -2.3125 24.9375 C0.00216958 30.57321725 -0.24150197 36.99576132 0 43 C-0.99 43.495 -0.99 43.495 -2 44 C-10.15628645 41.09838305 -14.6914955 37.21899098 -18.8125 29.6875 C-21.15409108 22.41624349 -20.53817141 16.81839779 -17.125 10.00390625 C-13.65665625 3.82591894 -7.64188118 -2.62689666 0 0 Z " fill="#CBC39C" transform="translate(27,59)"/>
<path d="M0 0 C5 1 5 1 6.58203125 2.62890625 C7.72135417 4.41927083 8.86067708 6.20963542 10 8 C10.99 5.36 11.98 2.72 13 0 C13.99 0.33 14.98 0.66 16 1 C16 4.96 16 8.92 16 13 C16.66 13 17.32 13 18 13 C17.938125 11.948125 17.87625 10.89625 17.8125 9.8125 C18.0090428 5.81612976 18.60570516 4.13100094 21 1 C24.48339075 -0.74169538 28.19948216 -0.5776262 32 0 C35.348157 2.37161121 36.65750859 4.01533721 38 7.875 C38 11.93344247 36.96854587 14.47019361 35 18 C32.59453771 19.97591545 30.85874941 20.0190145 27.75 20.4375 C22.88681202 19.87012807 19.89806572 17.83495689 16 15 C16 16.32 16 17.64 16 19 C14.1875 19.6875 14.1875 19.6875 12 20 C10.5 18.625 10.5 18.625 9 17 C6.89667109 16.28552357 6.89667109 16.28552357 5 16 C4.67 17.32 4.34 18.64 4 20 C2.68 19.67 1.36 19.34 0 19 C0 12.73 0 6.46 0 0 Z M24 5 C23.14612895 8.30567489 23.14612895 8.30567489 23 12 C24.52277007 14.60720318 24.52277007 14.60720318 27 16 C29.1935345 16.0146239 29.1935345 16.0146239 31 15 C32.36952673 12.26094655 32.12621361 10.02912668 32 7 C31.67 6.34 31.34 5.68 31 5 C28.69 5 26.38 5 24 5 Z " fill="#FAFAFA" transform="translate(139,71)"/>
<path d="M0 0 C4.61575593 -0.30267252 8.48732234 0.0499626 13 1 C14.9996441 1.03772913 17.00054061 1.04649906 19 1 C19.99 3.64 20.98 6.28 22 9 C22.66 9 23.32 9 24 9 C24.33 8.01 24.66 7.02 25 6 C25.33 6.66 25.66 7.32 26 8 C25.22265625 10.1640625 25.22265625 10.1640625 24.0625 12.625 C23.68222656 13.44226563 23.30195312 14.25953125 22.91015625 15.1015625 C22.60980469 15.72804688 22.30945313 16.35453125 22 17 C21.34 16.67 20.68 16.34 20 16 C19.375 13.9375 19.375 13.9375 19 12 C18.67 14.64 18.34 17.28 18 20 C18.99 19.67 19.98 19.34 21 19 C21 19.66 21 20.32 21 21 C13.6889036 21.90579955 6.36777571 22.41269254 -1 22 C-3.15011953 19.84988047 -2.18520645 15.10202202 -2.1875 12.125 C-2.19974609 11.29613281 -2.21199219 10.46726562 -2.22460938 9.61328125 C-2.22654297 8.81535156 -2.22847656 8.01742187 -2.23046875 7.1953125 C-2.23457764 6.46328613 -2.23868652 5.73125977 -2.24291992 4.97705078 C-2 3 -2 3 0 0 Z " fill="#FBFCFC" transform="translate(60,70)"/>
<path d="M0 0 C2.1173436 1.72248764 2.93311075 2.73794655 3.6171875 5.41796875 C4.21811555 11.87339276 3.773496 16.12018848 1 22 C1.33 22.33 1.66 22.66 2 23 C4.45489316 17.87674471 5.50341703 13.66104589 6 8 C6.33 9.32 6.66 10.64 7 12 C7.66 12 8.32 12 9 12 C8.88529773 18.42332714 7.41808467 21.60830593 2.9609375 26.23828125 C-1.8952018 30.60106775 -6.5273471 32.47162017 -13 33 C-16.00232315 26.9953537 -15.63318697 21.44785623 -13.625 15.25 C-11.65961164 9.73103067 -9.53178346 5.88438583 -5 2 C-3.68 2 -2.36 2 -1 2 C-0.67 1.34 -0.34 0.68 0 0 Z M-3 22 C-3.99 23.485 -3.99 23.485 -5 25 C-4.01 24.67 -3.02 24.34 -2 24 C-2.33 23.34 -2.66 22.68 -3 22 Z " fill="#A19B7B" transform="translate(47,70)"/>
<path d="M0 0 C4.44209835 0.50766838 6.80450885 1.88644452 10 5 C14.68431379 12.09338945 16.29681686 18.54071939 16 27 C15.01 26.67 14.02 26.34 13 26 C12.90203125 25.3709375 12.8040625 24.741875 12.703125 24.09375 C11.42984615 16.80532624 9.8524666 10.59315145 4.25 5.5 C3.13625 4.7575 3.13625 4.7575 2 4 C1.51273079 12.92822453 1.51273079 12.92822453 5 21 C5.66 21.66 6.32 22.32 7 23 C7.33 22.01 7.66 21.02 8 20 C7.01 19.67 6.02 19.34 5 19 C2.23840654 15.36632439 2.85501295 11.34961164 3 7 C7.41174871 9.99238014 8.87848104 12.3328646 10.3125 17.4375 C10.63863281 18.54996094 10.96476562 19.66242188 11.30078125 20.80859375 C11.92859187 23.67407575 12.14716334 26.08398574 12 29 C11.34 29 10.68 29 10 29 C10 28.01 10 27.02 10 26 C9.01 26.33 8.02 26.66 7 27 C4.5625 26.625 4.5625 26.625 2 25 C-2.67963661 18.49379555 -2.9213668 10.73519572 -2 3 C-1.34 2.01 -0.68 1.02 0 0 Z " fill="#A2A378" transform="translate(13,70)"/>
<path d="M0 0 C0 0.66 0 1.32 0 2 C-0.66 2 -1.32 2 -2 2 C-2 3.32 -2 4.64 -2 6 C0.64 6.66 3.28 7.32 6 8 C6.66 7.01 7.32 6.02 8 5 C7.01 4.67 6.02 4.34 5 4 C6.65 4 8.3 4 10 4 C9.52797514 8.24822374 7.03344482 10.19989709 4 13 C5.32 12.67 6.64 12.34 8 12 C6.35 15.3 4.7 18.6 3 22 C2.34 21.319375 1.68 20.63875 1 19.9375 C-1.91090447 17.01827866 -5.00824855 14.33531934 -8.1328125 11.6484375 C-8.74898437 11.10445312 -9.36515625 10.56046875 -10 10 C-10.59554688 9.51789063 -11.19109375 9.03578125 -11.8046875 8.5390625 C-13 7 -13 7 -12.92578125 4.95703125 C-11.74210762 2.4548351 -10.66221694 1.8766497 -8.1875 0.6875 C-7.50042969 0.34074219 -6.81335938 -0.00601563 -6.10546875 -0.36328125 C-3.65893095 -1.10314333 -2.38213881 -0.82973374 0 0 Z " fill="#BEBB8B" transform="translate(27,59)"/>
<path d="M0 0 C0.33 0.66 0.66 1.32 1 2 C1.66 2 2.32 2 3 2 C3.33 1.34 3.66 0.68 4 0 C4.66 1.98 5.32 3.96 6 6 C6.66 4.02 7.32 2.04 8 0 C9.32 0.33 10.64 0.66 12 1 C11.34 4.96 10.68 8.92 10 13 C10.66 12.67 11.32 12.34 12 12 C12 12.99 12 13.98 12 15 C8.10452599 16.82510171 5.0373082 17.2455793 0.75 17.1875 C-0.30703125 17.18105469 -1.3640625 17.17460938 -2.453125 17.16796875 C-5 17 -5 17 -6 16 C-6.203125 14.0390625 -6.203125 14.0390625 -6.25 11.625 C-6.27578125 10.83351563 -6.3015625 10.04203125 -6.328125 9.2265625 C-6 7 -6 7 -3 4 C-3 7.63 -3 11.26 -3 15 C-2.01 15 -1.02 15 0 15 C0 10.05 0 5.1 0 0 Z " fill="#ECEBEB" transform="translate(64,75)"/>
<path d="M0 0 C0.99 0.33 1.98 0.66 3 1 C3 5.62 3 10.24 3 15 C2.34 15 1.68 15 1 15 C0.67 16.32 0.34 17.64 0 19 C-1.32 19.33 -2.64 19.66 -4 20 C-3.32902328 15.80639551 -1.1441606 12.59665648 1 9 C-0.65 10.32 -2.3 11.64 -4 13 C-4.33 12.67 -4.66 12.34 -5 12 C-5.66 17.61 -6.32 23.22 -7 29 C-7.99 28.67 -8.98 28.34 -10 28 C-8.05421687 6.90361446 -8.05421687 6.90361446 0 0 Z " fill="#BFB28F" transform="translate(44,74)"/>
<path d="M0 0 C1.32 0 2.64 0 4 0 C4 0.66 4 1.32 4 2 C4.60328125 2.04898438 5.2065625 2.09796875 5.828125 2.1484375 C6.62734375 2.22320312 7.4265625 2.29796875 8.25 2.375 C9.03890625 2.44460937 9.8278125 2.51421875 10.640625 2.5859375 C13.085877 3.01507113 14.84836903 3.78600638 17 5 C16.67 5.66 16.34 6.32 16 7 C15.34 7 14.68 7 14 7 C13.34 8.65 12.68 10.3 12 12 C13.65 12 15.3 12 17 12 C16.41992188 12.72703125 16.41992188 12.72703125 15.828125 13.46875 C12.22058046 18.11212416 9.47597386 22.66713323 7 28 C6.01 26.68 5.02 25.36 4 24 C5.65167557 20.4213696 7.78286492 17.25179812 10 14 C8.68 14.33 7.36 14.66 6 15 C5.67 14.34 5.34 13.68 5 13 C5.78375 12.5875 6.5675 12.175 7.375 11.75 C10.05891656 9.9607223 10.88098949 8.95011861 12 6 C10.1128125 5.9690625 10.1128125 5.9690625 8.1875 5.9375 C7.47980469 5.92589844 6.77210937 5.91429687 6.04296875 5.90234375 C3.79694539 5.91736783 3.79694539 5.91736783 1 7 C1 5.68 1 4.36 1 3 C1.66 3 2.32 3 3 3 C3 2.34 3 1.68 3 1 C2.01 0.67 1.02 0.34 0 0 Z " fill="#B3AF83" transform="translate(24,58)"/>
<path d="M0 0 C2.04219706 1.69179328 2.91793306 2.63727666 3.51171875 5.26171875 C3.56972656 6.06222656 3.62773438 6.86273438 3.6875 7.6875 C3.78611328 8.89986328 3.78611328 8.89986328 3.88671875 10.13671875 C3.92410156 10.75160156 3.96148437 11.36648437 4 12 C3.67 11.01 3.34 10.02 3 9 C2.34 9 1.68 9 1 9 C0.67 9.99 0.34 10.98 0 12 C-0.33 9.69 -0.66 7.38 -1 5 C-4.88605655 6.2490896 -6.28082699 8.63117411 -8.12109375 12.16015625 C-11.20501525 18.61583192 -11.56598007 24.9414653 -12 32 C-14.74945557 28.70501753 -15.46044604 26.59818153 -15.296875 22.22265625 C-14.23946688 14.30600859 -11.08182354 7.21299161 -5 2 C-3.68 2 -2.36 2 -1 2 C-0.67 1.34 -0.34 0.68 0 0 Z " fill="#9F9D70" transform="translate(47,70)"/>
<path d="M0 0 C0.33 0.99 0.66 1.98 1 3 C2.40707612 3.90454893 3.81528309 4.80741075 5.23046875 5.69921875 C8.65148768 8.2140075 11.78357344 11.37440768 14 15 C13.69140625 17.25 13.69140625 17.25 13 19 C12.61328125 18.38511719 12.2265625 17.77023438 11.828125 17.13671875 C11.30734375 16.32847656 10.7865625 15.52023438 10.25 14.6875 C9.73953125 13.88699219 9.2290625 13.08648437 8.703125 12.26171875 C5.81841698 8.43087943 3.67710995 7.16927749 -1 6 C-1.66 10.29 -2.32 14.58 -3 19 C-3.99 18.67 -4.98 18.34 -6 18 C-6.33 18.99 -6.66 19.98 -7 21 C-7.44115759 14.05176801 -6.61730419 9.02480765 -3 3 C-1.36328125 1.2421875 -1.36328125 1.2421875 0 0 Z " fill="#D5C8A3" transform="translate(14,64)"/>
<path d="M0 0 C4.41174871 2.99238014 5.87848104 5.3328646 7.3125 10.4375 C7.63863281 11.54996094 7.96476562 12.66242188 8.30078125 13.80859375 C8.92859187 16.67407575 9.14716334 19.08398574 9 22 C8.34 22 7.68 22 7 22 C6.67 21.01 6.34 20.02 6 19 C5.401875 18.896875 4.80375 18.79375 4.1875 18.6875 C0.68051026 17.58530322 -0.31524424 15.11991807 -2 12 C-1.67 11.01 -1.34 10.02 -1 9 C-0.360625 9.969375 0.27875 10.93875 0.9375 11.9375 C2.6965259 14.76036269 2.6965259 14.76036269 4 16 C4.33 15.01 4.66 14.02 5 13 C4.01 12.67 3.02 12.34 2 12 C-0.76159346 8.36632439 -0.14498705 4.34961164 0 0 Z " fill="#95A275" transform="translate(16,77)"/>
<path d="M0 0 C1.4540625 0.0309375 1.4540625 0.0309375 2.9375 0.0625 C4.0625 3.8125 4.0625 3.8125 2.9375 6.0625 C2.2775 6.0625 1.6175 6.0625 0.9375 6.0625 C0.6075 10.3525 0.2775 14.6425 -0.0625 19.0625 C-1.0525 19.0625 -2.0425 19.0625 -3.0625 19.0625 C-3.3925 16.0925 -3.7225 13.1225 -4.0625 10.0625 C-4.3925 10.0625 -4.7225 10.0625 -5.0625 10.0625 C-4.92200482 8.58281676 -4.77495174 7.10375484 -4.625 5.625 C-4.54378906 4.80128906 -4.46257813 3.97757812 -4.37890625 3.12890625 C-3.8690239 -0.20106615 -3.4903173 0.07123097 0 0 Z " fill="#F3F7F5" transform="translate(64.0625,70.9375)"/>
<path d="M0 0 C7.69479711 -0.51778074 13.21882953 0.2494267 20 4 C19.29677677 7.31812126 18.4442247 8.66204593 16 11 C16 11.66 16 12.32 16 13 C14.35 13 12.7 13 11 13 C12.07401108 10.08482708 12.77810176 8.22189824 15 6 C9.06 4.515 9.06 4.515 3 3 C3 2.34 3 1.68 3 1 C2.01 0.67 1.02 0.34 0 0 Z " fill="#C4B997" transform="translate(25,57)"/>
<path d="M0 0 C1.32 0 2.64 0 4 0 C4 0.99 4 1.98 4 3 C3.01 3 2.02 3 1 3 C1.33 3.99 1.66 4.98 2 6 C1.99140681 9.29548898 1.86955836 12.57818232 1.7421875 15.87109375 C2.02666403 19.32360438 2.77863751 20.44717766 5 23 C5 23.66 5 24.32 5 25 C6.32 25.33 7.64 25.66 9 26 C7 27 7 27 4.625 26.625 C0.46629171 24.05056153 -0.79370929 20.6491096 -2 16 C-3.06741004 4.60111505 -3.06741004 4.60111505 0 0 Z " fill="#AABA8A" transform="translate(13,70)"/>
<path d="M0 0 C0.33 1.32 0.66 2.64 1 4 C1.66 4 2.32 4 3 4 C2.88396011 10.4982341 1.33163835 13.66028751 -3.14453125 18.3671875 C-5.28383376 20.24977371 -7.22320371 21.32683726 -10 22 C-9.01 20.515 -9.01 20.515 -8 19 C-7.34 19 -6.68 19 -6 19 C-2.63488141 12.52861809 -0.63642982 7.25529992 0 0 Z " fill="#625F4C" transform="translate(53,78)"/>
<path d="M0 0 C0.99 0 1.98 0 3 0 C3 0.66 3 1.32 3 2 C3.5775 2.20625 4.155 2.4125 4.75 2.625 C8.02289382 4.62510178 9.23254057 6.5869749 11 10 C11.60111858 13.32850786 11.86650576 16.62259563 12 20 C11.34 20 10.68 20 10 20 C8.33333333 15 6.66666667 10 5 5 C4.01 5 3.02 5 2 5 C1.34 3.35 0.68 1.7 0 0 Z " fill="#A09D81" transform="translate(44,62)"/>
<path d="M0 0 C0 0.66 0 1.32 0 2 C-1.98 2.33 -3.96 2.66 -6 3 C-4.02 5.31 -2.04 7.62 0 10 C-0.33 10.66 -0.66 11.32 -1 12 C-4.63 9.36 -8.26 6.72 -12 4 C-5.04347826 -1.56521739 -5.04347826 -1.56521739 0 0 Z " fill="#D9CCA6" transform="translate(27,59)"/>
<path d="M0 0 C1.32 0.33 2.64 0.66 4 1 C3.61328125 1.4125 3.2265625 1.825 2.828125 2.25 C-1.05737783 6.5586764 -3.59273608 10.7225368 -6 16 C-6.99 14.68 -7.98 13.36 -9 12 C-7.25731793 8.03935893 -4.85325271 4.25563451 -2 1 C-1.34 1 -0.68 1 0 1 C0 0.67 0 0.34 0 0 Z " fill="#ABAD7C" transform="translate(37,70)"/>
<path d="M0 0 C4.22451263 5.18462913 5.25269506 9.67306195 5.625 16.3125 C5.69976563 17.56675781 5.77453125 18.82101563 5.8515625 20.11328125 C5.90054687 21.06589844 5.94953125 22.01851562 6 23 C5.01 23 4.02 23 3 23 C3.0928125 21.3603125 3.0928125 21.3603125 3.1875 19.6875 C3.21243306 15.02501842 2.02315515 10.94541021 0.65625 6.515625 C0 4 0 4 0 0 Z " fill="#C6BD98" transform="translate(21,79)"/>
<path d="M0 0 C0.66 0 1.32 0 2 0 C2.33 2.64 2.66 5.28 3 8 C3.99 7.67 4.98 7.34 6 7 C6 8.65 6 10.3 6 12 C4.68 12 3.36 12 2 12 C1.67 11.34 1.34 10.68 1 10 C0.34 10 -0.32 10 -1 10 C-1.02689216 8.52093108 -1.04634621 7.04172517 -1.0625 5.5625 C-1.07410156 4.73878906 -1.08570312 3.91507812 -1.09765625 3.06640625 C-1 1 -1 1 0 0 Z " fill="#F5F8F8" transform="translate(66,78)"/>
<path d="M0 0 C0.66 0 1.32 0 2 0 C0.25 5.75 0.25 5.75 -2 8 C-2.16687448 10.58354218 -2.16687448 10.58354218 -2 13 C-3.32 13 -4.64 13 -6 13 C-5.88601335 11.37419034 -5.75844341 9.74932843 -5.625 8.125 C-5.55539063 7.22007813 -5.48578125 6.31515625 -5.4140625 5.3828125 C-5 3 -5 3 -3 1 C-2.67 1.66 -2.34 2.32 -2 3 C-1.34 2.01 -0.68 1.02 0 0 Z " fill="#85855D" transform="translate(43,83)"/>
<path d="M0 0 C0.33 0 0.66 0 1 0 C1 3.63 1 7.26 1 11 C1.99 11 2.98 11 4 11 C4 8.69 4 6.38 4 4 C4.33 4 4.66 4 5 4 C5.09765625 10.15234375 5.09765625 10.15234375 5 12 C4 13 4 13 1.5 13.125 C-1 13 -1 13 -2 12 C-2.16796875 10.0390625 -2.16796875 10.0390625 -2.1875 7.625 C-2.20167969 6.83351563 -2.21585938 6.04203125 -2.23046875 5.2265625 C-2 3 -2 3 0 0 Z " fill="#A5BDAC" transform="translate(60,79)"/>
<path d="M0 0 C2.57860235 3.86790352 2.01114505 6.76613915 1.625 11.1875 C1.56828125 11.93708984 1.5115625 12.68667969 1.453125 13.45898438 C1.31189331 15.30676559 1.15723833 17.153512 1 19 C-1.80964685 15.65659438 -2.3964975 13.54385098 -2.23828125 9.10546875 C-1.87643085 5.90813491 -1.0167256 3.05017681 0 0 Z " fill="#7A7C5B" transform="translate(34,83)"/>
<path d="M0 0 C1 3 1 3 1 6 C1.66 5.67 2.32 5.34 3 5 C3 5.99 3 6.98 3 8 C-1.1205746 9.99785435 -4.45194365 10.17835515 -9 10 C-8.6875 8.0625 -8.6875 8.0625 -8 6 C-7.01 5.67 -6.02 5.34 -5 5 C-5 5.99 -5 6.98 -5 8 C-3.68 8 -2.36 8 -1 8 C-1.33 6.68 -1.66 5.36 -2 4 C-2.66 4 -3.32 4 -4 4 C-4 3.34 -4 2.68 -4 2 C-2.68 1.34 -1.36 0.68 0 0 Z " fill="#CDD6D1" transform="translate(73,82)"/>
<path d="M0 0 C0.33 0 0.66 0 1 0 C1 4.29 1 8.58 1 13 C1.66 13 2.32 13 3 13 C3.33 11.02 3.66 9.04 4 7 C4.99 6.67 5.98 6.34 7 6 C7 9.38023517 6.12544378 11.83468937 5 15 C3.35 15 1.7 15 0 15 C0 10.05 0 5.1 0 0 Z " fill="#F3F2F2" transform="translate(203,76)"/>
<path d="M0 0 C0.66 0 1.32 0 2 0 C2 3.63 2 7.26 2 11 C1.01 10.67 0.02 10.34 -1 10 C-1.33 10.99 -1.66 11.98 -2 13 C-2.05447047 11.58376784 -2.09300508 10.16691809 -2.125 8.75 C-2.14820313 7.96109375 -2.17140625 7.1721875 -2.1953125 6.359375 C-1.9828378 3.79268059 -1.28654105 2.2083933 0 0 Z " fill="#D8D6A9" transform="translate(9,72)"/>
<path d="M0 0 C2.94629611 2.45937322 3.73581722 4.69918822 4.6875 8.375 C4.93886719 9.31085938 5.19023437 10.24671875 5.44921875 11.2109375 C5.97861526 13.89171134 6.10398074 16.27669489 6 19 C5.34 19 4.68 19 4 19 C3.89042969 18.3709375 3.78085937 17.741875 3.66796875 17.09375 C2.61950734 11.43376318 1.17168983 6.3305114 -1 1 C-0.67 0.67 -0.34 0.34 0 0 Z " fill="#889065" transform="translate(19,80)"/>
<path d="M0 0 C2.97 0.495 2.97 0.495 6 1 C6.0825 1.94875 6.165 2.8975 6.25 3.875 C6.65074923 7.10461791 6.65074923 7.10461791 9.0625 8.375 C9.701875 8.58125 10.34125 8.7875 11 9 C9.68 9.33 8.36 9.66 7 10 C4 5.25 4 5.25 4 3 C3.34 3 2.68 3 2 3 C1.67 4.32 1.34 5.64 1 7 C0.67 7 0.34 7 0 7 C0 4.69 0 2.38 0 0 Z " fill="#FEFEFE" transform="translate(337,83)"/>
<path d="M0 0 C0.33 0 0.66 0 1 0 C1.66 3.96 2.32 7.92 3 12 C3.66 12 4.32 12 5 12 C5 12.99 5 13.98 5 15 C5.66 15.66 6.32 16.32 7 17 C4.69 16.67 2.38 16.34 0 16 C0 10.72 0 5.44 0 0 Z " fill="#E6E6E6" transform="translate(78,74)"/>
<path d="M0 0 C1.32 0 2.64 0 4 0 C4 0.66 4 1.32 4 2 C6.97 2.33 9.94 2.66 13 3 C13 3.33 13 3.66 13 4 C11.7625 4.12375 10.525 4.2475 9.25 4.375 C6.1237803 4.75746305 3.71120763 5.30549523 1 7 C1 5.68 1 4.36 1 3 C1.66 3 2.32 3 3 3 C3 2.34 3 1.68 3 1 C2.01 0.67 1.02 0.34 0 0 Z " fill="#A69B7A" transform="translate(24,58)"/>
<path d="M0 0 C0.66 1.32 1.32 2.64 2 4 C4.97 4 7.94 4 11 4 C11.33 5.32 11.66 6.64 12 8 C11.67 7.34 11.34 6.68 11 6 C10.28972656 6.01160156 9.57945312 6.02320312 8.84765625 6.03515625 C7.92855469 6.04417969 7.00945312 6.05320312 6.0625 6.0625 C5.14597656 6.07410156 4.22945313 6.08570312 3.28515625 6.09765625 C1 6 1 6 0 5 C-0.04063832 3.33382885 -0.042721 1.66611905 0 0 Z " fill="#E4E4E4" transform="translate(318,82)"/>
<path d="M0 0 C0.66 0.66 1.32 1.32 2 2 C1.9375 3.875 1.9375 3.875 1 6 C-1.5625 8.25 -1.5625 8.25 -4 10 C-4.25 7.25 -4.25 7.25 -4 4 C-2 1.625 -2 1.625 0 0 Z " fill="#A1A275" transform="translate(44,77)"/>
<path d="M0 0 C2.67927341 4.01891012 2.15601248 6.24161923 2 11 C1.01 10.67 0.02 10.34 -1 10 C-1.33 7.03 -1.66 4.06 -2 1 C-1.34 0.67 -0.68 0.34 0 0 Z " fill="#7D815B" transform="translate(27,86)"/>
<path d="M0 0 C0.66 0 1.32 0 2 0 C2 0.66 2 1.32 2 2 C2.66 2 3.32 2 4 2 C4 3.32 4 4.64 4 6 C5.32 6 6.64 6 8 6 C8 6.66 8 7.32 8 8 C6.02 8 4.04 8 2 8 C1.67 7.34 1.34 6.68 1 6 C0.01 6.495 0.01 6.495 -1 7 C-0.67 4.69 -0.34 2.38 0 0 Z " fill="#EDEDED" transform="translate(123,76)"/>
<path d="M0 0 C1.32 0 2.64 0 4 0 C4 0.99 4 1.98 4 3 C3.01 3 2.02 3 1 3 C1.33 3.99 1.66 4.98 2 6 C0.5625 8.1875 0.5625 8.1875 -1 10 C-2.25 3.375 -2.25 3.375 0 0 Z " fill="#B5B588" transform="translate(13,70)"/>
<path d="M0 0 C2.96175123 0.61277612 4.38058783 1.25372522 7 3 C7 3.99 7 4.98 7 6 C1.25 4.125 1.25 4.125 -1 3 C-0.67 2.01 -0.34 1.02 0 0 Z " fill="#CECFA6" transform="translate(17,96)"/>
<path d="M0 0 C1 3 1 3 0.22265625 5.04296875 C-0.16019531 5.75066406 -0.54304688 6.45835938 -0.9375 7.1875 C-1.31777344 7.90292969 -1.69804688 8.61835937 -2.08984375 9.35546875 C-2.54037109 10.16951172 -2.54037109 10.16951172 -3 11 C-3.99 10.67 -4.98 10.34 -6 10 C-5.319375 8.88625 -5.319375 8.88625 -4.625 7.75 C-3.65733646 6.11241555 -2.72565334 4.45130669 -1.875 2.75 C-1 1 -1 1 0 0 Z " fill="#B7A788" transform="translate(52,83)"/>
<path d="M0 0 C2.46800047 1.15173355 4.04783565 2.04783565 6 4 C5.67 4.99 5.34 5.98 5 7 C3.68 6.01 2.36 5.02 1 4 C0.67 5.65 0.34 7.3 0 9 C-0.33 9 -0.66 9 -1 9 C-1.125 2.25 -1.125 2.25 0 0 Z " fill="#D4C8A2" transform="translate(15,74)"/>
<path d="M0 0 C1.65 0 3.3 0 5 0 C4.45925627 3.78520613 2.92427254 5.59177555 0 8 C-0.99 8 -1.98 8 -3 8 C-3.33 7.01 -3.66 6.02 -4 5 C-3.030625 4.71125 -2.06125 4.4225 -1.0625 4.125 C2.10664203 3.35785318 2.10664203 3.35785318 3 1 C2.01 0.67 1.02 0.34 0 0 Z " fill="#CBD5A5" transform="translate(32,63)"/>
<path d="M0 0 C0.061875 0.61875 0.12375 1.2375 0.1875 1.875 C0.828919 4.27761141 0.828919 4.27761141 3.5625 5.25 C4.366875 5.4975 5.17125 5.745 6 6 C4.02 6.99 4.02 6.99 2 8 C2 7.34 2 6.68 2 6 C1.360625 5.731875 0.72125 5.46375 0.0625 5.1875 C-2 4 -2 4 -3 1 C-2.01 0.67 -1.02 0.34 0 0 Z " fill="#B4AC87" transform="translate(24,61)"/>
<path d="M0 0 C0.99 0.33 1.98 0.66 3 1 C1.25 6.75 1.25 6.75 -1 9 C-1.66 7.02 -2.32 5.04 -3 3 C-2.01 2.01 -1.02 1.02 0 0 Z " fill="#969A6A" transform="translate(31,77)"/>
<path d="M0 0 C3.63 0 7.26 0 11 0 C11 0.99 11 1.98 11 3 C8.36 3 5.72 3 3 3 C3 2.34 3 1.68 3 1 C2.01 0.67 1.02 0.34 0 0 Z " fill="#DDD0AD" transform="translate(25,57)"/>
<path d="M0 0 C1.32 0 2.64 0 4 0 C4 0.66 4 1.32 4 2 C3.34 2 2.68 2 2 2 C1.67 3.32 1.34 4.64 1 6 C-0.32 6.33 -1.64 6.66 -3 7 C-2.38722388 4.03824877 -1.74627478 2.61941217 0 0 Z " fill="#AFA98A" transform="translate(43,87)"/>
<path d="M0 0 C0.66 0 1.32 0 2 0 C3.85776765 3.13498292 4.20140476 5.37471432 4 9 C2.35 7.35 0.7 5.7 -1 4 C-0.34 3.67 0.32 3.34 1 3 C0.67 2.01 0.34 1.02 0 0 Z " fill="#ADAE7C" transform="translate(26,72)"/>
<path d="M0 0 C-1.98 2.97 -1.98 2.97 -4 6 C-7 2.25 -7 2.25 -7 0 C-2.25 -1.125 -2.25 -1.125 0 0 Z " fill="#D1C194" transform="translate(35,72)"/>
<path d="M0 0 C0.66 0.33 1.32 0.66 2 1 C2 1.99 2 2.98 2 4 C0.35 4.66 -1.3 5.32 -3 6 C-3 5.34 -3 4.68 -3 4 C-3.66 3.67 -4.32 3.34 -5 3 C-2.625 1.4375 -2.625 1.4375 0 0 Z " fill="#BBB082" transform="translate(44,64)"/>
<path d="M0 0 C3.465 1.98 3.465 1.98 7 4 C6.01 4.66 5.02 5.32 4 6 C1.3125 5.125 1.3125 5.125 -1 4 C-0.67 2.68 -0.34 1.36 0 0 Z " fill="#ADA981" transform="translate(15,63)"/>
<path d="M0 0 C0.99 0.33 1.98 0.66 3 1 C2.01 2.485 2.01 2.485 1 4 C1 4.66 1 5.32 1 6 C-0.65 6 -2.3 6 -4 6 C-2.25 1.125 -2.25 1.125 0 0 Z " fill="#D0C594" transform="translate(40,64)"/>
<path d="M0 0 C1.64350079 3.28700157 2.41321669 5.47930015 3 9 C1.68 9 0.36 9 -1 9 C-0.67 6.03 -0.34 3.06 0 0 Z " fill="#696C4E" transform="translate(38,87)"/>
<path d="M0 0 C0.99 0 1.98 0 3 0 C3.1953125 6.0546875 3.1953125 6.0546875 3 8 C2.34 8.66 1.68 9.32 1 10 C0.67 6.7 0.34 3.4 0 0 Z " fill="#BFB18C" transform="translate(50,75)"/>
<path d="M0 0 C0.66 0 1.32 0 2 0 C2.625 2.3125 2.625 2.3125 3 5 C2.01 6.485 2.01 6.485 1 8 C0.01 7.67 -0.98 7.34 -2 7 C-1.34 4.69 -0.68 2.38 0 0 Z " fill="#A4A37C" transform="translate(48,79)"/>
<path d="M0 0 C1.42944945 2.35438733 2.08661261 3.48032433 1.625 6.25 C1.41875 6.8275 1.2125 7.405 1 8 C1 7.01 1 6.02 1 5 C0.34 5 -0.32 5 -1 5 C-1.33 5.99 -1.66 6.98 -2 8 C-2 5.69 -2 3.38 -2 1 C-1.34 0.67 -0.68 0.34 0 0 Z " fill="#9C9267" transform="translate(49,74)"/>
<path d="M0 0 C0.99 0 1.98 0 3 0 C3 2.64 3 5.28 3 8 C2.01 7.67 1.02 7.34 0 7 C0 4.69 0 2.38 0 0 Z " fill="#9AA076" transform="translate(11,77)"/>
<path d="M0 0 C0.66 0.33 1.32 0.66 2 1 C1.67 2.32 1.34 3.64 1 5 C-0.65 5.33 -2.3 5.66 -4 6 C-4 5.01 -4 4.02 -4 3 C-3.01 2.34 -2.02 1.68 -1 1 C-0.67 0.67 -0.34 0.34 0 0 Z " fill="#8D8B67" transform="translate(41,93)"/>
<path d="M0 0 C0.33 1.32 0.66 2.64 1 4 C1.66 4 2.32 4 3 4 C3 5.32 3 6.64 3 8 C1.68 8.33 0.36 8.66 -1 9 C-0.67 6.03 -0.34 3.06 0 0 Z " fill="#788843" transform="translate(53,78)"/>
<path d="" fill="#FFFFFF" transform="translate(0,0)"/>
</svg>
